{"glyphs":{"0":{"ha":869,"x_min":0,"x_max":0,"o":"m 823 460 b 431 -17 823 153 660 -17 b 47 453 186 -17 47 185 b 436 964 47 748 209 964 b 823 460 653 964 823 768 m 679 432 b 628 710 679 540 660 638 b 426 876 584 813 509 876 b 199 483 310 876 199 737 b 238 240 199 417 204 322 b 450 78 290 115 381 78 b 679 432 576 78 679 194 "},"1":{"ha":520,"x_min":0,"x_max":0,"o":"m 314 962 b 346 931 335 962 346 947 b 335 478 346 883 335 773 b 342 122 335 291 338 147 b 469 28 351 64 469 76 b 433 -3 469 12 457 -3 b 273 0 399 -3 305 0 b 100 -3 238 0 132 -3 b 63 28 76 -3 63 12 b 190 122 63 76 180 64 b 197 478 194 142 197 287 b 187 778 197 686 196 753 b 161 796 183 790 177 796 b 97 785 141 796 115 785 b 67 813 76 785 67 799 b 101 852 67 831 81 842 b 314 962 237 919 281 962 "},"2":{"ha":760,"x_min":0,"x_max":0,"o":"m 232 133 b 349 118 232 123 256 118 b 644 167 515 118 599 139 b 717 218 679 190 697 218 b 740 185 734 218 740 201 b 713 42 740 161 724 100 b 660 -4 706 5 699 -4 b 363 0 633 -4 497 0 b 65 -4 182 0 101 -4 b 26 24 44 -4 26 1 b 58 78 26 40 38 58 l 174 192 b 502 663 345 356 502 488 b 313 846 502 792 406 846 b 102 698 215 846 137 785 b 76 668 96 685 88 668 b 55 708 62 668 55 683 b 365 965 55 796 152 965 b 653 704 519 965 653 874 b 317 217 653 503 481 365 b 232 133 261 167 232 142 "},"3":{"ha":795,"x_min":0,"x_max":0,"o":"m 655 790 b 474 608 578 696 500 633 b 460 589 467 601 460 595 b 474 578 460 583 467 581 b 756 285 546 561 756 498 b 406 -15 756 112 611 -15 b 38 260 163 -15 38 165 b 59 296 38 276 42 296 b 86 268 69 296 74 289 b 376 101 128 194 218 101 b 605 294 522 101 605 177 b 350 506 605 455 429 490 b 310 544 325 510 310 524 b 395 640 310 567 329 580 b 549 814 525 758 549 798 b 426 825 549 820 536 825 b 179 769 269 825 217 808 b 130 725 160 747 151 725 b 107 758 115 725 107 738 b 131 903 107 786 121 846 b 186 949 138 941 141 949 b 427 944 219 949 290 944 b 708 949 553 944 690 949 b 735 922 725 949 735 936 b 655 790 735 895 689 831 "},"4":{"ha":809,"x_min":0,"x_max":0,"o":"m 614 925 b 594 336 614 877 594 508 b 617 315 594 320 600 315 b 770 351 725 315 749 351 b 794 312 791 351 794 332 b 765 215 794 289 781 240 b 706 190 755 200 742 190 l 616 190 b 594 169 599 190 594 181 b 622 0 594 32 622 23 b 578 -44 622 -22 605 -34 b 510 -57 560 -51 526 -57 b 464 56 485 -57 464 -45 l 464 167 b 437 190 464 180 460 190 l 139 190 b 85 203 112 190 95 197 b 33 283 53 223 33 257 b 334 741 33 366 254 643 b 580 963 424 851 537 963 b 614 925 597 963 614 953 m 156 327 b 182 313 156 316 166 313 l 445 313 b 467 338 465 313 467 328 b 481 728 472 526 481 688 b 473 751 481 741 479 751 b 407 692 461 751 433 721 b 156 327 388 671 156 388 "},"5":{"ha":795,"x_min":0,"x_max":0,"o":"m 755 308 b 389 -15 755 122 602 -15 b 17 249 147 -15 17 159 b 38 280 17 267 24 280 b 67 252 49 280 56 267 b 360 100 122 169 219 100 b 602 308 509 100 602 184 b 334 510 602 435 506 510 b 153 477 233 510 188 477 b 127 515 132 477 127 493 b 188 920 127 594 162 835 b 222 949 194 941 203 949 b 403 944 249 949 313 944 b 653 962 612 944 625 962 b 674 942 668 962 674 953 b 644 854 674 924 663 910 b 600 823 640 838 629 823 b 290 833 454 823 342 833 b 258 809 271 833 264 830 b 223 594 248 776 223 635 b 233 572 223 578 226 572 b 423 601 251 572 322 601 b 755 308 644 601 755 471 "},"6":{"ha":808,"x_min":0,"x_max":0,"o":"m 47 431 b 455 964 47 753 235 964 b 694 802 613 964 694 853 b 676 773 694 784 688 773 b 645 799 665 773 657 785 b 478 869 614 840 552 869 b 199 529 335 869 199 725 b 206 519 199 519 203 519 b 242 554 213 519 221 532 b 474 654 296 609 379 654 b 768 336 689 654 768 491 b 419 -17 768 143 632 -17 b 47 431 224 -17 47 129 m 428 563 b 210 350 313 563 210 474 b 436 71 210 185 327 71 b 634 299 551 71 634 156 b 586 481 634 365 617 433 b 428 563 549 536 489 563 "},"7":{"ha":699,"x_min":0,"x_max":0,"o":"m 534 810 b 345 825 534 822 478 825 b 98 769 190 825 136 808 b 47 725 78 747 67 725 b 24 758 31 725 24 738 b 47 903 24 786 38 846 b 103 949 55 941 58 949 b 344 944 135 949 206 944 b 666 949 506 944 648 949 b 698 922 687 949 698 936 b 651 844 698 897 679 882 b 408 425 582 756 501 626 b 297 -18 348 293 302 143 b 267 -54 295 -42 286 -54 b 142 33 220 -54 142 -19 b 518 782 142 230 351 568 b 534 810 530 797 534 803 "},"8":{"ha":820,"x_min":0,"x_max":0,"o":"m 35 253 b 248 515 35 351 98 475 b 94 726 158 553 94 631 b 414 972 94 892 258 972 b 725 742 552 972 725 908 b 571 536 725 625 635 557 b 785 269 676 499 785 419 b 402 -23 785 68 595 -23 b 35 253 166 -23 35 110 m 613 731 b 419 884 613 826 526 884 b 238 742 311 884 238 826 b 447 588 238 630 369 588 b 613 731 535 588 613 640 m 162 262 b 406 74 162 138 275 74 b 633 247 536 74 633 136 b 380 451 633 389 472 451 b 162 262 247 451 162 367 "},"9":{"ha":790,"x_min":0,"x_max":0,"o":"m 742 492 b 353 -15 742 173 584 -15 b 47 195 148 -15 47 140 b 65 222 47 210 53 222 b 96 197 76 222 82 210 b 323 91 134 153 208 91 b 591 414 483 91 591 208 b 584 424 591 424 587 424 b 547 388 577 424 571 412 b 342 302 497 333 427 302 b 40 617 153 302 40 449 b 388 965 40 811 191 965 b 742 492 583 965 742 814 m 373 881 b 180 649 270 881 180 794 b 226 478 180 588 194 524 b 382 393 262 425 314 393 b 582 617 491 393 582 479 b 373 881 582 749 494 881 "},"\u0000":{"ha":0,"x_min":0,"x_max":0,"o":""},"\r":{"ha":396,"x_min":0,"x_max":0,"o":""}," ":{"ha":347,"x_min":0,"x_max":0,"o":""},"!":{"ha":341,"x_min":0,"x_max":0,"o":"m 251 853 b 197 310 251 754 208 394 b 169 274 193 286 184 274 b 140 307 154 274 147 287 b 94 856 122 368 94 744 b 176 968 94 932 119 968 b 251 853 228 968 251 931 m 261 85 b 165 -8 261 26 215 -8 b 80 74 120 -8 80 19 b 175 170 80 134 128 170 b 261 85 219 170 261 141 "},"\"":{"ha":533,"x_min":0,"x_max":0,"o":"m 149 578 b 115 619 126 578 119 598 b 83 885 103 683 83 856 b 149 968 83 926 98 968 b 215 885 201 968 215 926 b 183 619 215 857 195 685 b 149 578 178 598 171 578 m 383 578 b 349 619 360 578 353 598 b 317 885 337 683 317 856 b 383 968 317 926 332 968 b 449 885 435 968 449 926 b 417 619 449 857 429 685 b 383 578 413 598 405 578 "},"#":{"ha":806,"x_min":0,"x_max":0,"o":"m 519 284 b 481 -3 497 108 483 4 b 451 -16 478 -10 473 -16 b 406 7 428 -16 406 -9 b 408 27 406 10 407 20 l 439 284 l 326 284 b 289 -3 305 108 291 4 b 259 -16 286 -10 280 -16 b 213 7 236 -16 213 -9 b 216 27 213 10 215 20 l 247 284 l 126 284 b 113 299 115 284 113 291 b 119 355 113 315 115 342 b 144 373 124 369 128 373 l 257 373 l 280 559 l 160 559 b 147 574 148 559 147 566 b 154 631 147 589 149 618 b 178 648 158 644 163 648 l 291 648 b 331 946 310 805 327 933 b 363 958 333 951 338 958 b 405 936 389 958 405 951 b 403 913 405 933 404 921 b 371 648 392 819 381 730 l 483 648 b 524 946 502 805 519 933 b 556 958 526 951 531 958 b 598 936 581 958 598 951 b 596 913 598 933 597 921 b 564 648 584 819 574 730 l 681 648 b 692 633 690 648 692 641 b 685 576 692 613 692 596 b 660 559 681 563 677 559 l 553 559 l 531 373 l 647 373 b 658 358 657 373 658 365 b 652 302 658 337 657 322 b 626 284 647 288 642 284 m 338 373 l 449 373 b 472 559 456 434 465 497 l 360 559 "},"$":{"ha":806,"x_min":0,"x_max":0,"o":"m 464 1024 b 462 947 464 1018 463 989 b 672 863 538 940 623 915 b 710 730 693 839 710 783 b 681 663 710 683 701 663 b 618 740 655 663 642 701 b 459 866 586 788 540 844 l 447 547 b 753 274 608 499 753 440 b 428 3 753 97 599 10 b 425 -72 426 -43 425 -72 b 370 -115 424 -95 399 -115 b 348 -82 351 -115 348 -106 b 350 6 348 -77 349 -44 b 60 254 157 33 60 190 b 81 289 60 274 69 289 b 130 237 99 289 107 266 b 353 94 171 181 236 113 b 365 434 356 188 360 310 b 94 694 230 476 94 540 b 384 949 94 852 230 938 b 388 1022 385 988 387 1016 b 444 1062 390 1040 413 1062 b 464 1024 462 1062 464 1042 m 209 729 b 370 571 209 644 274 603 b 381 874 374 685 378 792 b 209 729 278 871 209 811 m 628 242 b 442 410 628 338 557 374 l 431 90 b 628 242 546 96 628 151 "},"%":{"ha":1042,"x_min":0,"x_max":0,"o":"m 506 706 b 265 446 506 549 409 446 b 38 689 119 446 38 554 b 283 964 38 844 139 964 b 506 706 414 964 506 860 m 832 906 b 274 1 807 861 285 17 b 241 -17 266 -9 258 -17 b 202 12 222 -17 202 -6 b 208 33 202 19 204 26 b 770 943 227 71 600 663 b 800 960 776 953 784 960 b 840 930 822 960 840 944 b 832 906 840 924 836 914 m 399 686 b 374 826 399 739 390 791 b 274 899 352 873 313 899 b 155 710 213 899 155 835 b 178 588 155 674 159 625 b 280 519 201 541 240 519 b 399 686 344 519 399 572 m 1003 251 b 763 -10 1003 93 906 -10 b 535 233 617 -10 535 99 b 781 508 535 388 636 508 b 1003 251 911 508 1003 405 m 896 231 b 872 370 896 283 887 335 b 772 443 849 417 810 443 b 652 254 710 443 652 380 b 675 133 652 218 656 169 b 777 63 698 85 738 63 b 896 231 841 63 896 116 "},"&":{"ha":1047,"x_min":0,"x_max":0,"o":"m 1008 103 b 898 -15 1008 39 964 -15 b 760 42 863 -15 813 6 b 709 72 740 56 720 72 b 659 43 697 72 680 57 b 410 -24 594 1 510 -24 b 42 267 172 -24 42 108 b 239 548 42 393 126 490 b 265 571 250 553 265 562 b 216 739 265 586 216 643 b 460 965 216 862 313 965 b 672 786 577 965 672 895 b 488 565 672 678 592 615 b 456 542 472 557 456 550 b 465 522 456 537 457 533 b 724 267 527 442 692 267 b 765 399 747 267 765 343 b 741 507 765 444 759 476 b 686 571 721 541 686 545 b 772 601 686 597 714 599 b 911 613 856 606 890 613 b 947 583 928 613 947 605 b 869 470 947 547 894 543 b 825 263 851 410 858 358 b 804 202 819 244 804 220 b 942 127 804 185 894 127 b 989 143 969 127 977 143 b 1008 103 1001 143 1008 128 m 348 758 b 406 622 348 690 389 622 b 578 772 426 622 578 669 b 469 876 578 833 529 876 b 348 758 398 876 348 821 m 444 77 b 619 145 535 77 619 121 b 450 322 619 164 583 176 b 322 474 351 432 335 474 b 189 294 296 474 189 408 b 444 77 189 181 281 77 "},"'":{"ha":299,"x_min":0,"x_max":0,"o":"m 149 578 b 115 619 126 578 119 598 b 83 885 103 683 83 856 b 149 968 83 926 98 968 b 215 885 201 968 215 926 b 183 619 215 857 195 685 b 149 578 178 598 171 578 "},"(":{"ha":501,"x_min":0,"x_max":0,"o":"m 242 400 b 415 -144 242 173 315 -44 b 463 -203 444 -172 463 -183 b 434 -226 463 -218 453 -226 b 231 -63 383 -226 294 -157 b 101 393 165 32 101 184 b 231 851 101 600 165 754 b 434 1015 301 955 387 1015 b 463 991 453 1015 463 1006 b 415 932 463 972 445 961 b 242 400 317 834 242 631 "},")":{"ha":501,"x_min":0,"x_max":0,"o":"m 260 388 b 86 932 260 615 186 833 b 38 991 58 960 38 972 b 67 1015 38 1006 49 1015 b 271 851 119 1015 208 945 b 400 395 336 756 400 604 b 270 -63 400 188 337 34 b 67 -226 200 -167 115 -226 b 38 -203 49 -226 38 -218 b 86 -144 38 -183 56 -173 b 260 388 185 -46 260 157 "},"*":{"ha":628,"x_min":0,"x_max":0,"o":"m 481 865 b 538 806 512 865 538 842 b 481 753 538 781 517 753 b 374 756 460 753 390 756 b 356 742 367 756 356 752 b 472 616 356 712 472 676 b 415 559 472 582 443 559 b 313 714 334 559 347 714 b 289 664 301 714 292 684 b 211 560 272 589 253 560 b 157 617 183 560 157 586 b 268 743 157 680 268 714 b 256 756 268 751 263 756 b 153 753 235 756 172 753 b 93 810 115 753 93 782 b 149 867 93 839 117 867 b 282 794 198 867 250 794 b 291 810 289 794 291 803 b 258 933 291 829 258 900 b 313 987 258 967 287 987 b 369 933 342 987 369 967 b 336 810 369 896 336 833 b 348 794 336 799 341 794 b 481 865 375 794 430 865 "},"+":{"ha":747,"x_min":0,"x_max":0,"o":"m 424 502 l 653 502 b 672 480 669 502 672 491 b 663 425 672 462 668 441 b 617 403 657 410 649 403 l 424 403 l 424 172 b 378 148 424 156 411 148 b 324 176 341 148 324 154 l 324 403 l 94 403 b 75 426 78 403 75 414 b 85 480 75 442 80 467 b 131 502 91 494 98 502 l 324 502 l 324 728 b 369 752 324 744 336 752 b 424 724 406 752 424 746 "},",":{"ha":335,"x_min":0,"x_max":0,"o":"m 112 -219 b 88 -199 98 -219 88 -210 b 149 -60 88 -178 149 -135 b 76 76 149 -8 76 0 b 166 170 76 134 122 170 b 263 53 220 170 263 134 b 112 -219 263 -94 161 -219 "},"-":{"ha":497,"x_min":0,"x_max":0,"o":"m 83 313 b 51 342 58 313 51 326 b 64 396 51 358 56 383 b 124 419 72 412 87 419 l 415 419 b 447 392 442 419 447 405 b 433 336 447 374 440 349 b 373 313 424 320 409 313 "},".":{"ha":335,"x_min":0,"x_max":0,"o":"m 258 85 b 163 -8 258 26 212 -8 b 76 74 117 -8 76 19 b 172 170 76 134 124 170 b 258 85 215 170 258 141 "},"/":{"ha":467,"x_min":0,"x_max":0,"o":"m 438 917 b 97 1 426 883 106 17 b 69 -17 92 -10 86 -17 b 24 6 50 -17 24 -9 b 28 23 24 12 26 18 b 371 943 35 48 357 913 b 399 960 375 953 378 960 b 442 938 418 960 442 951 b 438 917 442 931 440 924 "},":":{"ha":335,"x_min":0,"x_max":0,"o":"m 258 590 b 163 497 258 532 212 497 b 76 580 117 497 76 524 b 172 676 76 640 124 676 b 258 590 215 676 258 647 m 258 85 b 163 -8 258 26 212 -8 b 76 74 117 -8 76 19 b 172 170 76 134 124 170 b 258 85 215 170 258 141 "},";":{"ha":335,"x_min":0,"x_max":0,"o":"m 258 590 b 163 497 258 532 212 497 b 76 580 117 497 76 524 b 172 676 76 640 124 676 b 258 590 215 676 258 647 m 112 -219 b 88 -199 98 -219 88 -210 b 149 -60 88 -178 149 -135 b 76 76 149 -8 76 0 b 166 170 76 134 122 170 b 263 53 220 170 263 134 b 112 -219 263 -94 161 -219 "},"<":{"ha":747,"x_min":0,"x_max":0,"o":"m 213 448 b 233 433 213 444 222 438 b 644 248 289 402 455 324 b 672 213 661 241 672 235 b 641 147 672 195 663 147 b 605 156 636 147 622 149 b 94 400 505 196 234 319 b 76 435 83 406 76 419 b 103 500 76 465 88 491 b 605 739 241 580 510 700 b 642 751 625 748 638 751 b 672 685 664 751 672 708 b 644 649 672 665 660 656 b 233 464 598 628 320 510 b 213 448 222 458 213 452 "},"=":{"ha":747,"x_min":0,"x_max":0,"o":"m 94 542 b 75 565 78 542 75 553 b 85 619 75 581 80 606 b 131 641 91 633 98 641 l 653 641 b 672 619 669 641 672 630 b 663 564 672 601 668 580 b 617 542 657 549 649 542 m 94 264 b 75 287 78 264 75 275 b 85 341 75 303 80 328 b 131 363 91 355 98 363 l 653 363 b 672 341 669 363 672 352 b 663 286 672 323 668 302 b 617 264 657 272 649 264 "},">":{"ha":747,"x_min":0,"x_max":0,"o":"m 534 453 b 515 469 534 458 525 464 b 103 649 458 499 292 574 b 76 685 86 656 76 662 b 106 751 76 703 84 751 b 142 741 111 751 126 749 b 653 501 242 701 513 583 b 672 466 665 495 672 483 b 644 402 672 438 660 413 b 142 158 553 344 237 198 b 106 147 122 149 109 147 b 76 213 83 147 76 190 b 103 249 76 232 87 242 b 515 438 149 269 427 392 b 534 453 525 443 534 449 "},"?":{"ha":629,"x_min":0,"x_max":0,"o":"m 283 861 b 128 788 199 861 151 814 b 89 751 110 767 101 751 b 71 784 76 751 71 766 b 331 967 71 849 167 967 b 576 769 466 967 576 903 b 264 326 576 537 264 476 b 267 290 264 309 267 297 b 249 272 267 280 262 272 b 199 367 225 272 199 315 b 424 742 199 524 424 576 b 283 861 424 819 369 861 m 356 85 b 261 -8 356 26 311 -8 b 176 74 216 -8 176 19 b 270 170 176 134 223 170 b 356 85 315 170 356 141 "},"@":{"ha":996,"x_min":0,"x_max":0,"o":"m 875 578 b 592 878 875 751 781 878 b 152 393 386 878 152 701 b 492 48 152 162 301 48 b 750 126 627 48 708 97 b 795 156 769 140 785 156 b 809 141 801 156 809 152 b 474 -18 809 101 672 -18 b 47 408 192 -18 47 182 b 592 967 47 717 298 967 b 959 619 822 967 959 822 b 703 213 959 424 837 213 b 618 288 648 213 622 253 b 613 310 617 303 616 310 b 448 209 603 310 560 209 b 288 411 351 209 288 281 b 542 740 288 588 408 740 b 680 672 629 740 658 672 b 707 691 689 672 697 681 b 745 716 721 704 732 716 b 760 696 757 716 760 710 b 712 314 760 655 712 364 b 738 275 712 283 723 275 b 875 578 792 275 875 407 m 490 286 b 638 535 574 286 638 392 b 551 676 638 654 590 676 b 398 419 471 676 398 558 b 490 286 398 326 438 286 "},"A":{"ha":915,"x_min":0,"x_max":0,"o":"m 343 799 b 372 901 357 836 367 872 b 480 964 377 930 444 964 b 526 917 506 964 515 944 l 823 144 b 881 69 829 128 847 92 b 913 31 894 61 913 49 b 849 -3 913 1 891 -3 b 742 0 819 -3 792 0 b 638 -3 691 0 670 -3 b 591 29 606 -3 591 8 b 665 118 591 62 665 69 b 614 262 665 128 635 224 b 581 281 608 273 599 281 l 282 281 b 244 265 263 281 251 275 b 190 115 223 231 190 134 b 259 27 190 61 259 60 b 213 -3 259 10 248 -3 b 106 0 190 -3 131 0 b 39 -3 79 0 63 -3 b 3 27 15 -3 3 8 b 89 139 3 62 58 60 m 559 369 b 572 380 570 369 572 373 b 442 741 572 399 480 661 b 428 756 439 748 433 756 b 417 742 423 756 419 748 b 281 380 380 665 281 395 b 294 369 281 373 284 369 "},"B":{"ha":925,"x_min":0,"x_max":0,"o":"m 116 -3 b 72 25 83 -3 72 9 b 144 115 72 63 138 54 b 150 482 149 148 150 299 b 148 803 150 655 149 786 b 76 917 142 883 76 875 b 117 948 76 935 87 948 b 241 944 152 948 203 944 b 453 949 313 944 385 949 b 813 726 628 949 813 909 b 652 522 813 615 713 543 b 645 514 649 521 645 518 b 652 507 645 510 649 507 b 883 275 789 476 883 389 b 491 -4 883 32 663 -4 b 228 0 419 -4 301 0 b 116 -3 190 0 149 -3 m 292 579 b 340 545 292 549 310 545 b 548 565 403 545 494 549 b 667 713 621 585 667 636 b 400 865 667 841 544 865 b 292 819 304 865 292 851 m 723 272 b 563 451 723 365 665 426 b 334 465 510 463 401 465 b 292 416 307 465 292 457 l 292 133 b 454 80 292 92 300 80 b 723 272 624 80 723 131 "},"":{"ha":925,"x_min":0,"x_max":0,"o":"m 116 -3 b 228 0 149 -3 190 0 b 491 -4 301 0 419 -4 b 883 275 663 -4 883 32 b 652 507 883 389 789 476 b 645 514 649 507 645 510 b 652 522 645 518 649 521 b 813 726 713 543 813 615 b 453 949 813 909 628 949 b 241 944 385 949 313 944 b 117 948 203 944 152 948 b 76 917 87 948 76 935 b 148 803 76 875 142 883 b 150 482 149 786 150 655 b 144 115 150 299 149 148 b 72 25 138 54 72 63 b 116 -3 72 9 83 -3 m 292 819 b 400 865 292 851 304 865 b 667 713 544 865 667 841 b 548 565 667 636 621 585 b 340 545 494 549 403 545 b 292 579 310 545 292 549 m 723 272 b 454 80 723 131 624 80 b 292 133 300 80 292 92 l 292 416 b 334 465 292 457 307 465 b 563 451 401 465 510 463 b 723 272 665 426 723 365 "},"C":{"ha":929,"x_min":0,"x_max":0,"o":"m 48 465 b 489 968 48 730 207 968 b 709 925 602 968 663 925 b 776 938 736 925 756 938 b 834 813 814 938 815 897 b 859 699 850 737 859 715 b 830 665 859 677 847 665 b 762 733 801 665 785 699 b 494 889 697 826 599 889 b 206 513 314 889 206 716 b 546 99 206 278 338 99 b 838 297 705 99 797 204 b 869 330 847 313 856 330 b 890 291 885 330 890 308 b 851 167 890 258 878 212 b 492 -24 796 74 676 -24 b 48 465 213 -24 48 199 "},"D":{"ha":1005,"x_min":0,"x_max":0,"o":"m 222 944 b 427 949 299 944 352 949 b 957 478 691 949 957 819 b 491 -4 957 177 773 -4 b 222 1 409 -4 317 1 b 116 -3 188 1 142 -3 b 72 25 83 -3 72 10 b 144 115 72 63 137 56 b 150 482 149 144 150 381 b 149 803 150 553 150 780 b 76 917 142 884 76 876 b 117 948 76 933 83 948 b 222 944 143 948 189 944 m 292 158 b 466 80 292 92 317 80 b 799 456 704 80 799 258 b 412 865 799 683 696 865 b 292 791 301 865 292 844 "},"E":{"ha":856,"x_min":0,"x_max":0,"o":"m 591 404 b 565 353 591 369 585 353 b 529 388 545 353 536 372 b 338 460 503 444 494 460 b 291 412 299 460 291 445 l 291 156 b 449 84 291 90 311 84 b 726 240 638 84 677 111 b 766 287 737 266 751 287 b 792 238 783 287 792 274 b 769 40 792 209 771 72 b 713 -3 767 10 749 -3 b 458 0 687 -3 611 0 b 116 -3 265 0 165 -3 b 72 25 83 -3 72 9 b 144 115 72 62 136 56 b 150 482 149 144 150 380 b 148 803 150 554 150 780 b 76 917 142 883 76 875 b 117 948 76 933 83 948 b 425 944 154 948 210 944 b 684 948 598 944 660 948 b 735 897 715 948 727 940 b 755 759 740 869 747 804 b 763 703 760 735 763 710 b 735 673 763 683 750 673 b 691 728 712 673 701 705 b 444 863 644 842 625 863 b 291 793 310 863 291 855 l 291 592 b 335 544 291 556 299 544 b 535 621 503 544 512 565 b 562 644 542 633 552 644 b 591 581 583 644 591 627 "},"":{"ha":856,"x_min":0,"x_max":0,"o":"m 591 581 b 562 644 591 627 583 644 b 535 621 552 644 542 633 b 335 544 512 565 503 544 b 291 592 299 544 291 556 l 291 793 b 444 863 291 855 310 863 b 691 728 625 863 644 842 b 735 673 701 705 712 673 b 763 703 750 673 763 683 b 755 759 763 710 760 735 b 735 897 747 804 740 869 b 684 948 727 940 715 948 b 425 944 660 948 598 944 b 117 948 210 944 154 948 b 76 917 83 948 76 933 b 148 803 76 875 142 883 b 150 482 150 780 150 554 b 144 115 150 380 149 144 b 72 25 136 56 72 62 b 116 -3 72 9 83 -3 b 458 0 165 -3 265 0 b 713 -3 611 0 687 -3 b 769 40 749 -3 767 10 b 792 238 771 72 792 209 b 766 287 792 274 783 287 b 726 240 751 287 737 266 b 449 84 677 111 638 84 b 291 156 311 84 291 90 l 291 412 b 338 460 291 445 299 460 b 529 388 494 460 503 444 b 565 353 536 372 545 353 b 591 404 585 353 591 369 "},"F":{"ha":785,"x_min":0,"x_max":0,"o":"m 291 163 b 353 69 291 111 304 85 b 406 28 383 58 406 50 b 353 -3 406 8 389 -3 b 222 0 328 -3 256 0 b 116 -3 183 0 139 -3 b 72 25 83 -3 72 9 b 144 115 72 62 136 56 b 150 482 149 144 150 380 b 148 803 150 554 150 780 b 76 917 142 883 76 875 b 117 948 76 933 83 948 b 425 944 154 948 210 944 b 684 948 598 944 660 948 b 735 897 715 948 727 940 b 755 759 740 869 747 804 b 763 703 760 735 763 710 b 735 673 763 683 750 673 b 691 728 712 673 701 705 b 444 863 644 842 625 863 b 291 793 310 863 291 855 l 291 578 b 335 530 291 542 299 530 b 535 607 506 530 510 551 b 562 630 542 619 550 630 b 591 567 583 630 591 613 l 591 390 b 565 339 591 356 585 339 b 529 374 545 339 536 358 b 338 446 503 431 494 446 b 291 398 299 446 291 431 "},"G":{"ha":996,"x_min":0,"x_max":0,"o":"m 489 -24 b 48 465 217 -24 48 199 b 489 968 48 730 207 968 b 709 925 602 968 663 925 b 776 938 736 925 756 938 b 834 813 814 938 815 897 b 859 699 850 737 859 715 b 830 665 859 677 847 665 b 762 733 801 665 785 699 b 494 889 697 826 599 889 b 203 506 314 889 203 711 b 531 88 203 260 344 88 b 730 174 620 88 703 132 b 754 302 751 208 754 228 b 700 445 754 430 739 425 b 629 491 674 460 629 458 b 680 526 629 514 646 526 b 792 523 713 526 763 523 b 899 526 831 523 855 526 b 937 494 924 526 937 513 b 894 347 937 453 894 465 b 895 44 894 283 895 83 b 860 -6 895 14 888 -6 b 817 34 845 -6 831 6 b 782 69 806 51 795 69 b 709 33 768 69 744 51 b 489 -24 657 8 579 -24 "},"H":{"ha":1016,"x_min":0,"x_max":0,"o":"m 900 948 b 940 917 932 948 940 933 b 869 803 940 874 874 886 b 866 482 867 782 866 615 b 873 115 866 335 867 149 b 944 25 881 55 944 63 b 900 -3 944 10 932 -3 b 797 0 874 -3 829 0 b 690 -3 762 0 716 -3 b 646 25 658 -3 646 10 b 719 115 646 63 710 56 b 724 414 721 134 724 312 b 688 457 724 444 715 457 l 328 457 b 291 414 303 457 291 447 b 299 115 291 308 295 139 b 370 25 308 55 370 63 b 326 -3 370 10 358 -3 b 222 0 300 -3 256 0 b 116 -3 188 0 142 -3 b 72 25 83 -3 72 10 b 144 115 72 63 137 56 b 150 482 149 144 150 381 b 149 803 150 553 150 780 b 76 917 142 884 76 876 b 117 948 76 933 83 948 b 222 944 143 948 189 944 b 326 948 256 944 301 948 b 367 917 358 948 367 933 b 299 823 367 878 310 885 b 291 595 294 810 291 667 b 329 547 291 558 301 547 l 686 547 b 724 595 713 547 724 558 b 718 823 724 672 722 812 b 649 917 710 881 649 880 b 691 948 649 933 658 948 b 797 944 717 948 763 944 b 900 948 830 944 875 948 "},"I":{"ha":442,"x_min":0,"x_max":0,"o":"m 326 948 b 367 917 358 948 367 933 b 295 803 367 874 301 886 b 292 482 293 782 292 615 b 299 115 292 335 294 149 b 370 25 308 55 370 63 b 326 -3 370 10 358 -3 b 222 0 300 -3 256 0 b 116 -3 188 0 142 -3 b 72 25 83 -3 72 10 b 144 115 72 63 137 56 b 150 482 149 144 150 381 b 149 803 150 553 150 780 b 76 917 142 884 76 876 b 117 948 76 933 83 948 b 222 944 143 948 189 944 b 326 948 256 944 301 948 "},"J":{"ha":738,"x_min":0,"x_max":0,"o":"m 469 482 b 466 799 469 615 468 778 b 374 917 460 882 374 872 b 415 948 374 933 383 948 b 539 944 440 948 505 944 b 639 948 572 944 613 948 b 681 917 672 948 681 933 b 613 803 681 876 619 884 b 611 406 611 780 611 478 b 299 -21 611 135 538 -21 b 32 191 101 -21 32 97 b 134 315 32 250 66 315 b 205 257 184 315 205 285 b 176 157 205 232 176 206 b 299 56 176 108 208 56 b 469 365 427 56 469 176 "},"K":{"ha":940,"x_min":0,"x_max":0,"o":"m 297 494 b 629 842 313 494 629 806 b 581 918 629 875 581 881 b 621 948 581 933 592 948 b 715 944 642 948 691 944 b 840 947 736 944 818 947 b 886 917 871 947 886 940 b 771 824 886 881 828 866 b 445 521 722 788 593 670 b 438 508 442 517 438 513 b 447 500 438 506 440 502 b 799 183 600 454 698 366 b 885 75 825 135 844 102 b 933 27 914 55 933 50 b 898 -3 933 5 916 -3 b 785 0 871 -3 816 0 b 682 -3 735 0 699 -3 b 642 25 658 -3 642 10 b 659 83 642 47 659 49 b 341 400 659 181 522 400 b 292 356 310 400 292 386 l 292 150 b 334 71 292 108 308 87 b 383 25 357 56 383 47 b 339 -3 383 8 369 -3 b 222 0 310 -3 256 0 b 116 -3 188 0 142 -3 b 72 25 83 -3 72 10 b 144 115 72 63 137 56 b 150 482 149 144 150 381 b 149 803 150 553 150 780 b 76 917 142 884 76 876 b 117 948 76 933 83 948 b 222 944 143 948 189 944 b 326 948 256 944 301 948 b 367 917 358 948 367 933 b 301 826 367 880 309 883 b 290 652 296 808 290 726 b 297 494 290 510 292 494 "},"L":{"ha":814,"x_min":0,"x_max":0,"o":"m 150 482 b 149 803 150 553 150 780 b 76 917 142 884 76 876 b 117 948 76 933 83 948 b 222 944 143 948 189 944 b 347 948 256 944 322 948 b 387 917 378 948 387 933 b 295 799 387 872 301 882 b 292 482 293 778 292 615 l 292 149 b 447 84 292 93 308 84 b 699 242 631 84 663 118 b 742 301 715 290 726 301 b 768 251 763 301 768 278 b 753 42 768 213 757 127 b 697 -3 751 11 732 -3 b 416 0 655 -3 583 0 b 116 -3 212 0 149 -3 b 72 25 88 -3 72 5 b 144 115 72 65 134 56 b 150 482 149 137 150 290 "},"M":{"ha":1232,"x_min":0,"x_max":0,"o":"m 919 689 b 778 360 911 689 885 638 b 652 34 713 191 667 65 b 591 -7 640 11 617 -7 b 559 20 577 -7 566 6 b 287 688 544 50 327 591 b 272 712 280 703 276 712 b 263 684 267 712 265 701 b 247 187 260 640 247 243 b 260 98 247 147 253 111 b 322 27 285 56 322 60 b 280 -3 322 9 310 -3 b 198 0 249 -3 216 0 b 107 -3 174 0 141 -3 b 67 26 83 -3 67 8 b 141 132 67 64 132 60 b 168 723 156 256 168 620 b 166 803 168 772 168 788 b 94 917 159 885 94 875 b 133 948 94 935 103 948 b 220 944 151 948 194 944 b 320 930 280 944 302 941 b 366 873 340 917 356 891 b 624 258 382 844 594 329 b 634 249 627 253 630 249 b 643 258 636 249 640 251 b 888 875 652 280 810 697 b 931 930 901 903 915 919 b 1024 944 947 940 972 944 b 1109 948 1041 944 1090 948 b 1143 917 1134 948 1143 933 b 1073 806 1143 878 1088 881 b 1069 735 1069 785 1069 755 b 1100 138 1069 554 1091 202 b 1174 26 1111 56 1174 64 b 1131 -3 1174 8 1160 -3 b 1019 0 1099 -3 1042 0 b 919 -3 983 0 952 -3 b 874 25 890 -3 874 7 b 947 119 874 62 933 56 b 949 160 949 128 949 142 b 928 658 949 223 940 456 b 919 689 926 680 923 689 "},"N":{"ha":997,"x_min":0,"x_max":0,"o":"m 117 948 b 210 944 138 948 183 944 b 278 936 242 944 264 943 b 338 868 296 927 308 910 l 724 300 b 762 260 745 270 758 260 b 769 485 767 260 769 261 b 756 830 769 662 766 808 b 683 919 742 881 683 885 b 723 948 683 939 696 948 b 815 944 756 948 794 944 b 900 948 840 944 869 948 b 937 917 927 948 937 935 b 869 813 937 877 874 883 b 865 486 866 786 865 638 b 873 58 865 166 873 116 b 790 -10 873 21 832 -10 b 742 23 774 -10 757 3 l 274 699 b 255 719 265 710 259 719 b 244 465 245 719 244 709 b 259 111 244 285 249 133 b 334 27 275 60 334 60 b 292 -3 334 7 319 -3 b 200 0 258 -3 220 0 b 111 -3 174 0 143 -3 b 72 26 84 -3 72 9 b 146 129 72 65 140 60 b 150 478 149 160 150 302 b 148 803 150 653 150 785 b 76 917 141 885 76 875 b 117 948 76 938 92 948 "},"O":{"ha":1014,"x_min":0,"x_max":0,"o":"m 48 465 b 499 967 48 762 236 967 b 966 449 749 967 966 778 b 512 -24 966 133 763 -24 b 48 465 226 -24 48 181 m 483 882 b 213 508 345 882 213 753 b 268 244 213 428 225 332 b 535 69 335 110 449 69 b 810 408 683 69 810 176 b 742 704 810 514 785 624 b 483 882 685 813 589 882 "},"P":{"ha":869,"x_min":0,"x_max":0,"o":"m 292 158 b 358 69 292 110 308 87 b 411 28 385 58 411 50 b 358 -3 411 8 394 -3 b 222 0 333 -3 256 0 b 116 -3 183 0 139 -3 b 72 25 83 -3 72 9 b 144 115 72 62 136 56 b 150 482 149 144 150 380 b 148 803 150 554 150 780 b 76 917 142 883 76 875 b 117 948 76 933 83 948 b 249 944 154 948 189 944 b 481 949 322 944 384 949 b 828 669 707 949 828 833 b 468 369 828 506 710 369 b 334 376 399 369 365 376 b 292 332 295 376 292 362 m 674 660 b 437 862 674 793 577 862 b 292 790 313 862 292 855 l 292 517 b 442 455 292 466 336 455 b 674 660 591 455 674 535 "},"Q":{"ha":1014,"x_min":0,"x_max":0,"o":"m 48 465 b 499 967 48 762 236 967 b 966 449 749 967 966 778 b 578 -17 966 162 794 6 b 566 -24 573 -17 566 -19 b 581 -35 566 -26 569 -31 b 797 -115 638 -60 733 -115 b 892 -45 874 -115 872 -45 b 914 -100 903 -45 914 -65 b 771 -249 914 -167 865 -249 b 424 -72 642 -249 498 -72 b 346 -142 365 -72 367 -142 b 318 -97 328 -142 318 -120 b 351 -21 318 -65 333 -39 b 365 -3 358 -12 365 -8 b 336 14 365 1 353 6 b 48 465 156 77 48 244 m 483 882 b 213 508 345 882 213 753 b 268 244 213 428 225 332 b 535 69 335 110 449 69 b 810 408 683 69 810 176 b 742 704 810 514 785 624 b 483 882 685 813 589 882 "},"R":{"ha":945,"x_min":0,"x_max":0,"o":"m 292 150 b 334 71 292 108 308 87 b 383 25 357 56 383 47 b 339 -3 383 8 369 -3 b 222 0 313 -3 256 0 b 116 -3 183 0 139 -3 b 72 25 83 -3 72 9 b 144 115 72 62 136 56 b 150 482 149 144 150 380 b 148 803 150 554 150 780 b 76 917 142 883 76 875 b 117 948 76 933 83 948 b 249 944 154 948 189 944 b 468 949 322 944 372 949 b 812 692 694 949 812 856 b 592 450 812 608 770 508 b 583 440 587 448 583 445 b 594 428 583 437 587 432 b 810 179 695 366 749 278 b 893 75 838 133 856 100 b 941 27 922 55 941 50 b 905 -3 941 5 923 -3 b 795 0 878 -3 826 0 b 692 -3 745 0 709 -3 b 652 25 669 -3 652 10 b 669 83 652 47 669 49 b 481 378 669 176 557 333 b 356 403 438 401 364 403 b 292 356 306 403 292 386 m 656 680 b 424 862 656 801 562 862 b 292 790 300 862 292 855 l 292 545 b 419 494 292 509 313 494 b 656 680 570 494 656 566 "},"S":{"ha":833,"x_min":0,"x_max":0,"o":"m 390 884 b 222 744 298 884 222 831 b 476 556 222 643 337 601 b 790 260 627 505 790 440 b 446 -23 790 83 643 -23 b 192 19 327 -23 242 19 b 127 5 165 19 149 5 b 76 134 94 5 93 30 b 59 258 66 201 59 244 b 87 291 59 274 69 291 b 172 195 115 291 128 247 b 449 70 224 134 317 70 b 638 221 564 70 638 129 b 394 417 638 336 519 375 b 81 701 247 467 81 525 b 385 968 81 861 203 968 b 605 925 497 968 558 925 b 667 938 632 925 645 938 b 724 813 708 938 703 897 b 750 699 743 731 750 713 b 721 665 750 680 740 665 b 653 731 694 665 681 697 b 390 884 562 852 465 884 "},"":{"ha":833,"x_min":0,"x_max":0,"o":"m 390 884 b 653 731 465 884 562 852 b 721 665 681 697 694 665 b 750 699 740 665 750 680 b 724 813 750 713 743 731 b 667 938 703 897 708 938 b 605 925 645 938 632 925 b 385 968 558 925 497 968 b 81 701 203 968 81 861 b 394 417 81 525 247 467 b 638 221 519 375 638 336 b 449 70 638 129 564 70 b 172 195 317 70 224 134 b 87 291 128 247 115 291 b 59 258 69 291 59 274 b 76 134 59 244 66 201 b 127 5 93 30 94 5 b 192 19 149 5 165 19 b 446 -23 242 19 327 -23 b 790 260 643 -23 790 83 b 476 556 790 440 627 505 b 222 744 337 601 222 643 b 390 884 222 831 298 884 "},"T":{"ha":811,"x_min":0,"x_max":0,"o":"m 406 944 b 713 948 576 944 652 948 b 766 893 747 948 763 937 b 788 685 779 758 788 726 b 761 651 788 657 774 651 b 724 683 744 651 732 664 b 543 860 678 824 650 860 b 490 835 515 860 499 853 b 476 563 483 818 476 804 l 476 482 b 483 117 476 335 478 151 b 567 25 492 57 567 65 b 522 -3 567 10 555 -3 b 407 0 497 -3 440 0 b 289 -3 372 0 315 -3 b 244 25 256 -3 244 10 b 329 117 244 65 322 58 b 335 482 333 147 335 381 l 335 563 b 321 835 335 804 329 818 b 268 860 313 853 297 860 b 88 683 161 860 133 824 b 50 651 80 664 68 651 b 23 685 38 651 23 657 b 45 893 23 726 32 758 b 98 948 49 937 65 948 b 406 944 159 948 236 944 "},"U":{"ha":977,"x_min":0,"x_max":0,"o":"m 849 528 b 849 353 849 460 849 405 b 490 -24 849 91 712 -24 b 135 371 294 -24 135 83 b 133 803 135 443 134 780 b 60 917 126 884 60 876 b 101 948 60 933 67 948 b 206 944 127 948 173 944 b 310 948 240 944 285 948 b 351 917 342 948 351 933 b 280 803 351 874 287 886 b 276 392 278 784 276 540 b 515 92 276 164 384 92 b 719 200 621 92 688 138 b 751 504 744 249 751 334 b 740 830 751 603 749 805 b 667 919 728 880 667 885 b 707 948 667 939 680 948 b 799 944 740 948 778 944 b 884 948 824 944 853 948 b 921 917 911 948 921 935 b 853 813 921 877 859 883 b 849 528 850 786 849 638 "},"V":{"ha":872,"x_min":0,"x_max":0,"o":"m 470 192 b 477 185 472 188 474 185 b 492 206 481 185 485 192 b 688 829 532 308 688 790 b 622 918 688 887 622 881 b 663 948 622 933 631 948 b 756 944 683 948 733 944 b 837 947 778 944 815 947 b 872 919 861 947 872 935 b 790 806 872 881 815 882 l 562 144 b 516 33 547 101 527 51 b 432 -19 488 -8 449 -19 b 385 20 407 -19 397 -4 b 356 92 378 32 368 58 l 88 801 b 31 875 76 832 53 859 b 0 914 20 883 0 896 b 58 948 0 940 19 948 b 155 944 84 948 110 944 b 272 948 201 944 243 948 b 315 916 300 948 315 936 b 251 831 315 881 251 880 b 470 192 251 794 435 280 "},"W":{"ha":1337,"x_min":0,"x_max":0,"o":"m 662 602 b 475 34 635 514 499 76 b 394 -19 450 -8 408 -19 b 347 22 371 -19 357 -1 b 319 94 345 25 329 65 l 81 799 b 26 875 70 831 53 856 b 0 914 15 882 0 897 b 56 948 0 939 18 948 b 143 944 79 948 101 944 b 260 948 188 944 233 948 b 301 916 289 948 301 935 b 241 828 301 880 241 878 b 430 209 241 794 411 253 b 437 199 432 204 434 199 b 450 222 443 199 448 215 b 617 808 464 264 617 755 b 562 918 617 877 562 881 b 599 948 562 935 573 948 b 694 944 620 948 672 944 b 792 948 733 944 766 948 b 836 916 818 948 836 940 b 783 826 836 882 783 878 b 972 210 783 787 953 251 b 978 199 975 203 977 199 b 992 223 982 199 986 209 b 1157 828 1013 277 1157 784 b 1097 918 1157 885 1097 879 b 1137 948 1097 935 1108 948 b 1230 944 1156 948 1208 944 b 1304 947 1251 944 1283 947 b 1338 919 1326 947 1338 935 b 1262 803 1338 879 1285 880 l 1060 147 b 1017 34 1048 104 1030 56 b 934 -19 992 -8 948 -19 b 887 22 912 -19 899 -3 b 684 613 866 66 715 523 b 675 627 682 622 678 627 b 662 602 672 627 667 617 "},"X":{"ha":899,"x_min":0,"x_max":0,"o":"m 542 494 b 648 323 542 477 550 458 b 810 113 731 210 787 135 b 893 31 852 69 893 67 b 841 -3 893 4 867 -3 b 717 0 814 -3 765 0 b 604 -3 669 0 634 -3 b 562 28 574 -3 562 8 b 614 102 562 59 614 69 b 441 370 614 134 535 244 b 427 380 438 375 432 380 b 410 366 422 380 415 371 b 238 108 279 191 238 131 b 292 27 238 68 292 59 b 248 -3 292 11 281 -3 b 139 0 225 -3 164 0 b 42 -3 115 0 63 -3 b 6 27 19 -3 6 9 b 117 135 6 65 53 64 b 255 312 141 162 195 230 b 359 471 329 415 359 449 b 311 551 359 483 351 495 b 98 836 285 585 158 769 b 23 913 61 876 23 879 b 77 948 23 940 51 948 b 185 944 104 948 137 944 b 305 948 233 944 274 948 b 347 916 334 948 347 936 b 296 842 347 883 296 876 b 459 583 296 810 381 683 b 472 574 463 578 467 574 b 485 584 477 574 481 579 b 647 838 542 656 647 808 b 597 917 647 876 597 886 b 640 948 597 933 607 948 b 741 944 663 948 717 944 b 834 948 765 944 812 948 b 869 917 857 948 869 935 b 778 825 869 880 823 871 b 625 622 754 799 688 709 b 542 494 565 538 542 506 "},"Y":{"ha":823,"x_min":0,"x_max":0,"o":"m 489 338 b 496 117 489 224 491 151 b 579 25 505 57 579 65 b 535 -3 579 10 567 -3 b 419 0 508 -3 453 0 b 302 -3 385 0 328 -3 b 258 25 269 -3 258 10 b 342 117 258 65 334 58 b 347 344 346 147 347 241 b 219 607 347 399 297 481 b 81 829 179 673 131 756 b 2 914 46 878 2 880 b 56 948 2 942 29 948 b 161 944 83 948 113 944 b 274 948 209 944 243 948 b 316 916 303 948 316 936 b 263 840 316 888 263 874 b 436 517 263 799 393 574 b 449 509 440 513 444 509 b 460 520 452 509 456 514 b 619 836 515 602 619 800 b 565 917 619 881 565 885 b 608 948 565 933 574 948 b 713 944 631 948 688 944 b 787 948 737 944 765 948 b 822 917 809 948 822 935 b 737 819 822 881 785 888 b 615 604 710 783 670 706 b 489 338 552 491 489 392 "},"Z":{"ha":844,"x_min":0,"x_max":0,"o":"m 460 87 b 721 242 644 87 680 116 b 766 301 737 290 750 301 b 792 251 787 301 792 278 b 776 42 792 213 781 127 b 721 -3 774 11 756 -3 b 431 0 678 -3 598 0 b 65 -3 222 0 124 -3 b 35 24 47 -3 35 3 b 90 131 35 46 57 83 l 551 803 b 569 844 561 817 569 835 b 369 862 569 858 539 862 b 115 683 188 862 158 824 b 77 651 107 664 95 651 b 50 685 65 651 50 657 b 72 893 50 726 59 758 b 125 948 76 937 92 948 b 431 944 186 948 260 944 b 709 948 603 944 655 948 b 772 912 754 948 772 942 b 736 831 772 895 761 867 l 277 155 b 252 103 261 130 252 114 b 460 87 252 91 263 87 "},"[":{"ha":469,"x_min":0,"x_max":0,"o":"m 256 -99 b 308 -158 256 -142 274 -149 b 424 -199 349 -167 424 -164 b 388 -226 424 -219 408 -226 b 260 -224 369 -226 294 -224 b 165 -226 227 -224 184 -226 b 123 -185 134 -226 123 -212 b 133 394 123 -146 133 -23 b 123 974 133 811 123 934 b 165 1015 123 999 134 1015 b 260 1012 184 1015 227 1012 b 388 1015 294 1012 369 1015 b 424 987 408 1015 424 1008 b 308 946 424 952 349 956 b 256 888 274 938 256 930 "},"\\":{"ha":467,"x_min":0,"x_max":0,"o":"m 29 917 b 24 938 26 924 24 931 b 67 960 24 951 49 960 b 96 943 88 960 92 953 b 439 23 110 913 432 48 b 442 6 441 18 442 12 b 397 -17 442 -9 417 -17 b 369 1 381 -17 375 -10 b 29 917 361 17 40 883 "},"]":{"ha":469,"x_min":0,"x_max":0,"o":"m 213 888 b 160 946 213 930 194 938 b 45 987 121 956 45 952 b 81 1015 45 1008 60 1015 b 208 1012 99 1015 176 1012 b 303 1015 242 1012 285 1015 b 347 974 335 1015 347 999 b 337 394 347 934 337 811 b 347 -185 337 -23 347 -146 b 303 -226 347 -212 335 -226 b 208 -224 285 -226 242 -224 b 81 -226 176 -224 99 -226 b 45 -199 60 -226 45 -219 b 160 -158 45 -164 121 -167 b 213 -99 194 -149 213 -142 "},"^":{"ha":703,"x_min":0,"x_max":0,"o":"m 351 836 b 335 821 347 836 341 828 b 151 492 291 757 206 603 b 117 467 143 478 135 467 b 50 497 93 467 50 477 b 62 529 50 501 53 511 b 301 941 122 651 235 855 b 365 965 310 954 337 965 b 401 947 382 965 392 957 b 644 529 466 858 585 652 b 653 497 650 515 653 502 b 587 467 653 478 605 467 b 551 492 564 467 559 477 b 367 821 494 609 413 753 b 351 836 362 828 356 836 "},"_":{"ha":625,"x_min":0,"x_max":0,"o":"m -17 -189 b -35 -166 -33 -189 -35 -177 b -27 -120 -35 -158 -33 -134 b 17 -99 -22 -106 -14 -99 l 645 -99 b 663 -122 661 -99 663 -110 b 653 -168 663 -136 659 -156 b 609 -189 647 -183 638 -189 "},"`":{"ha":383,"x_min":0,"x_max":0,"o":"m 278 835 b 293 801 290 813 293 806 b 269 781 293 788 284 781 b 125 896 240 781 168 836 b 90 980 98 933 90 957 b 147 1038 90 1010 109 1038 b 222 959 194 1038 209 995 b 278 835 233 923 258 872 "},"a":{"ha":744,"x_min":0,"x_max":0,"o":"m 256 369 b 485 406 349 393 469 395 b 497 460 490 410 497 419 b 347 646 497 562 455 646 b 212 520 261 646 225 581 b 162 472 205 489 194 472 b 90 549 131 472 90 494 b 350 711 90 626 187 711 b 633 432 535 711 633 599 b 625 157 633 340 625 214 b 666 95 625 125 636 95 b 702 102 685 95 691 102 b 713 81 706 102 713 97 b 606 -10 713 33 666 -10 b 494 67 552 -10 513 12 b 483 78 492 74 488 78 b 467 64 478 78 472 69 b 259 -17 420 17 344 -17 b 50 156 142 -17 50 46 b 256 369 50 264 131 336 m 497 277 b 483 329 497 315 493 329 b 308 310 410 329 355 324 b 190 178 222 284 190 229 b 309 74 190 110 242 74 b 497 277 415 74 497 151 "},"b":{"ha":790,"x_min":0,"x_max":0,"o":"m 107 848 b 60 901 107 878 88 892 b 32 930 47 907 32 915 b 97 976 32 953 53 959 b 210 1021 160 999 185 1021 b 246 981 234 1021 246 1008 b 238 769 246 945 238 893 l 238 624 b 247 587 238 597 241 587 b 479 711 263 587 325 711 b 750 366 640 711 750 581 b 435 -14 750 120 613 -14 b 227 75 315 -14 254 75 b 180 48 210 75 196 71 b 120 -19 157 15 142 -19 b 97 10 106 -19 97 -9 b 107 207 97 41 107 65 m 429 617 b 238 347 335 617 238 534 b 424 67 238 143 325 67 b 608 344 525 67 608 158 b 429 617 608 528 531 617 "},"":{"ha":790,"x_min":0,"x_max":0,"o":"m 107 207 b 97 10 107 65 97 41 b 120 -19 97 -9 106 -19 b 180 48 142 -19 157 15 b 227 75 196 71 210 75 b 435 -14 254 75 315 -14 b 750 366 613 -14 750 120 b 479 711 750 581 640 711 b 247 587 325 711 263 587 b 238 624 241 587 238 597 l 238 769 b 246 981 238 893 246 945 b 210 1021 246 1008 234 1021 b 97 976 185 1021 160 999 b 32 930 53 959 32 953 b 60 901 32 915 47 907 b 107 848 88 892 107 878 m 429 617 b 608 344 531 617 608 528 b 424 67 608 158 525 67 b 238 347 325 67 238 143 b 429 617 238 534 335 617 "},"c":{"ha":694,"x_min":0,"x_max":0,"o":"m 38 334 b 385 711 38 535 170 711 b 627 533 528 711 627 627 b 534 440 627 470 577 440 b 497 500 503 440 507 459 b 356 637 480 578 434 637 b 172 386 254 637 172 535 b 413 104 172 227 260 104 b 622 241 545 104 598 194 b 645 261 628 250 636 261 b 662 226 658 261 662 246 b 370 -15 662 133 561 -15 b 38 334 176 -15 38 129 "},"d":{"ha":806,"x_min":0,"x_max":0,"o":"m 666 -10 b 553 67 614 -10 576 10 b 539 83 549 76 545 83 b 509 57 533 83 526 72 b 321 -14 478 28 418 -14 b 40 331 178 -14 40 98 b 342 711 40 584 181 711 b 540 614 476 711 528 614 b 551 662 547 614 551 622 l 551 846 b 503 901 551 876 531 892 b 473 930 489 907 473 916 b 539 976 473 956 501 961 b 653 1021 602 1001 630 1021 b 689 981 677 1021 689 1008 b 683 765 689 937 683 910 l 683 157 b 725 95 683 125 695 95 b 761 102 744 95 751 102 b 773 81 765 102 773 97 b 666 -10 773 33 725 -10 m 371 83 b 553 351 474 83 553 160 b 368 629 553 562 454 629 b 182 356 267 629 182 540 b 371 83 182 190 250 83 "},"e":{"ha":699,"x_min":0,"x_max":0,"o":"m 606 381 b 206 306 522 327 321 310 b 188 294 192 306 188 303 b 403 94 188 228 247 94 b 622 222 517 94 585 151 b 646 243 628 233 638 243 b 662 210 656 243 662 233 b 369 -15 662 132 568 -15 b 38 333 171 -15 38 130 b 385 711 38 536 177 711 b 651 459 548 711 651 598 b 606 381 651 420 633 397 m 521 478 b 374 635 521 568 457 635 b 177 406 261 635 177 524 b 197 378 177 389 183 378 b 493 431 258 378 429 394 b 521 478 512 442 521 456 "},"f":{"ha":501,"x_min":0,"x_max":0,"o":"m 257 147 b 308 68 257 105 272 88 b 366 26 329 57 366 51 b 322 -3 366 10 356 -3 b 192 0 288 -3 243 0 b 89 -3 158 0 127 -3 b 48 25 57 -3 48 10 b 85 66 48 48 71 56 b 124 150 118 90 124 115 l 124 569 b 99 600 124 588 117 598 b 21 628 44 606 21 605 b 53 676 21 648 42 671 b 118 699 72 683 104 677 b 145 841 128 717 128 786 b 363 1022 176 941 253 1022 b 503 924 448 1022 503 974 b 437 827 503 876 479 827 b 396 872 412 827 408 851 b 312 931 376 905 353 931 b 225 804 257 931 225 880 b 298 682 225 714 246 682 b 447 688 323 682 428 688 b 481 656 469 688 481 678 b 460 597 481 638 473 611 b 438 589 454 592 446 589 b 267 597 422 589 290 597 b 257 579 263 597 257 594 "},"g":{"ha":775,"x_min":0,"x_max":0,"o":"m 353 710 b 579 681 443 710 525 681 b 732 710 698 681 704 710 b 753 674 746 710 753 695 b 738 614 753 654 747 628 b 694 585 730 601 717 585 b 594 599 647 585 609 599 b 588 592 589 599 588 596 b 633 465 588 581 633 542 b 350 224 633 313 510 224 b 264 229 324 224 290 229 b 169 156 220 229 169 204 b 273 88 169 115 208 88 b 501 104 324 88 423 104 b 717 -65 624 104 717 62 b 301 -312 717 -213 524 -312 b 15 -148 108 -312 15 -249 b 128 -8 15 -83 69 -31 b 139 1 136 -5 139 -2 b 130 10 139 4 135 7 b 57 126 109 20 57 58 b 163 259 57 175 94 231 b 174 268 168 262 174 265 b 165 280 174 272 171 276 b 73 464 124 312 73 371 b 353 710 73 626 203 710 m 209 476 b 359 304 209 362 279 304 b 505 456 440 304 505 355 b 353 635 505 525 470 635 b 209 476 271 635 209 572 m 564 -102 b 441 -16 564 -43 513 -16 b 247 -33 375 -16 281 -25 b 131 -137 177 -50 131 -90 b 315 -232 131 -206 213 -232 b 564 -102 458 -232 564 -176 "},"h":{"ha":837,"x_min":0,"x_max":0,"o":"m 123 849 b 76 901 123 878 103 892 b 48 930 62 907 48 916 b 114 976 48 956 76 961 b 226 1021 176 1001 203 1021 b 262 981 250 1021 262 1008 b 251 610 262 951 251 831 b 261 583 251 588 256 583 b 507 711 274 583 356 711 b 736 429 648 711 736 619 b 716 129 736 290 716 173 b 749 67 716 106 727 81 b 795 26 774 53 795 49 b 749 -3 795 8 783 -3 b 667 0 722 -3 706 0 b 583 -3 629 0 610 -3 b 551 25 558 -3 551 10 b 566 76 551 42 562 65 b 597 397 578 117 597 249 b 440 613 597 542 537 613 b 256 456 349 613 256 522 l 256 144 b 288 68 256 101 267 83 b 329 26 308 53 329 49 b 285 -3 329 10 320 -3 b 192 0 251 -3 230 0 b 88 -3 153 0 144 -3 b 47 25 56 -3 47 10 b 83 66 47 48 70 56 b 123 150 117 90 123 115 "},"i":{"ha":377,"x_min":0,"x_max":0,"o":"m 90 867 b 209 989 90 928 148 989 b 287 916 253 989 287 960 b 158 804 287 853 222 804 b 90 867 112 804 90 831 m 263 671 b 256 457 263 640 256 587 l 256 144 b 290 68 256 101 269 83 b 331 26 310 53 331 49 b 288 -3 331 10 322 -3 b 192 0 253 -3 230 0 b 88 -3 153 0 144 -3 b 47 25 56 -3 47 10 b 83 66 47 48 70 56 b 123 150 117 90 123 115 l 123 529 b 76 589 123 562 105 579 b 47 620 63 596 47 605 b 114 665 47 648 76 651 b 227 711 176 691 206 711 b 263 671 251 711 263 699 "},"j":{"ha":335,"x_min":0,"x_max":0,"o":"m 75 867 b 195 989 75 928 134 989 b 273 916 238 989 273 960 b 143 804 273 853 208 804 b 75 867 98 804 75 831 m 242 186 b 247 -15 242 112 247 10 b 2 -296 247 -212 94 -296 b -44 -269 -26 -296 -44 -283 b -13 -240 -44 -256 -29 -251 b 109 11 20 -214 109 -158 l 109 529 b 63 589 109 563 90 580 b 33 620 48 596 33 606 b 100 665 33 648 63 651 b 213 711 163 691 192 711 b 249 671 238 711 249 699 b 242 457 249 643 242 600 "},"k":{"ha":781,"x_min":0,"x_max":0,"o":"m 253 210 b 294 66 253 112 262 90 b 337 26 311 53 337 49 b 292 -3 337 10 327 -3 b 192 0 266 -3 224 0 b 88 -3 155 0 127 -3 b 47 25 56 -3 47 10 b 83 66 47 48 70 56 b 123 150 117 90 123 115 l 123 849 b 76 901 123 878 103 892 b 48 930 62 907 48 916 b 114 976 48 956 76 961 b 226 1021 176 1001 203 1021 b 262 981 250 1021 262 1008 b 254 482 262 937 254 878 b 265 383 254 387 259 383 b 497 601 291 383 497 561 b 453 669 497 626 453 643 b 488 699 453 692 472 699 b 580 696 519 699 547 696 b 687 700 612 696 663 700 b 726 671 708 700 726 693 b 651 606 726 644 685 631 b 403 398 605 574 503 474 b 396 388 397 393 396 392 b 403 381 396 385 399 382 b 744 69 603 306 653 124 b 780 27 749 66 780 51 b 752 -3 780 18 776 -3 b 645 -1 729 -3 677 -1 b 529 -4 610 -1 549 -4 b 491 26 507 -4 491 7 b 522 85 491 48 522 58 b 440 216 522 113 491 165 b 295 299 376 280 315 299 b 253 210 259 299 253 271 "},"l":{"ha":378,"x_min":0,"x_max":0,"o":"m 262 981 b 256 765 262 937 256 910 l 256 144 b 290 68 256 101 269 83 b 331 26 310 53 331 49 b 288 -3 331 10 322 -3 b 192 0 261 -3 224 0 b 88 -3 155 0 127 -3 b 47 25 56 -3 47 10 b 83 66 47 48 70 56 b 123 150 117 90 123 115 l 123 849 b 76 901 123 878 103 892 b 48 930 62 907 48 916 b 114 976 48 956 76 961 b 226 1021 176 1001 203 1021 b 262 981 250 1021 262 1008 "},"m":{"ha":1240,"x_min":0,"x_max":0,"o":"m 684 582 b 926 711 699 582 777 711 b 1141 429 1059 711 1141 619 b 1122 129 1141 290 1122 173 b 1153 67 1122 106 1133 81 b 1198 26 1178 52 1198 49 b 1152 -3 1198 8 1186 -3 b 1073 0 1126 -3 1108 0 b 992 -3 1035 0 1019 -3 b 960 25 968 -3 960 10 b 974 76 960 42 971 65 b 1005 397 988 117 1005 249 b 858 613 1005 542 947 613 b 694 440 784 613 694 544 b 685 129 694 301 685 173 b 712 67 685 106 692 81 b 756 26 735 52 756 49 b 710 -3 756 8 744 -3 b 635 0 683 -3 669 0 b 553 -3 597 0 580 -3 b 522 25 530 -3 522 10 b 536 76 522 42 532 65 b 561 397 549 117 561 249 b 418 613 561 542 507 613 b 250 456 337 613 250 522 l 250 144 b 279 68 250 101 260 83 b 318 26 298 53 318 49 b 276 -3 318 10 309 -3 b 187 0 242 -3 219 0 b 85 -3 151 0 124 -3 b 46 25 55 -3 46 10 b 81 66 46 48 68 56 b 119 150 113 90 119 115 l 119 540 b 74 591 119 571 99 583 b 48 620 61 597 48 605 b 116 667 48 647 78 652 b 206 703 165 688 185 703 b 240 670 224 703 235 695 b 260 591 247 633 249 591 b 485 711 272 591 356 711 b 654 617 552 711 614 684 b 684 582 669 595 676 582 "},"n":{"ha":836,"x_min":0,"x_max":0,"o":"m 735 429 b 715 129 735 290 715 173 b 748 67 715 106 726 81 b 794 26 773 53 794 49 b 748 -3 794 8 783 -3 b 666 0 721 -3 704 0 b 582 -3 628 0 608 -3 b 549 25 557 -3 549 10 b 565 76 549 42 561 65 b 597 397 578 117 597 249 b 439 613 597 542 535 613 b 255 456 348 613 255 522 l 255 144 b 287 68 255 101 266 83 b 328 26 306 53 328 49 b 284 -3 328 10 319 -3 b 190 0 249 -3 224 0 b 87 -3 155 0 127 -3 b 46 25 55 -3 46 10 b 83 66 46 48 69 56 b 122 150 116 90 122 115 l 122 540 b 74 592 122 571 102 583 b 48 620 60 597 48 606 b 115 667 48 647 78 652 b 210 703 163 688 188 703 b 244 670 227 703 238 695 b 265 591 251 633 253 591 b 506 711 278 591 367 711 b 735 429 647 711 735 619 "},"o":{"ha":767,"x_min":0,"x_max":0,"o":"m 38 344 b 376 711 38 560 180 711 b 730 331 563 711 730 572 b 386 -14 730 101 574 -14 b 38 344 173 -14 38 136 m 363 635 b 182 386 264 635 182 550 b 222 191 182 329 191 253 b 406 71 268 102 342 71 b 590 299 503 71 590 140 b 541 513 590 374 572 455 b 363 635 496 595 430 635 "},"p":{"ha":791,"x_min":0,"x_max":0,"o":"m 750 366 b 440 -14 750 147 631 -14 b 252 72 315 -14 265 72 b 240 31 243 72 240 60 l 240 -136 b 299 -211 240 -186 276 -199 b 344 -253 321 -222 344 -231 b 300 -283 344 -270 335 -283 b 186 -280 274 -283 224 -280 b 72 -283 147 -280 112 -283 b 31 -255 40 -283 31 -269 b 68 -214 31 -232 54 -223 b 108 -129 101 -189 108 -165 l 108 540 b 60 592 108 572 88 583 b 33 620 46 597 33 606 b 101 667 33 647 63 652 b 195 703 149 688 174 703 b 229 670 213 703 224 695 b 251 591 236 633 239 591 b 479 711 265 591 328 711 b 750 366 647 711 750 576 m 430 617 b 238 347 335 617 238 534 b 424 69 238 143 325 69 b 608 344 526 69 608 158 b 430 617 608 528 532 617 "},"q":{"ha":778,"x_min":0,"x_max":0,"o":"m 683 -129 b 723 -214 683 -169 694 -192 b 759 -255 735 -222 759 -233 b 719 -283 759 -272 749 -283 b 599 -280 678 -283 640 -280 b 491 -283 558 -280 522 -283 b 447 -253 460 -283 447 -273 b 492 -211 447 -227 477 -220 b 553 -114 515 -199 553 -181 l 553 64 b 542 93 553 89 548 93 b 321 -14 528 93 478 -14 b 40 331 163 -14 40 115 b 353 711 40 577 181 711 b 574 617 478 711 555 617 b 610 644 588 617 596 622 b 668 708 632 677 648 708 b 690 681 683 708 690 699 b 683 475 690 649 683 617 m 371 83 b 553 351 486 83 553 175 b 369 629 553 570 453 629 b 182 356 271 629 182 542 b 371 83 182 175 260 83 "},"r":{"ha":620,"x_min":0,"x_max":0,"o":"m 404 601 b 255 431 329 601 255 504 l 255 147 b 308 67 255 105 271 87 b 365 26 328 56 365 51 b 321 -3 365 10 356 -3 b 190 0 287 -3 241 0 b 87 -3 151 0 144 -3 b 46 25 55 -3 46 10 b 83 66 46 48 69 56 b 122 150 116 90 122 115 l 122 540 b 74 592 122 571 102 583 b 48 620 60 597 48 606 b 115 667 48 647 78 652 b 210 703 163 688 188 703 b 244 670 227 703 238 695 b 265 591 251 633 253 591 b 480 711 278 591 356 711 b 599 588 538 711 599 676 b 506 472 599 527 559 472 b 468 533 472 472 476 494 b 404 601 460 574 439 601 "},"s":{"ha":656,"x_min":0,"x_max":0,"o":"m 333 712 b 539 650 399 712 494 696 b 572 538 563 624 572 592 b 543 485 572 502 562 485 b 489 538 521 485 508 510 b 313 641 458 581 406 641 b 194 544 238 641 194 599 b 367 417 194 472 264 449 b 606 197 492 379 606 339 b 333 -18 606 58 483 -18 b 78 81 247 -18 124 10 b 52 183 60 106 52 142 b 83 240 52 223 63 240 b 122 201 97 240 108 224 b 347 63 157 144 222 63 b 469 167 424 63 469 103 b 283 304 469 247 393 267 b 73 507 183 338 73 376 b 333 712 73 640 199 712 "},"":{"ha":656,"x_min":0,"x_max":0,"o":"m 333 712 b 73 507 199 712 73 640 b 283 304 73 376 183 338 b 469 167 393 267 469 247 b 347 63 469 103 424 63 b 122 201 222 63 157 144 b 83 240 108 224 97 240 b 52 183 63 240 52 223 b 78 81 52 142 60 106 b 333 -18 124 10 247 -18 b 606 197 483 -18 606 58 b 367 417 606 339 492 379 b 194 544 264 449 194 472 b 313 641 194 599 238 641 b 489 538 406 641 458 581 b 543 485 508 510 521 485 b 572 538 562 485 572 502 b 539 650 572 592 563 624 b 333 712 494 696 399 712 "},"t":{"ha":531,"x_min":0,"x_max":0,"o":"m 254 589 b 248 263 253 567 248 333 b 355 93 248 186 260 93 b 465 150 405 93 444 126 b 492 171 477 163 483 171 b 509 147 499 171 509 166 b 494 100 509 135 505 117 b 294 -14 469 55 410 -14 b 113 233 181 -14 113 62 b 122 565 113 297 122 506 b 98 601 122 589 116 599 b 8 635 39 608 8 609 b 38 676 8 653 16 667 b 142 742 74 690 114 709 b 231 885 192 802 193 885 b 260 838 249 885 260 867 b 253 690 260 813 253 694 b 259 685 253 686 253 685 b 447 692 269 685 433 692 b 485 657 469 692 485 685 b 463 599 485 635 474 609 b 443 592 460 596 452 592 b 264 599 430 592 280 599 b 254 589 260 599 255 598 "},"u":{"ha":836,"x_min":0,"x_max":0,"o":"m 707 157 b 749 95 707 125 719 95 b 785 102 768 95 774 102 b 797 81 789 102 797 97 b 689 -10 797 33 749 -10 b 574 70 613 -10 588 38 b 562 83 572 75 569 83 b 543 67 558 83 550 74 b 339 -14 520 47 460 -14 b 105 256 171 -14 105 110 b 118 528 105 365 118 492 b 94 597 118 567 109 581 b 41 647 76 613 41 619 b 88 682 41 668 57 678 b 241 706 182 693 213 706 b 277 669 268 706 277 688 b 243 299 277 618 243 526 b 397 80 243 184 276 80 b 574 291 501 80 574 149 l 574 516 b 533 603 574 559 566 584 b 496 647 517 615 496 624 b 537 681 496 667 510 677 b 690 706 610 688 665 706 b 723 670 711 706 723 692 b 707 479 723 633 707 600 "},"v":{"ha":726,"x_min":0,"x_max":0,"o":"m 633 544 b 490 158 590 438 500 183 b 424 26 469 107 451 58 b 345 -8 408 8 370 -8 b 289 49 311 -8 304 13 b 122 464 281 69 156 381 b 32 623 94 532 67 598 b 1 668 16 635 1 647 b 36 699 1 687 13 699 b 125 696 66 699 94 696 b 231 699 154 696 200 699 b 272 666 255 699 272 695 b 229 590 272 643 229 630 b 300 371 229 564 241 525 b 393 152 352 234 384 152 b 487 388 404 152 438 236 b 538 583 532 523 538 560 b 485 669 538 634 485 638 b 516 699 485 688 499 699 b 606 696 539 699 585 696 b 684 699 630 696 667 699 b 715 672 709 699 715 687 b 633 544 715 632 673 641 "},"w":{"ha":1116,"x_min":0,"x_max":0,"o":"m 575 394 b 562 416 572 405 568 416 b 548 393 558 416 553 410 b 405 26 478 174 432 56 b 326 -8 388 9 354 -8 b 270 49 296 -8 285 12 b 118 464 263 69 148 384 b 31 623 92 531 64 599 b 1 668 15 635 1 647 b 35 699 1 687 13 699 b 122 696 65 699 92 696 b 227 699 151 696 197 699 b 269 667 251 699 269 694 b 227 590 269 643 227 630 b 288 371 227 564 234 525 b 374 157 335 234 365 157 b 454 383 382 157 410 226 b 514 650 491 513 503 616 b 585 690 522 676 558 690 b 636 647 618 690 628 675 b 714 372 644 617 663 526 b 800 158 760 235 791 158 b 885 388 811 158 840 235 b 931 583 928 522 931 560 b 880 669 931 634 880 638 b 910 699 880 688 893 699 b 1001 696 932 699 979 696 b 1074 699 1024 696 1059 699 b 1104 672 1098 699 1104 687 b 1026 544 1104 632 1064 641 b 894 158 985 438 938 281 b 832 26 875 106 854 51 b 752 -8 815 8 780 -8 b 698 47 727 -8 713 14 b 575 394 688 68 610 274 "},"":{"ha":1116,"x_min":0,"x_max":0,"o":"m 575 394 b 698 47 610 274 688 68 b 752 -8 713 14 727 -8 b 832 26 780 -8 815 8 b 894 158 854 51 875 106 b 1026 544 938 281 985 438 b 1104 672 1064 641 1104 632 b 1074 699 1104 687 1098 699 b 1001 696 1059 699 1024 696 b 910 699 979 696 932 699 b 880 669 893 699 880 688 b 931 583 880 638 931 634 b 885 388 931 560 928 522 b 800 158 840 235 811 158 b 714 372 791 158 760 235 b 636 647 663 526 644 617 b 585 690 628 675 618 690 b 514 650 558 690 522 676 b 454 383 503 616 491 513 b 374 157 410 226 382 157 b 288 371 365 157 335 234 b 227 590 234 525 227 564 b 269 667 227 630 269 643 b 227 699 269 694 251 699 b 122 696 197 699 151 696 b 35 699 92 696 65 699 b 1 668 13 699 1 687 b 31 623 1 647 15 635 b 118 464 64 599 92 531 b 270 49 148 384 263 69 b 326 -8 285 12 296 -8 b 405 26 354 -8 388 9 b 548 393 432 56 478 174 b 562 416 553 410 558 416 b 575 394 568 416 572 405 "},"x":{"ha":741,"x_min":0,"x_max":0,"o":"m 344 276 b 211 92 339 276 211 116 b 257 28 211 60 257 60 b 222 -2 257 7 238 -2 b 107 0 205 -2 133 0 b 34 -2 78 0 42 -2 b 2 24 12 -2 2 6 b 67 85 2 48 27 55 b 295 333 119 125 243 272 b 299 342 298 336 299 340 b 295 352 299 345 298 348 b 98 596 257 402 118 574 b 19 670 60 636 19 633 b 55 698 19 688 33 698 b 144 695 83 698 118 695 b 276 698 171 695 253 698 b 311 665 296 698 311 692 b 268 612 311 640 268 633 b 386 428 268 592 379 428 b 508 608 391 428 508 581 b 461 670 508 635 461 641 b 497 699 461 691 478 699 b 574 696 513 699 549 696 b 663 698 603 696 652 698 b 698 668 685 698 698 690 b 635 609 698 644 670 636 b 441 383 599 582 482 431 b 436 372 438 378 436 375 b 440 363 436 369 438 365 b 650 101 501 292 628 120 b 727 26 693 61 727 60 b 690 -3 727 10 713 -3 b 586 0 663 -3 613 0 b 467 -3 560 0 490 -3 b 428 28 447 -3 428 2 b 473 91 428 56 473 63 b 344 276 473 113 352 276 "},"y":{"ha":733,"x_min":0,"x_max":0,"o":"m 640 544 b 465 99 595 438 533 253 b 160 -296 360 -144 292 -296 b 49 -194 97 -296 49 -254 b 128 -97 49 -140 86 -97 b 167 -127 148 -97 160 -110 b 213 -175 178 -153 191 -175 b 315 -28 247 -175 315 -80 b 135 434 315 19 168 357 b 33 623 108 500 72 596 b 1 668 17 635 1 647 b 36 699 1 687 13 699 b 126 696 67 699 94 696 b 232 699 156 696 200 699 b 273 666 256 699 273 695 b 230 590 273 643 230 630 b 303 371 230 564 242 525 b 397 152 356 234 388 152 b 491 386 408 152 440 234 b 543 583 538 522 543 560 b 491 669 543 634 491 638 b 522 699 491 688 503 699 b 612 696 544 699 591 696 b 690 699 636 696 674 699 b 722 672 716 699 722 687 b 640 544 722 632 680 641 "},"":{"ha":733,"x_min":0,"x_max":0,"o":"m 640 544 b 722 672 680 641 722 632 b 690 699 722 687 716 699 b 612 696 674 699 636 696 b 522 699 591 696 544 699 b 491 669 503 699 491 688 b 543 583 491 638 543 634 b 491 386 543 560 538 522 b 397 152 440 234 408 152 b 303 371 388 152 356 234 b 230 590 242 525 230 564 b 273 666 230 630 273 643 b 232 699 273 695 256 699 b 126 696 200 699 156 696 b 36 699 94 696 67 699 b 1 668 13 699 1 687 b 33 623 1 647 17 635 b 135 434 72 596 108 500 b 315 -28 168 357 315 19 b 213 -175 315 -80 247 -175 b 167 -127 191 -175 178 -153 b 128 -97 160 -110 148 -97 b 49 -194 86 -97 49 -140 b 160 -296 49 -254 97 -296 b 465 99 292 -296 360 -144 b 640 544 533 253 595 438 "},"z":{"ha":631,"x_min":0,"x_max":0,"o":"m 405 531 b 427 568 420 549 427 564 b 313 583 427 578 423 583 b 115 555 224 583 156 574 b 58 529 86 541 78 529 b 36 558 38 529 36 547 b 52 633 36 571 42 590 b 100 707 60 666 62 707 b 351 695 132 707 167 695 b 562 702 475 695 528 702 b 590 676 578 702 590 697 b 569 632 590 670 584 651 l 215 167 b 192 128 203 153 192 135 b 319 119 192 119 198 119 b 506 151 396 119 465 131 b 567 179 541 168 551 179 b 588 148 586 179 588 162 b 567 33 588 125 577 90 b 525 -11 565 12 556 -11 b 252 0 478 -11 459 0 b 48 -4 102 0 89 -4 b 17 21 33 -4 17 0 b 40 67 17 33 26 49 "},"{":{"ha":469,"x_min":0,"x_max":0,"o":"m 214 394 b 302 251 214 380 302 381 b 251 -54 302 154 251 28 b 340 -160 251 -105 271 -143 b 424 -200 382 -172 424 -169 b 359 -226 424 -219 403 -226 b 119 -62 178 -226 119 -148 b 190 277 119 34 190 187 b 110 394 190 377 110 355 b 190 510 110 433 190 411 b 119 851 190 601 119 754 b 359 1015 119 936 178 1015 b 424 988 403 1015 424 1008 b 340 949 424 958 382 960 b 251 842 271 931 251 893 b 302 536 251 760 302 634 b 214 394 302 407 214 408 "},"|":{"ha":401,"x_min":0,"x_max":0,"o":"m 251 -258 b 206 -283 251 -274 238 -283 b 150 -255 168 -283 150 -276 l 150 997 b 196 1022 150 1013 163 1022 b 251 994 233 1022 251 1015 "},"}":{"ha":469,"x_min":0,"x_max":0,"o":"m 255 394 b 167 536 255 408 167 407 b 219 842 167 634 219 760 b 129 949 219 893 199 931 b 45 988 87 960 45 958 b 110 1015 45 1008 66 1015 b 349 851 290 1015 349 936 b 280 510 349 754 280 601 b 360 394 280 411 360 433 b 280 277 360 355 280 377 b 349 -62 280 187 349 34 b 110 -226 349 -148 290 -226 b 45 -200 66 -226 45 -219 b 129 -160 45 -169 87 -172 b 219 -54 199 -143 219 -105 b 167 251 219 28 167 154 b 255 394 167 381 255 380 "},"~":{"ha":747,"x_min":0,"x_max":0,"o":"m 75 376 b 235 540 75 456 138 540 b 528 435 340 540 439 435 b 643 540 630 435 614 540 b 672 478 658 540 672 509 b 515 327 672 399 615 327 b 223 434 406 327 309 434 b 99 329 130 434 128 329 b 75 376 90 329 75 343 "}," ":{"ha":347,"x_min":0,"x_max":0,"o":""},"¡":{"ha":341,"x_min":0,"x_max":0,"o":"m 261 625 b 165 532 261 567 215 532 b 80 615 120 532 80 559 b 175 711 80 674 128 711 b 261 625 219 711 261 681 m 89 -151 b 144 388 89 -51 133 304 b 172 424 147 412 157 424 b 201 391 187 424 194 411 b 247 -153 218 330 247 -41 b 165 -265 247 -230 222 -265 b 89 -151 113 -265 89 -229 "},"¢":{"ha":806,"x_min":0,"x_max":0,"o":"m 465 1024 b 462 840 465 1014 464 941 b 690 649 597 828 690 741 b 612 557 690 584 635 557 b 578 618 580 557 588 576 b 460 763 562 689 526 743 b 450 233 458 602 453 400 b 674 370 588 236 650 324 b 697 390 679 379 688 390 b 714 356 710 390 714 375 b 447 117 714 268 618 132 b 444 -72 445 6 444 -72 b 388 -115 442 -95 417 -115 b 366 -82 369 -115 366 -106 b 369 118 366 -74 367 6 b 79 464 199 139 79 275 b 383 838 79 649 197 813 b 390 1022 386 940 388 1012 b 445 1062 392 1040 415 1062 b 465 1024 464 1062 465 1042 m 197 507 b 371 242 197 372 266 272 l 382 769 b 197 507 281 756 197 654 "},"£":{"ha":806,"x_min":0,"x_max":0,"o":"m 41 377 b 164 438 41 409 97 425 b 185 456 182 442 185 446 b 107 678 185 472 107 569 b 424 965 107 859 268 965 b 672 874 507 965 613 938 b 709 744 693 850 709 797 b 681 676 709 696 701 676 b 619 752 655 676 643 714 b 409 887 581 813 525 887 b 238 720 303 887 238 803 b 331 503 238 647 278 573 b 367 476 347 482 353 476 b 578 512 385 476 547 512 b 602 488 597 512 602 499 b 558 411 602 465 588 426 b 393 391 540 401 471 401 b 374 374 381 390 374 383 b 326 213 371 333 363 263 b 298 174 310 188 298 181 b 313 166 298 169 306 166 b 569 115 380 162 510 115 b 709 250 657 115 692 180 b 738 297 715 274 722 297 b 761 251 756 297 761 274 b 558 -12 761 106 703 -12 b 235 72 463 -12 306 72 b 83 -7 165 72 138 -7 b 50 25 60 -7 50 11 b 258 299 50 97 258 131 b 199 366 258 347 238 366 b 67 353 173 366 92 353 b 41 377 49 353 41 364 "},"¤":{"ha":806,"x_min":0,"x_max":0,"o":"m 139 443 b 191 598 139 502 158 554 l 92 690 b 80 713 83 697 80 706 b 131 768 80 731 113 768 b 152 758 138 768 145 766 l 247 653 b 401 704 290 685 342 704 b 557 653 459 704 513 685 l 653 758 b 673 768 660 765 667 768 b 725 712 692 768 725 731 b 713 690 725 705 720 697 l 612 597 b 663 443 645 554 663 501 b 610 287 663 384 644 331 l 717 192 b 726 172 724 184 726 178 b 672 119 726 153 690 119 b 648 131 665 119 655 123 l 556 232 b 401 181 513 199 459 181 b 246 232 342 181 290 199 l 151 128 b 130 118 144 121 137 118 b 78 174 112 118 78 156 b 90 197 78 181 83 190 l 191 288 b 139 443 158 331 139 384 m 229 443 b 401 265 229 348 301 265 b 574 443 501 265 574 348 b 401 621 574 538 501 621 b 229 443 301 621 229 538 "},"¥":{"ha":835,"x_min":0,"x_max":0,"o":"m 512 356 b 492 306 493 356 492 331 b 511 260 492 283 493 260 l 736 260 b 756 238 752 260 756 249 b 693 173 756 203 735 173 l 503 173 b 538 71 504 98 519 85 b 590 25 561 54 590 49 b 545 -3 590 10 577 -3 b 428 0 519 -3 463 0 b 310 -3 394 0 336 -3 b 266 25 278 -3 266 10 b 317 71 266 50 296 55 b 353 173 336 85 351 97 l 128 173 b 108 197 111 173 108 185 b 169 260 108 227 124 260 l 343 260 b 362 307 360 260 362 284 b 342 356 362 333 360 356 l 128 356 b 108 381 111 356 108 368 b 169 443 108 410 127 443 l 325 443 b 92 831 291 512 167 717 b 19 914 63 876 19 881 b 73 948 19 939 43 948 b 167 944 94 948 131 944 b 280 948 222 944 251 948 b 322 916 309 948 322 936 b 271 840 322 888 271 874 b 452 503 271 802 428 503 b 622 836 476 503 622 801 b 568 917 622 881 568 885 b 611 948 568 933 578 948 b 697 944 630 948 670 944 b 778 948 726 944 754 948 b 813 922 799 948 813 938 b 808 904 813 916 811 910 b 743 834 799 885 773 878 b 521 443 717 801 587 569 l 736 443 b 756 421 752 443 756 432 b 693 356 756 387 735 356 "},"¦":{"ha":401,"x_min":0,"x_max":0,"o":"m 251 488 b 206 464 251 472 238 464 b 150 492 168 464 150 470 l 150 997 b 196 1022 150 1013 163 1022 b 251 994 233 1022 251 1015 m 251 -258 b 206 -283 251 -274 238 -283 b 150 -255 168 -283 150 -276 l 150 251 b 196 276 150 267 163 276 b 251 247 233 276 251 269 "},"§":{"ha":806,"x_min":0,"x_max":0,"o":"m 708 345 b 606 178 708 220 606 192 b 722 -27 606 161 722 117 b 430 -283 722 -190 590 -283 b 74 -26 206 -283 74 -104 b 92 5 74 -8 80 5 b 135 -45 108 5 117 -18 b 415 -197 179 -110 280 -197 b 594 -58 529 -197 594 -139 b 115 364 594 166 115 84 b 215 534 115 480 215 521 b 117 722 215 547 117 593 b 414 965 117 880 263 965 b 651 877 497 965 602 939 b 689 749 674 849 689 813 b 663 683 689 703 681 683 b 603 758 638 683 624 724 b 395 893 566 818 506 893 b 226 751 295 893 226 833 b 708 345 226 547 708 627 m 608 307 b 306 487 608 424 387 487 b 210 402 253 487 210 458 b 513 231 210 278 440 231 b 608 307 564 231 608 255 "},"¨":{"ha":469,"x_min":0,"x_max":0,"o":"m 122 985 b 200 910 167 985 200 956 b 99 812 200 854 155 812 b 25 885 54 812 25 842 b 122 985 25 937 68 985 m 368 985 b 446 910 412 985 446 956 b 345 812 446 854 401 812 b 270 885 300 812 270 842 b 368 985 270 937 313 985 "},"©":{"ha":1146,"x_min":0,"x_max":0,"o":"m 69 472 b 574 968 69 751 281 968 b 1076 472 865 968 1076 753 b 574 -24 1076 190 865 -24 b 69 472 281 -24 69 192 m 153 472 b 574 47 153 252 301 47 b 993 472 845 47 993 251 b 572 897 993 692 845 897 b 153 472 301 897 153 692 m 276 463 b 590 798 276 642 396 798 b 808 640 717 798 808 724 b 722 556 808 583 763 556 b 688 607 692 556 696 571 b 563 728 672 676 632 728 b 401 513 474 728 401 641 b 617 265 401 374 481 265 b 802 383 734 265 781 343 b 824 401 808 390 815 401 b 840 369 835 401 840 386 b 576 153 840 284 747 153 b 276 463 401 153 276 283 "},"ª":{"ha":556,"x_min":0,"x_max":0,"o":"m 201 725 b 354 753 265 743 342 744 b 365 794 359 757 365 765 b 269 913 365 859 338 913 b 181 826 217 913 192 870 b 140 789 176 803 166 789 b 86 848 115 789 86 807 b 272 965 86 903 154 965 b 476 770 399 965 476 892 b 471 584 476 706 471 627 b 499 542 471 563 478 542 b 523 545 512 542 516 545 b 532 529 527 545 532 540 b 448 457 532 491 494 457 b 366 509 407 457 381 473 b 358 517 364 513 361 517 b 347 508 354 517 351 512 b 205 453 315 476 262 453 b 60 574 123 453 60 496 b 201 725 60 649 115 699 m 365 656 b 356 693 365 684 362 693 b 249 680 313 693 278 689 b 172 593 195 663 172 628 b 248 527 172 551 204 527 b 365 656 317 527 365 576 "},"«":{"ha":688,"x_min":0,"x_max":0,"o":"m 232 381 b 272 322 232 368 244 360 b 357 154 331 245 357 184 b 338 131 357 141 351 131 b 306 154 326 131 317 140 b 134 317 259 212 179 284 b 74 381 110 335 74 353 b 134 444 74 408 110 426 b 306 607 180 479 247 535 b 338 631 314 617 324 631 b 357 607 351 631 357 620 b 272 439 357 577 331 516 b 232 381 244 401 232 393 m 489 381 b 529 322 489 368 501 360 b 614 154 588 245 614 184 b 594 131 614 141 608 131 b 563 154 583 131 574 140 b 391 317 516 212 436 284 b 331 381 367 335 331 353 b 391 444 331 408 367 426 b 563 607 437 479 503 535 b 594 631 571 617 581 631 b 614 607 608 631 614 620 b 529 439 614 577 588 516 b 489 381 501 401 489 393 "},"¬":{"ha":747,"x_min":0,"x_max":0,"o":"m 626 264 b 572 292 590 264 572 270 l 572 522 b 553 542 572 538 568 542 l 94 542 b 75 565 78 542 75 553 b 85 619 75 581 80 606 b 131 641 91 633 98 641 l 643 641 b 672 607 667 641 672 623 l 672 288 b 626 264 672 272 659 264 "},"­":{"ha":497,"x_min":0,"x_max":0,"o":"m 83 313 b 51 342 58 313 51 326 b 64 396 51 358 56 383 b 124 419 72 412 87 419 l 415 419 b 447 392 442 419 447 405 b 433 336 447 374 440 349 b 373 313 424 320 409 313 "},"®":{"ha":1146,"x_min":0,"x_max":0,"o":"m 69 472 b 574 968 69 751 281 968 b 1076 472 865 968 1076 753 b 574 -24 1076 190 865 -24 b 69 472 281 -24 69 192 m 153 472 b 574 47 153 252 301 47 b 993 472 845 47 993 251 b 572 897 993 692 845 897 b 153 472 301 897 153 692 m 477 285 b 499 232 477 258 485 243 b 527 198 513 220 527 214 b 497 178 527 186 516 178 b 425 181 478 178 447 181 b 353 178 398 181 369 178 b 324 198 332 178 324 188 b 365 260 324 222 360 219 b 370 489 368 280 370 418 b 368 683 370 538 369 667 b 326 762 365 737 326 733 b 353 782 326 772 332 782 b 443 779 383 782 401 779 b 580 783 488 779 524 783 b 790 625 713 783 790 729 b 660 474 790 561 752 506 b 653 468 656 473 653 471 b 660 461 653 467 656 464 b 781 297 724 422 760 343 b 825 232 796 266 803 249 b 854 199 842 217 854 216 b 828 178 854 184 842 178 b 757 181 813 178 777 181 b 687 178 724 181 699 178 b 660 199 670 178 660 188 b 672 240 660 213 672 219 b 580 417 672 297 619 393 b 513 433 558 432 517 433 b 477 401 484 433 477 422 m 672 609 b 547 721 672 683 622 721 b 477 673 482 721 477 717 l 477 535 b 546 497 477 509 488 497 b 672 609 625 497 672 541 "},"¯":{"ha":469,"x_min":0,"x_max":0,"o":"m 70 825 b 40 853 46 825 40 838 b 52 905 40 869 45 892 b 110 926 60 919 74 926 l 400 926 b 430 900 425 926 430 913 b 417 848 430 883 424 859 b 359 825 408 833 394 825 "},"°":{"ha":521,"x_min":0,"x_max":0,"o":"m 265 966 b 462 760 378 966 462 879 b 261 550 462 642 380 550 b 58 755 142 550 58 642 b 265 966 58 873 148 966 m 269 892 b 149 760 203 892 149 839 b 266 633 149 687 196 633 b 383 761 335 633 383 688 b 269 892 383 833 338 892 "},"±":{"ha":747,"x_min":0,"x_max":0,"o":"m 424 596 l 653 596 b 672 574 669 596 672 585 b 663 519 672 556 668 535 b 617 497 657 504 649 497 l 424 497 l 424 266 b 378 242 424 250 411 242 b 324 269 341 242 324 248 l 324 497 l 94 497 b 75 519 78 497 75 508 b 85 574 75 536 80 560 b 131 596 91 588 98 596 l 324 596 l 324 822 b 369 846 324 838 336 846 b 424 818 406 846 424 840 m 94 94 b 75 117 78 94 75 105 b 85 171 75 133 80 158 b 131 193 91 185 98 193 l 653 193 b 672 171 669 193 672 182 b 663 116 672 153 668 132 b 617 94 657 101 649 94 "},"´":{"ha":383,"x_min":0,"x_max":0,"o":"m 105 835 b 162 959 126 872 149 923 b 237 1038 174 995 190 1038 b 293 980 274 1038 293 1010 b 258 896 293 957 285 933 b 115 781 215 836 143 781 b 90 801 99 781 90 788 b 105 835 90 806 92 813 "},"µ":{"ha":776,"x_min":0,"x_max":0,"o":"m 324 -15 b 208 44 262 -15 226 18 b 183 82 193 65 190 82 b 175 64 178 82 175 76 b 181 -12 175 49 181 35 b -30 -297 181 -193 48 -297 b -78 -273 -56 -297 -78 -286 b -53 -236 -78 -260 -69 -251 b 121 538 77 -112 121 335 b 115 631 121 585 115 611 b 165 688 115 655 135 674 b 262 710 207 706 243 710 b 292 680 281 710 292 696 b 240 272 292 643 240 431 b 351 90 240 140 297 90 b 538 558 474 90 538 309 b 535 631 538 588 535 616 b 571 681 535 655 549 671 b 669 703 606 697 652 703 b 702 663 686 703 702 692 b 640 183 702 611 640 319 b 682 94 640 140 647 94 b 734 133 707 94 717 133 b 748 107 739 133 748 126 b 627 -10 748 60 713 -10 b 519 92 558 -10 530 53 b 509 108 517 97 515 108 b 494 89 504 108 499 98 b 324 -15 460 35 403 -15 "},"¶":{"ha":806,"x_min":0,"x_max":0,"o":"m 391 437 b 375 463 391 458 387 463 b 276 452 357 463 326 452 b 42 695 132 452 42 551 b 349 961 42 842 144 961 b 618 944 426 961 522 944 b 692 948 660 944 676 948 b 734 917 726 948 734 933 b 660 790 734 869 660 897 l 660 -242 b 601 -283 660 -264 635 -283 b 567 -251 577 -283 567 -269 l 567 792 b 515 870 567 852 537 870 b 485 821 491 870 485 853 l 485 -242 b 425 -283 485 -264 458 -283 b 392 -251 402 -283 392 -269 "},"·":{"ha":335,"x_min":0,"x_max":0,"o":"m 258 360 b 163 267 258 302 212 267 b 76 350 117 267 76 294 b 172 446 76 410 124 446 b 258 360 215 446 258 417 "},"¸":{"ha":389,"x_min":0,"x_max":0,"o":"m 135 -96 b 214 22 135 -66 181 22 b 243 2 224 22 243 10 b 222 -54 243 -4 222 -39 b 256 -70 222 -60 236 -60 b 330 -178 297 -90 330 -123 b 181 -312 330 -260 266 -312 b 58 -242 112 -312 58 -262 b 74 -223 58 -230 65 -223 b 165 -253 90 -223 115 -253 b 233 -194 203 -253 233 -230 b 151 -116 233 -156 201 -127 b 135 -96 142 -114 135 -111 "},"º":{"ha":556,"x_min":0,"x_max":0,"o":"m 31 706 b 272 965 31 859 133 965 b 524 698 406 965 524 868 b 278 455 524 536 413 455 b 31 706 128 455 31 560 m 261 905 b 149 743 201 905 149 852 b 178 603 149 702 157 648 b 295 525 206 546 253 525 b 410 669 356 525 410 569 b 376 822 410 723 397 780 b 261 905 347 876 305 905 "},"»":{"ha":688,"x_min":0,"x_max":0,"o":"m 199 381 b 158 439 199 393 186 401 b 74 607 101 516 74 577 b 93 631 74 620 80 631 b 125 607 106 631 114 621 b 297 444 172 549 252 477 b 357 381 321 426 357 408 b 297 317 357 353 321 335 b 125 154 251 282 185 226 b 93 131 117 144 108 131 b 74 154 80 131 74 141 b 158 322 74 184 101 245 b 199 381 186 360 199 368 m 456 381 b 415 439 456 393 443 401 b 331 607 358 516 331 577 b 350 631 331 620 337 631 b 382 607 363 631 371 621 b 553 444 428 549 509 477 b 614 381 578 426 614 408 b 553 317 614 353 578 335 b 382 154 508 282 442 226 b 350 131 374 144 365 131 b 331 154 337 131 331 141 b 415 322 331 184 358 245 b 456 381 443 360 456 368 "},"¼":{"ha":912,"x_min":0,"x_max":0,"o":"m 211 963 b 233 942 227 963 233 955 b 226 713 233 909 226 844 b 231 538 226 619 228 556 b 306 476 238 500 306 507 b 280 454 306 464 297 454 b 180 456 256 454 201 456 b 67 454 155 456 90 454 b 41 476 49 454 41 464 b 118 538 41 507 111 500 b 124 713 122 555 124 617 b 109 849 124 817 123 842 b 87 853 102 852 94 853 b 65 852 80 853 72 852 b 44 868 49 852 44 860 b 68 895 44 883 54 889 b 211 963 154 933 192 963 m 756 906 b 198 1 731 861 209 17 b 165 -17 190 -9 182 -17 b 126 12 147 -17 126 -6 b 133 33 126 19 128 26 b 694 943 151 71 524 663 b 724 960 701 953 708 960 b 764 930 747 960 764 944 b 756 906 764 924 760 914 m 792 483 b 779 192 792 458 779 266 b 792 181 779 184 783 181 b 874 196 846 181 861 196 b 890 170 888 196 890 185 b 870 101 890 154 881 117 b 835 87 863 90 855 87 l 791 87 b 779 76 783 87 779 83 b 794 -3 779 23 794 7 b 766 -31 794 -18 784 -25 b 715 -39 752 -36 726 -39 b 685 24 699 -39 685 -28 l 685 74 b 669 87 685 80 682 87 l 521 87 b 483 95 501 87 489 92 b 444 150 460 108 444 131 b 590 353 444 184 533 286 b 767 509 648 423 738 509 b 792 483 781 509 792 501 m 535 186 b 550 180 535 181 541 180 l 674 180 b 688 194 685 180 688 188 b 694 351 690 267 694 333 b 690 363 694 359 693 363 b 643 322 681 363 660 340 b 535 186 632 310 535 210 "},"½":{"ha":957,"x_min":0,"x_max":0,"o":"m 211 963 b 233 942 227 963 233 955 b 226 713 233 909 226 844 b 231 538 226 619 228 556 b 306 476 238 500 306 507 b 280 454 306 464 297 454 b 180 456 256 454 201 456 b 67 454 155 456 90 454 b 41 476 49 454 41 464 b 118 538 41 507 111 500 b 124 713 122 555 124 617 b 109 849 124 817 123 842 b 87 853 102 852 94 853 b 65 852 80 853 72 852 b 44 868 49 852 44 860 b 68 895 44 883 54 889 b 211 963 154 933 192 963 m 756 906 b 198 1 731 861 209 17 b 165 -17 190 -9 182 -17 b 126 12 147 -17 126 -6 b 133 33 126 19 128 26 b 694 943 151 71 524 663 b 724 960 701 953 708 960 b 764 930 747 960 764 944 b 756 906 764 924 760 914 m 648 94 b 706 86 648 90 659 86 b 872 119 798 86 846 103 b 915 143 892 131 903 143 b 930 122 924 143 930 135 b 911 26 930 103 918 66 b 876 -1 907 3 901 -1 b 707 0 855 -1 787 0 b 532 -1 622 0 558 -1 b 508 16 520 -1 508 2 b 530 51 508 24 513 36 l 602 121 b 765 341 684 199 765 264 b 667 423 765 399 717 423 b 558 362 616 423 577 395 b 542 347 555 356 550 347 b 530 372 534 347 530 357 b 711 510 530 421 586 510 b 876 374 799 510 876 464 b 704 143 876 278 788 210 b 648 94 672 117 648 100 "},"¾":{"ha":994,"x_min":0,"x_max":0,"o":"m 840 906 b 281 1 815 861 292 17 b 249 -17 274 -9 265 -17 b 210 12 230 -17 210 -6 b 216 33 210 19 212 26 b 778 943 235 71 608 663 b 808 960 784 953 792 960 b 847 930 830 960 847 944 b 840 906 847 924 844 914 m 390 868 b 292 774 347 817 308 788 b 283 765 288 769 283 767 b 292 758 283 759 287 759 b 440 608 342 742 440 703 b 240 448 440 515 356 448 b 32 599 105 448 32 542 b 47 619 32 608 35 619 b 62 606 52 619 54 616 b 214 530 84 575 135 530 b 328 615 288 530 328 563 b 208 709 328 684 247 701 b 183 734 190 713 183 722 b 224 780 183 746 194 755 b 302 858 288 832 302 850 b 242 865 302 862 297 865 b 110 832 158 865 130 851 b 81 808 97 821 94 808 b 67 831 72 808 67 817 b 82 927 67 849 74 881 b 116 957 86 952 88 957 b 259 954 138 957 185 954 b 413 957 334 954 400 957 b 431 939 424 957 431 948 b 390 868 431 922 407 888 m 874 483 b 862 192 874 458 862 266 b 875 181 862 184 865 181 b 956 196 928 181 944 196 b 973 170 971 196 973 185 b 953 101 973 154 964 117 b 918 87 946 90 938 87 l 874 87 b 862 76 866 87 862 83 b 876 -3 862 23 876 7 b 849 -31 876 -18 867 -25 b 798 -39 835 -36 809 -39 b 767 24 781 -39 767 -28 l 767 74 b 752 87 767 80 765 87 l 603 87 b 565 95 584 87 572 92 b 526 150 542 108 526 131 b 672 353 526 184 615 286 b 850 509 731 423 821 509 b 874 483 863 509 874 501 m 617 186 b 633 180 617 181 624 180 l 757 180 b 770 194 768 180 770 188 b 776 351 773 267 776 333 b 772 363 776 359 776 363 b 726 322 764 363 743 340 b 617 186 715 310 617 210 "},"¿":{"ha":629,"x_min":0,"x_max":0,"o":"m 292 617 b 387 710 292 676 337 710 b 472 628 432 710 472 683 b 378 532 472 568 425 532 b 292 617 333 532 292 561 m 365 -159 b 520 -86 449 -159 497 -112 b 559 -49 538 -65 547 -49 b 577 -82 572 -49 577 -64 b 317 -265 577 -147 481 -265 b 72 -67 182 -265 72 -201 b 384 376 72 165 384 226 b 381 412 384 393 381 405 b 399 431 381 422 386 431 b 449 335 423 431 449 387 b 224 -40 449 178 224 126 b 365 -159 224 -117 279 -159 "},"À":{"ha":915,"x_min":0,"x_max":0,"o":"m 537 1063 b 567 1023 558 1046 567 1036 b 537 1001 567 1008 552 1001 b 353 1068 494 1001 415 1031 b 279 1160 317 1090 279 1118 b 344 1221 279 1197 306 1221 b 432 1163 381 1221 407 1195 b 537 1063 462 1128 497 1093 m 343 799 b 372 901 357 836 367 872 b 480 964 377 930 444 964 b 526 917 506 964 515 944 l 823 144 b 881 69 829 128 847 92 b 913 31 894 61 913 49 b 849 -3 913 1 891 -3 b 742 0 819 -3 792 0 b 638 -3 691 0 670 -3 b 591 29 606 -3 591 8 b 665 118 591 62 665 69 b 614 262 665 128 635 224 b 581 281 608 273 599 281 l 282 281 b 244 265 263 281 251 275 b 190 115 223 231 190 134 b 259 27 190 61 259 60 b 213 -3 259 10 248 -3 b 106 0 190 -3 131 0 b 39 -3 79 0 63 -3 b 3 27 15 -3 3 8 b 89 139 3 62 58 60 m 559 369 b 572 380 570 369 572 373 b 442 741 572 399 480 661 b 428 756 439 748 433 756 b 417 742 423 756 419 748 b 281 380 380 665 281 395 b 294 369 281 373 284 369 "},"Á":{"ha":915,"x_min":0,"x_max":0,"o":"m 370 1063 b 474 1163 410 1093 445 1128 b 563 1221 500 1195 526 1221 b 628 1160 601 1221 628 1197 b 554 1068 628 1118 590 1090 b 370 1001 492 1031 413 1001 b 340 1023 355 1001 340 1008 b 370 1063 340 1036 349 1046 m 343 799 b 372 901 357 836 367 872 b 480 964 377 930 444 964 b 526 917 506 964 515 944 l 823 144 b 881 69 829 128 847 92 b 913 31 894 61 913 49 b 849 -3 913 1 891 -3 b 742 0 819 -3 792 0 b 638 -3 691 0 670 -3 b 591 29 606 -3 591 8 b 665 118 591 62 665 69 b 614 262 665 128 635 224 b 581 281 608 273 599 281 l 282 281 b 244 265 263 281 251 275 b 190 115 223 231 190 134 b 259 27 190 61 259 60 b 213 -3 259 10 248 -3 b 106 0 190 -3 131 0 b 39 -3 79 0 63 -3 b 3 27 15 -3 3 8 b 89 139 3 62 58 60 m 559 369 b 572 380 570 369 572 373 b 442 741 572 399 480 661 b 428 756 439 748 433 756 b 417 742 423 756 419 748 b 281 380 380 665 281 395 b 294 369 281 373 284 369 "},"Â":{"ha":915,"x_min":0,"x_max":0,"o":"m 616 1001 b 492 1055 587 1001 540 1022 b 450 1079 471 1070 460 1079 b 410 1055 440 1079 432 1071 b 290 1001 374 1028 319 1001 b 267 1022 277 1001 267 1009 b 285 1051 267 1033 274 1040 b 387 1175 320 1090 358 1136 b 453 1221 406 1200 422 1221 b 520 1175 483 1221 500 1201 b 622 1053 545 1141 583 1095 b 641 1022 633 1042 641 1032 b 616 1001 641 1008 628 1001 m 343 799 b 372 901 357 836 367 872 b 480 964 377 930 444 964 b 526 917 506 964 515 944 l 823 144 b 881 69 829 128 847 92 b 913 31 894 61 913 49 b 849 -3 913 1 891 -3 b 742 0 819 -3 792 0 b 638 -3 691 0 670 -3 b 591 29 606 -3 591 8 b 665 118 591 62 665 69 b 614 262 665 128 635 224 b 581 281 608 273 599 281 l 282 281 b 244 265 263 281 251 275 b 190 115 223 231 190 134 b 259 27 190 61 259 60 b 213 -3 259 10 248 -3 b 106 0 190 -3 131 0 b 39 -3 79 0 63 -3 b 3 27 15 -3 3 8 b 89 139 3 62 58 60 m 559 369 b 572 380 570 369 572 373 b 442 741 572 399 480 661 b 428 756 439 748 433 756 b 417 742 423 756 419 748 b 281 380 380 665 281 395 b 294 369 281 373 284 369 "},"Ã":{"ha":915,"x_min":0,"x_max":0,"o":"m 244 1086 b 356 1194 244 1148 292 1194 b 543 1137 428 1194 481 1137 b 615 1197 604 1137 595 1197 b 653 1132 631 1197 653 1175 b 539 1024 653 1068 603 1024 b 344 1091 459 1024 401 1091 b 269 1034 292 1091 290 1034 b 244 1086 260 1034 244 1049 m 343 799 b 372 901 357 836 367 872 b 480 964 377 930 444 964 b 526 917 506 964 515 944 l 823 144 b 881 69 829 128 847 92 b 913 31 894 61 913 49 b 849 -3 913 1 891 -3 b 742 0 819 -3 792 0 b 638 -3 691 0 670 -3 b 591 29 606 -3 591 8 b 665 118 591 62 665 69 b 614 262 665 128 635 224 b 581 281 608 273 599 281 l 282 281 b 244 265 263 281 251 275 b 190 115 223 231 190 134 b 259 27 190 61 259 60 b 213 -3 259 10 248 -3 b 106 0 190 -3 131 0 b 39 -3 79 0 63 -3 b 3 27 15 -3 3 8 b 89 139 3 62 58 60 m 559 369 b 572 380 570 369 572 373 b 442 741 572 399 480 661 b 428 756 439 748 433 756 b 417 742 423 756 419 748 b 281 380 380 665 281 395 b 294 369 281 373 284 369 "},"Ä":{"ha":915,"x_min":0,"x_max":0,"o":"m 323 1205 b 404 1127 369 1205 404 1174 b 299 1026 404 1069 357 1026 b 221 1102 251 1026 221 1057 b 323 1205 221 1155 266 1205 m 610 1205 b 691 1127 656 1205 691 1174 b 586 1026 691 1069 644 1026 b 508 1102 538 1026 508 1057 b 610 1205 508 1155 553 1205 m 343 799 b 372 901 357 836 367 872 b 480 964 377 930 444 964 b 526 917 506 964 515 944 l 823 144 b 881 69 829 128 847 92 b 913 31 894 61 913 49 b 849 -3 913 1 891 -3 b 742 0 819 -3 792 0 b 638 -3 691 0 670 -3 b 591 29 606 -3 591 8 b 665 118 591 62 665 69 b 614 262 665 128 635 224 b 581 281 608 273 599 281 l 282 281 b 244 265 263 281 251 275 b 190 115 223 231 190 134 b 259 27 190 61 259 60 b 213 -3 259 10 248 -3 b 106 0 190 -3 131 0 b 39 -3 79 0 63 -3 b 3 27 15 -3 3 8 b 89 139 3 62 58 60 m 559 369 b 572 380 570 369 572 373 b 442 741 572 399 480 661 b 428 756 439 748 433 756 b 417 742 423 756 419 748 b 281 380 380 665 281 395 b 294 369 281 373 284 369 "},"Å":{"ha":915,"x_min":0,"x_max":0,"o":"m 456 1244 b 598 1113 536 1244 598 1192 b 449 977 598 1029 529 977 b 305 1108 367 977 305 1029 b 456 1244 305 1190 373 1244 m 462 1186 b 388 1113 417 1186 388 1153 b 456 1044 388 1074 414 1044 b 529 1119 503 1044 529 1080 b 462 1186 529 1156 503 1186 m 343 799 b 372 901 357 836 367 872 b 480 964 377 930 444 964 b 526 917 506 964 515 944 l 823 144 b 881 69 829 128 847 92 b 913 31 894 61 913 49 b 849 -3 913 1 891 -3 b 742 0 819 -3 792 0 b 638 -3 691 0 670 -3 b 591 29 606 -3 591 8 b 665 118 591 62 665 69 b 614 262 665 128 635 224 b 581 281 608 273 599 281 l 282 281 b 244 265 263 281 251 275 b 190 115 223 231 190 134 b 259 27 190 61 259 60 b 213 -3 259 10 248 -3 b 106 0 190 -3 131 0 b 39 -3 79 0 63 -3 b 3 27 15 -3 3 8 b 89 139 3 62 58 60 m 559 369 b 572 380 570 369 572 373 b 442 741 572 399 480 661 b 428 756 439 748 433 756 b 417 742 423 756 419 748 b 281 380 380 665 281 395 b 294 369 281 373 284 369 "},"Æ":{"ha":1329,"x_min":0,"x_max":0,"o":"m 898 944 b 1157 948 1071 944 1133 948 b 1208 897 1188 948 1200 940 b 1228 759 1213 869 1219 804 b 1235 703 1233 735 1235 710 b 1208 673 1235 683 1223 673 b 1164 728 1185 673 1174 705 b 917 863 1117 842 1098 863 b 764 793 783 863 764 855 l 764 592 b 808 544 764 556 772 544 b 1008 621 976 544 985 565 b 1035 644 1015 633 1025 644 b 1064 581 1056 644 1064 627 l 1064 404 b 1038 353 1064 369 1058 353 b 1002 388 1018 353 1009 372 b 810 460 976 444 968 460 b 764 412 772 460 764 445 l 764 156 b 922 84 764 90 784 84 b 1199 240 1117 84 1153 117 b 1239 287 1210 266 1224 287 b 1265 238 1256 287 1265 274 b 1242 40 1265 209 1244 72 b 1185 -3 1240 10 1222 -3 b 931 0 1160 -3 1084 0 b 578 -3 738 0 626 -3 b 533 25 545 -3 533 9 b 617 113 533 62 608 56 b 621 292 619 128 621 205 b 592 324 621 313 614 324 l 347 324 b 297 299 322 324 309 317 b 203 115 255 238 203 137 b 268 27 203 60 268 60 b 223 -3 268 10 258 -3 b 111 0 200 -3 135 0 b 40 -3 85 0 64 -3 b 3 27 16 -3 3 8 b 98 138 3 63 53 61 l 461 769 b 481 826 476 794 481 813 b 408 917 481 878 408 875 b 452 948 408 933 415 948 b 898 944 477 948 578 944 m 621 776 b 610 813 620 798 617 813 b 577 777 601 813 593 802 b 374 427 562 756 374 442 b 397 413 374 418 381 413 l 590 413 b 624 479 617 413 624 419 b 621 776 624 517 622 736 "},"Ç":{"ha":929,"x_min":0,"x_max":0,"o":"m 408 -96 b 438 -20 408 -80 421 -47 b 48 465 191 6 48 217 b 489 968 48 730 207 968 b 709 925 602 968 663 925 b 776 938 736 925 756 938 b 834 813 814 938 815 897 b 859 699 850 737 859 715 b 830 665 859 677 847 665 b 762 733 801 665 785 699 b 494 889 697 826 599 889 b 206 513 314 889 206 716 b 546 99 206 278 338 99 b 838 297 705 99 797 204 b 869 330 847 313 856 330 b 890 291 885 330 890 308 b 851 167 890 258 878 212 b 504 -23 797 76 681 -19 b 494 -54 499 -34 494 -47 b 528 -70 494 -60 508 -60 b 602 -178 569 -90 602 -123 b 453 -312 602 -260 538 -312 b 331 -242 384 -312 331 -262 b 347 -223 331 -230 338 -223 b 438 -253 363 -223 387 -253 b 505 -194 475 -253 505 -230 b 424 -116 505 -156 473 -127 b 408 -96 415 -114 408 -111 "},"È":{"ha":856,"x_min":0,"x_max":0,"o":"m 510 1063 b 540 1023 531 1046 540 1036 b 510 1001 540 1008 525 1001 b 326 1068 467 1001 388 1031 b 252 1160 290 1090 252 1118 b 317 1221 252 1197 278 1221 b 405 1163 353 1221 380 1195 b 510 1063 435 1128 469 1093 m 591 404 b 565 353 591 369 585 353 b 529 388 545 353 536 372 b 338 460 503 444 494 460 b 291 412 299 460 291 445 l 291 156 b 449 84 291 90 311 84 b 726 240 638 84 677 111 b 766 287 737 266 751 287 b 792 238 783 287 792 274 b 769 40 792 209 771 72 b 713 -3 767 10 749 -3 b 458 0 687 -3 611 0 b 116 -3 265 0 165 -3 b 72 25 83 -3 72 9 b 144 115 72 62 136 56 b 150 482 149 144 150 380 b 148 803 150 554 150 780 b 76 917 142 883 76 875 b 117 948 76 933 83 948 b 425 944 154 948 210 944 b 684 948 598 944 660 948 b 735 897 715 948 727 940 b 755 759 740 869 747 804 b 763 703 760 735 763 710 b 735 673 763 683 750 673 b 691 728 712 673 701 705 b 444 863 644 842 625 863 b 291 793 310 863 291 855 l 291 592 b 335 544 291 556 299 544 b 535 621 503 544 512 565 b 562 644 542 633 552 644 b 591 581 583 644 591 627 "},"É":{"ha":856,"x_min":0,"x_max":0,"o":"m 344 1063 b 449 1163 384 1093 419 1128 b 538 1221 474 1195 501 1221 b 602 1160 575 1221 602 1197 b 528 1068 602 1118 565 1090 b 344 1001 467 1031 388 1001 b 315 1023 329 1001 315 1008 b 344 1063 315 1036 323 1046 m 591 404 b 565 353 591 369 585 353 b 529 388 545 353 536 372 b 338 460 503 444 494 460 b 291 412 299 460 291 445 l 291 156 b 449 84 291 90 311 84 b 726 240 638 84 677 111 b 766 287 737 266 751 287 b 792 238 783 287 792 274 b 769 40 792 209 771 72 b 713 -3 767 10 749 -3 b 458 0 687 -3 611 0 b 116 -3 265 0 165 -3 b 72 25 83 -3 72 9 b 144 115 72 62 136 56 b 150 482 149 144 150 380 b 148 803 150 554 150 780 b 76 917 142 883 76 875 b 117 948 76 933 83 948 b 425 944 154 948 210 944 b 684 948 598 944 660 948 b 735 897 715 948 727 940 b 755 759 740 869 747 804 b 763 703 760 735 763 710 b 735 673 763 683 750 673 b 691 728 712 673 701 705 b 444 863 644 842 625 863 b 291 793 310 863 291 855 l 291 592 b 335 544 291 556 299 544 b 535 621 503 544 512 565 b 562 644 542 633 552 644 b 591 581 583 644 591 627 "},"Ê":{"ha":856,"x_min":0,"x_max":0,"o":"m 600 1001 b 476 1055 571 1001 524 1022 b 434 1079 455 1070 444 1079 b 394 1055 424 1079 416 1071 b 274 1001 358 1028 303 1001 b 251 1022 261 1001 251 1009 b 269 1051 251 1033 258 1040 b 371 1175 304 1090 342 1136 b 438 1221 390 1200 406 1221 b 504 1175 467 1221 484 1201 b 606 1053 529 1141 567 1095 b 625 1022 617 1042 625 1032 b 600 1001 625 1008 613 1001 m 591 404 b 565 353 591 369 585 353 b 529 388 545 353 536 372 b 338 460 503 444 494 460 b 291 412 299 460 291 445 l 291 156 b 449 84 291 90 311 84 b 726 240 638 84 677 111 b 766 287 737 266 751 287 b 792 238 783 287 792 274 b 769 40 792 209 771 72 b 713 -3 767 10 749 -3 b 458 0 687 -3 611 0 b 116 -3 265 0 165 -3 b 72 25 83 -3 72 9 b 144 115 72 62 136 56 b 150 482 149 144 150 380 b 148 803 150 554 150 780 b 76 917 142 883 76 875 b 117 948 76 933 83 948 b 425 944 154 948 210 944 b 684 948 598 944 660 948 b 735 897 715 948 727 940 b 755 759 740 869 747 804 b 763 703 760 735 763 710 b 735 673 763 683 750 673 b 691 728 712 673 701 705 b 444 863 644 842 625 863 b 291 793 310 863 291 855 l 291 592 b 335 544 291 556 299 544 b 535 621 503 544 512 565 b 562 644 542 633 552 644 b 591 581 583 644 591 627 "},"Ë":{"ha":856,"x_min":0,"x_max":0,"o":"m 304 1205 b 385 1127 350 1205 385 1174 b 281 1026 385 1069 338 1026 b 202 1102 233 1026 202 1057 b 304 1205 202 1155 247 1205 m 591 1205 b 672 1127 637 1205 672 1174 b 567 1026 672 1069 625 1026 b 489 1102 519 1026 489 1057 b 591 1205 489 1155 534 1205 m 591 404 b 565 353 591 369 585 353 b 529 388 545 353 536 372 b 338 460 503 444 494 460 b 291 412 299 460 291 445 l 291 156 b 449 84 291 90 311 84 b 726 240 638 84 677 111 b 766 287 737 266 751 287 b 792 238 783 287 792 274 b 769 40 792 209 771 72 b 713 -3 767 10 749 -3 b 458 0 687 -3 611 0 b 116 -3 265 0 165 -3 b 72 25 83 -3 72 9 b 144 115 72 62 136 56 b 150 482 149 144 150 380 b 148 803 150 554 150 780 b 76 917 142 883 76 875 b 117 948 76 933 83 948 b 425 944 154 948 210 944 b 684 948 598 944 660 948 b 735 897 715 948 727 940 b 755 759 740 869 747 804 b 763 703 760 735 763 710 b 735 673 763 683 750 673 b 691 728 712 673 701 705 b 444 863 644 842 625 863 b 291 793 310 863 291 855 l 291 592 b 335 544 291 556 299 544 b 535 621 503 544 512 565 b 562 644 542 633 552 644 b 591 581 583 644 591 627 "},"Ì":{"ha":442,"x_min":0,"x_max":0,"o":"m 307 1063 b 337 1023 328 1046 337 1036 b 307 1001 337 1008 322 1001 b 123 1068 264 1001 185 1031 b 49 1160 87 1090 49 1118 b 114 1221 49 1197 76 1221 b 202 1163 151 1221 177 1195 b 307 1063 232 1128 267 1093 m 326 948 b 367 917 358 948 367 933 b 295 803 367 874 301 886 b 292 482 293 782 292 615 b 299 115 292 335 294 149 b 370 25 308 55 370 63 b 326 -3 370 10 358 -3 b 222 0 300 -3 256 0 b 116 -3 188 0 142 -3 b 72 25 83 -3 72 10 b 144 115 72 63 137 56 b 150 482 149 144 150 381 b 149 803 150 553 150 780 b 76 917 142 884 76 876 b 117 948 76 933 83 948 b 222 944 143 948 189 944 b 326 948 256 944 301 948 "},"Í":{"ha":442,"x_min":0,"x_max":0,"o":"m 135 1063 b 239 1163 174 1093 210 1128 b 328 1221 265 1195 291 1221 b 392 1160 365 1221 392 1197 b 319 1068 392 1118 355 1090 b 135 1001 257 1031 178 1001 b 105 1023 119 1001 105 1008 b 135 1063 105 1036 113 1046 m 326 948 b 367 917 358 948 367 933 b 295 803 367 874 301 886 b 292 482 293 782 292 615 b 299 115 292 335 294 149 b 370 25 308 55 370 63 b 326 -3 370 10 358 -3 b 222 0 300 -3 256 0 b 116 -3 188 0 142 -3 b 72 25 83 -3 72 10 b 144 115 72 63 137 56 b 150 482 149 144 150 381 b 149 803 150 553 150 780 b 76 917 142 884 76 876 b 117 948 76 933 83 948 b 222 944 143 948 189 944 b 326 948 256 944 301 948 "},"Î":{"ha":442,"x_min":0,"x_max":0,"o":"m 383 1001 b 260 1055 354 1001 308 1022 b 217 1079 238 1070 228 1079 b 178 1055 208 1079 199 1071 b 58 1001 141 1028 86 1001 b 34 1022 44 1001 34 1009 b 52 1051 34 1033 42 1040 b 154 1175 88 1090 125 1136 b 221 1221 173 1200 190 1221 b 288 1175 250 1221 267 1201 b 390 1053 313 1141 351 1095 b 408 1022 401 1042 408 1032 b 383 1001 408 1008 396 1001 m 326 948 b 367 917 358 948 367 933 b 295 803 367 874 301 886 b 292 482 293 782 292 615 b 299 115 292 335 294 149 b 370 25 308 55 370 63 b 326 -3 370 10 358 -3 b 222 0 300 -3 256 0 b 116 -3 188 0 142 -3 b 72 25 83 -3 72 10 b 144 115 72 63 137 56 b 150 482 149 144 150 381 b 149 803 150 553 150 780 b 76 917 142 884 76 876 b 117 948 76 933 83 948 b 222 944 143 948 189 944 b 326 948 256 944 301 948 "},"Ï":{"ha":442,"x_min":0,"x_max":0,"o":"m 99 1205 b 180 1127 144 1205 180 1174 b 75 1026 180 1069 133 1026 b -3 1102 27 1026 -3 1057 b 99 1205 -3 1155 42 1205 m 365 1205 b 446 1127 410 1205 446 1174 b 341 1026 446 1069 399 1026 b 263 1102 293 1026 263 1057 b 365 1205 263 1155 308 1205 m 326 948 b 367 917 358 948 367 933 b 295 803 367 874 301 886 b 292 482 293 782 292 615 b 299 115 292 335 294 149 b 370 25 308 55 370 63 b 326 -3 370 10 358 -3 b 222 0 300 -3 256 0 b 116 -3 188 0 142 -3 b 72 25 83 -3 72 10 b 144 115 72 63 137 56 b 150 482 149 144 150 381 b 149 803 150 553 150 780 b 76 917 142 884 76 876 b 117 948 76 933 83 948 b 222 944 143 948 189 944 b 326 948 256 944 301 948 "},"Ð":{"ha":1005,"x_min":0,"x_max":0,"o":"m 222 944 b 427 949 299 944 352 949 b 957 478 691 949 957 819 b 491 -4 957 177 773 -4 b 222 1 409 -4 317 1 b 116 -3 188 1 142 -3 b 72 25 83 -3 72 10 b 144 115 72 63 137 56 b 150 440 148 141 149 326 l 37 440 b 10 464 15 440 10 451 b 22 511 10 479 15 499 b 72 530 29 524 41 530 l 150 530 b 149 803 150 622 149 783 b 76 917 142 884 76 876 b 117 948 76 933 83 948 b 222 944 143 948 189 944 m 292 530 l 488 530 b 514 507 509 530 514 519 b 502 460 514 491 509 469 b 451 440 495 447 482 440 l 292 440 l 292 158 b 466 80 292 92 317 80 b 799 456 704 80 799 258 b 412 865 799 683 696 865 b 292 791 301 865 292 844 "},"Ñ":{"ha":997,"x_min":0,"x_max":0,"o":"m 294 1086 b 406 1194 294 1148 342 1194 b 593 1137 478 1194 531 1137 b 665 1197 654 1137 645 1197 b 703 1132 681 1197 703 1175 b 589 1024 703 1068 653 1024 b 394 1091 509 1024 451 1091 b 319 1034 342 1091 340 1034 b 294 1086 310 1034 294 1049 m 117 948 b 210 944 138 948 183 944 b 278 936 242 944 264 943 b 338 868 296 927 308 910 l 724 300 b 762 260 745 270 758 260 b 769 485 767 260 769 261 b 756 830 769 662 766 808 b 683 919 742 881 683 885 b 723 948 683 939 696 948 b 815 944 756 948 794 944 b 900 948 840 944 869 948 b 937 917 927 948 937 935 b 869 813 937 877 874 883 b 865 486 866 786 865 638 b 873 58 865 166 873 116 b 790 -10 873 21 832 -10 b 742 23 774 -10 757 3 l 274 699 b 255 719 265 710 259 719 b 244 465 245 719 244 709 b 259 111 244 285 249 133 b 334 27 275 60 334 60 b 292 -3 334 7 319 -3 b 200 0 258 -3 220 0 b 111 -3 174 0 143 -3 b 72 26 84 -3 72 9 b 146 129 72 65 140 60 b 150 478 149 160 150 302 b 148 803 150 653 150 785 b 76 917 141 885 76 875 b 117 948 76 938 92 948 "},"Ò":{"ha":1014,"x_min":0,"x_max":0,"o":"m 592 1063 b 622 1023 613 1046 622 1036 b 592 1001 622 1008 607 1001 b 408 1068 549 1001 469 1031 b 334 1160 372 1090 334 1118 b 399 1221 334 1197 360 1221 b 487 1163 435 1221 462 1195 b 592 1063 517 1128 551 1093 m 48 465 b 499 967 48 762 236 967 b 966 449 749 967 966 778 b 512 -24 966 133 763 -24 b 48 465 226 -24 48 181 m 483 882 b 213 508 345 882 213 753 b 268 244 213 428 225 332 b 535 69 335 110 449 69 b 810 408 683 69 810 176 b 742 704 810 514 785 624 b 483 882 685 813 589 882 "},"Ó":{"ha":1014,"x_min":0,"x_max":0,"o":"m 414 1063 b 518 1163 453 1093 489 1128 b 607 1221 544 1195 570 1221 b 672 1160 644 1221 672 1197 b 598 1068 672 1118 634 1090 b 414 1001 536 1031 457 1001 b 384 1023 399 1001 384 1008 b 414 1063 384 1036 392 1046 m 48 465 b 499 967 48 762 236 967 b 966 449 749 967 966 778 b 512 -24 966 133 763 -24 b 48 465 226 -24 48 181 m 483 882 b 213 508 345 882 213 753 b 268 244 213 428 225 332 b 535 69 335 110 449 69 b 810 408 683 69 810 176 b 742 704 810 514 785 624 b 483 882 685 813 589 882 "},"Ô":{"ha":1014,"x_min":0,"x_max":0,"o":"m 671 1001 b 547 1055 642 1001 595 1022 b 505 1079 526 1070 515 1079 b 465 1055 495 1079 487 1071 b 345 1001 428 1028 374 1001 b 322 1022 332 1001 322 1009 b 340 1051 322 1033 329 1040 b 442 1175 375 1090 413 1136 b 508 1221 460 1200 477 1221 b 575 1175 538 1221 555 1201 b 677 1053 600 1141 638 1095 b 696 1022 688 1042 696 1032 b 671 1001 696 1008 683 1001 m 48 465 b 499 967 48 762 236 967 b 966 449 749 967 966 778 b 512 -24 966 133 763 -24 b 48 465 226 -24 48 181 m 483 882 b 213 508 345 882 213 753 b 268 244 213 428 225 332 b 535 69 335 110 449 69 b 810 408 683 69 810 176 b 742 704 810 514 785 624 b 483 882 685 813 589 882 "},"Õ":{"ha":1014,"x_min":0,"x_max":0,"o":"m 304 1086 b 417 1194 304 1148 353 1194 b 603 1137 488 1194 542 1137 b 676 1197 665 1137 656 1197 b 713 1132 692 1197 713 1175 b 599 1024 713 1068 663 1024 b 404 1091 519 1024 461 1091 b 330 1034 352 1091 350 1034 b 304 1086 321 1034 304 1049 m 48 465 b 499 967 48 762 236 967 b 966 449 749 967 966 778 b 512 -24 966 133 763 -24 b 48 465 226 -24 48 181 m 483 882 b 213 508 345 882 213 753 b 268 244 213 428 225 332 b 535 69 335 110 449 69 b 810 408 683 69 810 176 b 742 704 810 514 785 624 b 483 882 685 813 589 882 "},"Ö":{"ha":1014,"x_min":0,"x_max":0,"o":"m 376 1205 b 457 1127 422 1205 457 1174 b 352 1026 457 1069 410 1026 b 274 1102 304 1026 274 1057 b 376 1205 274 1155 319 1205 m 663 1205 b 744 1127 708 1205 744 1174 b 639 1026 744 1069 697 1026 b 560 1102 591 1026 560 1057 b 663 1205 560 1155 606 1205 m 48 465 b 499 967 48 762 236 967 b 966 449 749 967 966 778 b 512 -24 966 133 763 -24 b 48 465 226 -24 48 181 m 483 882 b 213 508 345 882 213 753 b 268 244 213 428 225 332 b 535 69 335 110 449 69 b 810 408 683 69 810 176 b 742 704 810 514 785 624 b 483 882 685 813 589 882 "},"×":{"ha":747,"x_min":0,"x_max":0,"o":"m 164 713 b 185 701 171 713 178 710 l 372 513 l 561 701 b 583 713 568 709 576 713 b 640 651 602 713 640 670 b 627 626 640 642 635 633 l 442 441 l 631 254 b 642 233 640 246 642 240 b 581 176 642 213 600 176 b 556 188 573 176 563 179 l 371 372 l 184 185 b 163 174 176 177 169 174 b 105 235 142 174 105 217 b 117 260 105 244 110 253 l 301 443 l 119 626 b 106 651 110 633 106 644 b 164 713 106 670 144 713 "},"Ø":{"ha":1014,"x_min":0,"x_max":0,"o":"m 48 465 b 499 967 48 762 236 967 b 729 907 581 967 660 947 l 791 1006 b 828 1029 800 1021 810 1029 b 878 994 861 1029 878 1009 b 867 965 878 988 874 976 l 799 856 b 966 449 900 768 966 630 b 512 -24 966 133 763 -24 b 281 31 424 -24 346 -4 l 219 -68 b 185 -87 213 -78 202 -87 b 137 -52 157 -87 137 -69 b 143 -31 137 -44 141 -34 l 211 77 b 48 465 106 164 48 301 m 483 882 b 213 508 345 882 213 753 b 268 244 213 428 225 332 b 293 201 276 228 284 214 l 663 808 b 483 882 612 855 549 882 m 742 704 b 722 739 736 716 729 728 l 352 135 b 535 69 411 87 478 69 b 810 408 683 69 810 176 b 742 704 810 514 785 624 "},"Ù":{"ha":977,"x_min":0,"x_max":0,"o":"m 582 1063 b 612 1023 603 1046 612 1036 b 582 1001 612 1008 597 1001 b 398 1068 539 1001 460 1031 b 324 1160 362 1090 324 1118 b 389 1221 324 1197 351 1221 b 477 1163 426 1221 452 1195 b 582 1063 507 1128 542 1093 m 849 528 b 849 353 849 460 849 405 b 490 -24 849 91 712 -24 b 135 371 294 -24 135 83 b 133 803 135 443 134 780 b 60 917 126 884 60 876 b 101 948 60 933 67 948 b 206 944 127 948 173 944 b 310 948 240 944 285 948 b 351 917 342 948 351 933 b 280 803 351 874 287 886 b 276 392 278 784 276 540 b 515 92 276 164 384 92 b 719 200 621 92 688 138 b 751 504 744 249 751 334 b 740 830 751 603 749 805 b 667 919 728 880 667 885 b 707 948 667 939 680 948 b 799 944 740 948 778 944 b 884 948 824 944 853 948 b 921 917 911 948 921 935 b 853 813 921 877 859 883 b 849 528 850 786 849 638 "},"Ú":{"ha":977,"x_min":0,"x_max":0,"o":"m 429 1063 b 533 1163 469 1093 504 1128 b 622 1221 559 1195 585 1221 b 687 1160 660 1221 687 1197 b 613 1068 687 1118 649 1090 b 429 1001 551 1031 472 1001 b 399 1023 414 1001 399 1008 b 429 1063 399 1036 408 1046 m 849 528 b 849 353 849 460 849 405 b 490 -24 849 91 712 -24 b 135 371 294 -24 135 83 b 133 803 135 443 134 780 b 60 917 126 884 60 876 b 101 948 60 933 67 948 b 206 944 127 948 173 944 b 310 948 240 944 285 948 b 351 917 342 948 351 933 b 280 803 351 874 287 886 b 276 392 278 784 276 540 b 515 92 276 164 384 92 b 719 200 621 92 688 138 b 751 504 744 249 751 334 b 740 830 751 603 749 805 b 667 919 728 880 667 885 b 707 948 667 939 680 948 b 799 944 740 948 778 944 b 884 948 824 944 853 948 b 921 917 911 948 921 935 b 853 813 921 877 859 883 b 849 528 850 786 849 638 "},"Û":{"ha":977,"x_min":0,"x_max":0,"o":"m 660 1001 b 537 1055 631 1001 585 1022 b 494 1079 515 1070 505 1079 b 455 1055 485 1079 476 1071 b 335 1001 418 1028 363 1001 b 311 1022 322 1001 311 1009 b 329 1051 311 1033 319 1040 b 431 1175 365 1090 402 1136 b 498 1221 450 1200 467 1221 b 565 1175 527 1221 544 1201 b 667 1053 590 1141 628 1095 b 685 1022 678 1042 685 1032 b 660 1001 685 1008 673 1001 m 849 528 b 849 353 849 460 849 405 b 490 -24 849 91 712 -24 b 135 371 294 -24 135 83 b 133 803 135 443 134 780 b 60 917 126 884 60 876 b 101 948 60 933 67 948 b 206 944 127 948 173 944 b 310 948 240 944 285 948 b 351 917 342 948 351 933 b 280 803 351 874 287 886 b 276 392 278 784 276 540 b 515 92 276 164 384 92 b 719 200 621 92 688 138 b 751 504 744 249 751 334 b 740 830 751 603 749 805 b 667 919 728 880 667 885 b 707 948 667 939 680 948 b 799 944 740 948 778 944 b 884 948 824 944 853 948 b 921 917 911 948 921 935 b 853 813 921 877 859 883 b 849 528 850 786 849 638 "},"Ü":{"ha":977,"x_min":0,"x_max":0,"o":"m 366 1205 b 447 1127 412 1205 447 1174 b 342 1026 447 1069 400 1026 b 264 1102 294 1026 264 1057 b 366 1205 264 1155 309 1205 m 653 1205 b 734 1127 699 1205 734 1174 b 629 1026 734 1069 687 1026 b 551 1102 581 1026 551 1057 b 653 1205 551 1155 596 1205 m 849 528 b 849 353 849 460 849 405 b 490 -24 849 91 712 -24 b 135 371 294 -24 135 83 b 133 803 135 443 134 780 b 60 917 126 884 60 876 b 101 948 60 933 67 948 b 206 944 127 948 173 944 b 310 948 240 944 285 948 b 351 917 342 948 351 933 b 280 803 351 874 287 886 b 276 392 278 784 276 540 b 515 92 276 164 384 92 b 719 200 621 92 688 138 b 751 504 744 249 751 334 b 740 830 751 603 749 805 b 667 919 728 880 667 885 b 707 948 667 939 680 948 b 799 944 740 948 778 944 b 884 948 824 944 853 948 b 921 917 911 948 921 935 b 853 813 921 877 859 883 b 849 528 850 786 849 638 "},"Ý":{"ha":823,"x_min":0,"x_max":0,"o":"m 347 1063 b 451 1163 387 1093 422 1128 b 540 1221 477 1195 503 1221 b 605 1160 578 1221 605 1197 b 531 1068 605 1118 567 1090 b 347 1001 469 1031 390 1001 b 317 1023 332 1001 317 1008 b 347 1063 317 1036 326 1046 m 489 338 b 496 117 489 224 491 151 b 579 25 505 57 579 65 b 535 -3 579 10 567 -3 b 419 0 508 -3 453 0 b 302 -3 385 0 328 -3 b 258 25 269 -3 258 10 b 342 117 258 65 334 58 b 347 344 346 147 347 241 b 219 607 347 399 297 481 b 81 829 179 673 131 756 b 2 914 46 878 2 880 b 56 948 2 942 29 948 b 161 944 83 948 113 944 b 274 948 209 944 243 948 b 316 916 303 948 316 936 b 263 840 316 888 263 874 b 436 517 263 799 393 574 b 449 509 440 513 444 509 b 460 520 452 509 456 514 b 619 836 515 602 619 800 b 565 917 619 881 565 885 b 608 948 565 933 574 948 b 713 944 631 948 688 944 b 787 948 737 944 765 948 b 822 917 809 948 822 935 b 737 819 822 881 785 888 b 615 604 710 783 670 706 b 489 338 552 491 489 392 "},"Þ":{"ha":871,"x_min":0,"x_max":0,"o":"m 148 803 b 76 919 142 882 76 876 b 118 948 76 934 85 948 b 226 944 141 948 186 944 b 330 948 259 944 304 948 b 376 918 362 948 376 938 b 330 872 376 899 359 891 b 292 808 306 856 292 842 b 310 764 292 777 297 764 b 481 778 328 764 388 778 b 828 503 695 778 828 676 b 453 191 828 337 711 191 b 314 202 370 191 339 202 b 292 142 297 202 292 198 b 343 69 292 105 303 84 b 394 28 371 58 394 50 b 342 -3 394 8 377 -3 b 222 0 316 -3 256 0 b 116 -3 183 0 139 -3 b 72 25 83 -3 72 9 b 144 115 72 62 136 56 b 150 482 149 144 150 380 b 148 803 150 655 150 786 m 673 491 b 438 696 673 624 578 696 b 292 629 357 696 292 685 l 292 340 b 424 273 292 288 324 273 b 673 491 589 273 673 359 "},"ß":{"ha":772,"x_min":0,"x_max":0,"o":"m 110 669 b 123 810 110 740 116 779 b 371 1022 153 944 247 1022 b 575 844 488 1022 575 954 b 430 605 575 699 430 625 b 458 583 430 599 438 594 b 742 247 600 521 742 422 b 483 -9 742 85 628 -9 b 346 55 417 -9 346 23 b 365 74 346 64 352 74 b 432 65 382 74 400 65 b 597 240 535 65 597 138 b 347 535 597 401 449 487 b 319 573 331 544 319 556 b 474 823 319 627 474 690 b 376 931 474 890 438 931 b 242 699 297 931 242 860 l 242 144 b 307 27 242 57 307 67 b 263 -3 307 10 294 -3 b 176 0 246 -3 204 0 b 77 -3 138 0 108 -3 b 33 25 47 -3 33 7 b 70 66 33 47 53 56 b 110 151 106 90 110 122 "},"à":{"ha":744,"x_min":0,"x_max":0,"o":"m 386 835 b 401 801 398 813 401 806 b 376 781 401 788 392 781 b 233 896 348 781 276 836 b 198 980 206 933 198 957 b 254 1038 198 1010 217 1038 b 329 959 301 1038 317 995 b 386 835 341 923 365 872 m 256 369 b 485 406 349 393 469 395 b 497 460 490 410 497 419 b 347 646 497 562 455 646 b 212 520 261 646 225 581 b 162 472 205 489 194 472 b 90 549 131 472 90 494 b 350 711 90 626 187 711 b 633 432 535 711 633 599 b 625 157 633 340 625 214 b 666 95 625 125 636 95 b 702 102 685 95 691 102 b 713 81 706 102 713 97 b 606 -10 713 33 666 -10 b 494 67 552 -10 513 12 b 483 78 492 74 488 78 b 467 64 478 78 472 69 b 259 -17 420 17 344 -17 b 50 156 142 -17 50 46 b 256 369 50 264 131 336 m 497 277 b 483 329 497 315 493 329 b 308 310 410 329 355 324 b 190 178 222 284 190 229 b 309 74 190 110 242 74 b 497 277 415 74 497 151 "},"á":{"ha":744,"x_min":0,"x_max":0,"o":"m 324 835 b 381 959 344 872 368 923 b 456 1038 392 995 408 1038 b 512 980 493 1038 512 1010 b 477 896 512 957 504 933 b 333 781 434 836 362 781 b 309 801 317 781 309 788 b 324 835 309 806 311 813 m 256 369 b 485 406 349 393 469 395 b 497 460 490 410 497 419 b 347 646 497 562 455 646 b 212 520 261 646 225 581 b 162 472 205 489 194 472 b 90 549 131 472 90 494 b 350 711 90 626 187 711 b 633 432 535 711 633 599 b 625 157 633 340 625 214 b 666 95 625 125 636 95 b 702 102 685 95 691 102 b 713 81 706 102 713 97 b 606 -10 713 33 666 -10 b 494 67 552 -10 513 12 b 483 78 492 74 488 78 b 467 64 478 78 472 69 b 259 -17 420 17 344 -17 b 50 156 142 -17 50 46 b 256 369 50 264 131 336 m 497 277 b 483 329 497 315 493 329 b 308 310 410 329 355 324 b 190 178 222 284 190 229 b 309 74 190 110 242 74 b 497 277 415 74 497 151 "},"â":{"ha":744,"x_min":0,"x_max":0,"o":"m 497 780 b 392 850 472 780 434 808 b 357 885 373 870 365 885 b 322 851 349 885 341 870 b 222 780 290 817 247 780 b 203 799 212 780 203 787 b 219 828 203 809 210 818 b 304 981 253 876 283 935 b 360 1030 317 1007 330 1030 b 417 981 388 1030 404 1008 b 501 828 448 910 465 881 b 517 799 510 817 517 808 b 497 780 517 788 508 780 m 256 369 b 485 406 349 393 469 395 b 497 460 490 410 497 419 b 347 646 497 562 455 646 b 212 520 261 646 225 581 b 162 472 205 489 194 472 b 90 549 131 472 90 494 b 350 711 90 626 187 711 b 633 432 535 711 633 599 b 625 157 633 340 625 214 b 666 95 625 125 636 95 b 702 102 685 95 691 102 b 713 81 706 102 713 97 b 606 -10 713 33 666 -10 b 494 67 552 -10 513 12 b 483 78 492 74 488 78 b 467 64 478 78 472 69 b 259 -17 420 17 344 -17 b 50 156 142 -17 50 46 b 256 369 50 264 131 336 m 497 277 b 483 329 497 315 493 329 b 308 310 410 329 355 324 b 190 178 222 284 190 229 b 309 74 190 110 242 74 b 497 277 415 74 497 151 "},"ã":{"ha":744,"x_min":0,"x_max":0,"o":"m 176 860 b 276 967 176 919 219 967 b 445 908 341 967 389 908 b 510 969 500 908 492 969 b 544 907 525 969 544 948 b 441 801 544 843 499 801 b 265 867 369 801 317 867 b 199 810 219 867 217 810 b 176 860 190 810 176 825 m 256 369 b 485 406 349 393 469 395 b 497 460 490 410 497 419 b 347 646 497 562 455 646 b 212 520 261 646 225 581 b 162 472 205 489 194 472 b 90 549 131 472 90 494 b 350 711 90 626 187 711 b 633 432 535 711 633 599 b 625 157 633 340 625 214 b 666 95 625 125 636 95 b 702 102 685 95 691 102 b 713 81 706 102 713 97 b 606 -10 713 33 666 -10 b 494 67 552 -10 513 12 b 483 78 492 74 488 78 b 467 64 478 78 472 69 b 259 -17 420 17 344 -17 b 50 156 142 -17 50 46 b 256 369 50 264 131 336 m 497 277 b 483 329 497 315 493 329 b 308 310 410 329 355 324 b 190 178 222 284 190 229 b 309 74 190 110 242 74 b 497 277 415 74 497 151 "},"ä":{"ha":744,"x_min":0,"x_max":0,"o":"m 253 985 b 331 910 298 985 331 956 b 231 812 331 854 286 812 b 156 885 185 812 156 842 b 253 985 156 937 199 985 m 499 985 b 577 910 543 985 577 956 b 476 812 577 854 532 812 b 401 885 431 812 401 842 b 499 985 401 937 444 985 m 256 369 b 485 406 349 393 469 395 b 497 460 490 410 497 419 b 347 646 497 562 455 646 b 212 520 261 646 225 581 b 162 472 205 489 194 472 b 90 549 131 472 90 494 b 350 711 90 626 187 711 b 633 432 535 711 633 599 b 625 157 633 340 625 214 b 666 95 625 125 636 95 b 702 102 685 95 691 102 b 713 81 706 102 713 97 b 606 -10 713 33 666 -10 b 494 67 552 -10 513 12 b 483 78 492 74 488 78 b 467 64 478 78 472 69 b 259 -17 420 17 344 -17 b 50 156 142 -17 50 46 b 256 369 50 264 131 336 m 497 277 b 483 329 497 315 493 329 b 308 310 410 329 355 324 b 190 178 222 284 190 229 b 309 74 190 110 242 74 b 497 277 415 74 497 151 "},"å":{"ha":744,"x_min":0,"x_max":0,"o":"m 362 1040 b 500 908 440 1040 500 988 b 355 772 500 824 433 772 b 215 903 275 772 215 824 b 362 1040 215 986 282 1040 m 368 985 b 293 908 323 985 293 951 b 363 838 293 868 319 838 b 435 915 409 838 435 875 b 368 985 435 954 410 985 m 256 369 b 485 406 349 393 469 395 b 497 460 490 410 497 419 b 347 646 497 562 455 646 b 212 520 261 646 225 581 b 162 472 205 489 194 472 b 90 549 131 472 90 494 b 350 711 90 626 187 711 b 633 432 535 711 633 599 b 625 157 633 340 625 214 b 666 95 625 125 636 95 b 702 102 685 95 691 102 b 713 81 706 102 713 97 b 606 -10 713 33 666 -10 b 494 67 552 -10 513 12 b 483 78 492 74 488 78 b 467 64 478 78 472 69 b 259 -17 420 17 344 -17 b 50 156 142 -17 50 46 b 256 369 50 264 131 336 m 497 277 b 483 329 497 315 493 329 b 308 310 410 329 355 324 b 190 178 222 284 190 229 b 309 74 190 110 242 74 b 497 277 415 74 497 151 "},"æ":{"ha":1126,"x_min":0,"x_max":0,"o":"m 339 711 b 540 633 428 711 489 688 b 574 600 560 615 567 600 b 602 622 583 600 587 608 b 819 711 657 677 725 711 b 1078 459 978 711 1078 598 b 1035 381 1078 420 1063 397 b 645 316 963 332 754 317 b 628 302 632 315 628 312 b 837 94 628 231 685 94 b 1051 222 947 94 1015 151 b 1074 243 1058 233 1065 243 b 1090 210 1083 243 1090 233 b 803 -15 1090 132 997 -15 b 542 122 682 -15 594 39 b 529 135 538 129 534 135 b 517 122 524 135 522 128 b 255 -17 473 52 397 -17 b 49 156 140 -17 49 46 b 251 367 49 261 122 333 b 473 392 343 390 458 383 b 484 459 479 397 484 413 b 341 646 484 562 446 646 b 210 520 259 646 224 581 b 160 472 204 489 192 472 b 89 549 128 472 89 494 b 339 711 89 626 183 711 m 950 477 b 809 635 950 567 889 635 b 619 408 699 635 619 519 b 638 383 619 390 624 383 b 924 431 677 383 863 396 b 950 477 942 441 950 456 m 486 292 b 436 319 486 313 473 319 b 301 305 389 319 327 313 b 187 177 217 280 187 226 b 303 76 187 108 242 76 b 486 292 415 76 486 165 "},"ç":{"ha":694,"x_min":0,"x_max":0,"o":"m 285 -96 b 321 -11 285 -78 301 -40 b 38 334 153 10 38 147 b 385 711 38 535 170 711 b 627 533 528 711 627 627 b 534 440 627 470 577 440 b 497 500 503 440 507 459 b 356 637 480 578 434 637 b 172 386 254 637 172 535 b 413 104 172 227 260 104 b 622 241 545 104 598 194 b 645 261 628 250 636 261 b 662 226 658 261 662 246 b 385 -14 662 135 567 -6 b 372 -54 379 -27 372 -44 b 406 -70 372 -60 385 -60 b 479 -178 446 -90 479 -123 b 331 -312 479 -260 415 -312 b 208 -242 261 -312 208 -262 b 224 -223 208 -230 215 -223 b 315 -253 240 -223 264 -253 b 382 -194 352 -253 382 -230 b 301 -116 382 -156 350 -127 b 285 -96 292 -114 285 -111 "},"è":{"ha":699,"x_min":0,"x_max":0,"o":"m 410 835 b 425 801 422 813 425 806 b 401 781 425 788 416 781 b 257 896 372 781 300 836 b 222 980 230 933 222 957 b 278 1038 222 1010 241 1038 b 353 959 326 1038 341 995 b 410 835 365 923 390 872 m 606 381 b 206 306 522 327 321 310 b 188 294 192 306 188 303 b 403 94 188 228 247 94 b 622 222 517 94 585 151 b 646 243 628 233 638 243 b 662 210 656 243 662 233 b 369 -15 662 132 568 -15 b 38 333 171 -15 38 130 b 385 711 38 536 177 711 b 651 459 548 711 651 598 b 606 381 651 420 633 397 m 521 478 b 374 635 521 568 457 635 b 177 406 261 635 177 524 b 197 378 177 389 183 378 b 493 431 258 378 429 394 b 521 478 512 442 521 456 "},"é":{"ha":699,"x_min":0,"x_max":0,"o":"m 311 835 b 368 959 332 872 356 923 b 443 1038 380 995 396 1038 b 499 980 481 1038 499 1010 b 465 896 499 957 492 933 b 321 781 422 836 349 781 b 297 801 305 781 297 788 b 311 835 297 806 299 813 m 606 381 b 206 306 522 327 321 310 b 188 294 192 306 188 303 b 403 94 188 228 247 94 b 622 222 517 94 585 151 b 646 243 628 233 638 243 b 662 210 656 243 662 233 b 369 -15 662 132 568 -15 b 38 333 171 -15 38 130 b 385 711 38 536 177 711 b 651 459 548 711 651 598 b 606 381 651 420 633 397 m 521 478 b 374 635 521 568 457 635 b 177 406 261 635 177 524 b 197 378 177 389 183 378 b 493 431 258 378 429 394 b 521 478 512 442 521 456 "},"ê":{"ha":699,"x_min":0,"x_max":0,"o":"m 505 780 b 401 850 481 780 442 808 b 365 885 381 870 373 885 b 330 851 358 885 349 870 b 231 780 298 817 255 780 b 211 799 220 780 211 787 b 227 828 211 809 218 818 b 313 981 261 876 292 935 b 368 1030 326 1007 338 1030 b 425 981 397 1030 413 1008 b 509 828 456 910 473 881 b 525 799 518 817 525 808 b 505 780 525 788 516 780 m 606 381 b 206 306 522 327 321 310 b 188 294 192 306 188 303 b 403 94 188 228 247 94 b 622 222 517 94 585 151 b 646 243 628 233 638 243 b 662 210 656 243 662 233 b 369 -15 662 132 568 -15 b 38 333 171 -15 38 130 b 385 711 38 536 177 711 b 651 459 548 711 651 598 b 606 381 651 420 633 397 m 521 478 b 374 635 521 568 457 635 b 177 406 261 635 177 524 b 197 378 177 389 183 378 b 493 431 258 378 429 394 b 521 478 512 442 521 456 "},"ë":{"ha":699,"x_min":0,"x_max":0,"o":"m 257 985 b 335 910 301 985 335 956 b 234 812 335 854 290 812 b 160 885 189 812 160 842 b 257 985 160 937 203 985 m 503 985 b 581 910 547 985 581 956 b 480 812 581 854 535 812 b 405 885 435 812 405 842 b 503 985 405 937 448 985 m 606 381 b 206 306 522 327 321 310 b 188 294 192 306 188 303 b 403 94 188 228 247 94 b 622 222 517 94 585 151 b 646 243 628 233 638 243 b 662 210 656 243 662 233 b 369 -15 662 132 568 -15 b 38 333 171 -15 38 130 b 385 711 38 536 177 711 b 651 459 548 711 651 598 b 606 381 651 420 633 397 m 521 478 b 374 635 521 568 457 635 b 177 406 261 635 177 524 b 197 378 177 389 183 378 b 493 431 258 378 429 394 b 521 478 512 442 521 456 "},"ì":{"ha":377,"x_min":0,"x_max":0,"o":"m 229 835 b 244 801 241 813 244 806 b 219 781 244 788 235 781 b 76 896 191 781 119 836 b 41 980 49 933 41 957 b 97 1038 41 1010 60 1038 b 172 959 144 1038 160 995 b 229 835 184 923 208 872 m 263 671 b 256 457 263 640 256 587 l 256 144 b 290 68 256 101 269 83 b 331 26 310 53 331 49 b 288 -3 331 10 322 -3 b 192 0 253 -3 230 0 b 88 -3 153 0 144 -3 b 47 25 56 -3 47 10 b 83 66 47 48 70 56 b 123 150 117 90 123 115 l 123 529 b 76 589 123 562 105 579 b 47 620 63 596 47 605 b 114 665 47 648 76 651 b 227 711 176 691 206 711 b 263 671 251 711 263 699 "},"í":{"ha":377,"x_min":0,"x_max":0,"o":"m 129 835 b 186 959 150 872 174 923 b 261 1038 198 995 214 1038 b 317 980 299 1038 317 1010 b 283 896 317 957 310 933 b 139 781 240 836 167 781 b 115 801 123 781 115 788 b 129 835 115 806 117 813 m 263 671 b 256 457 263 640 256 587 l 256 144 b 290 68 256 101 269 83 b 331 26 310 53 331 49 b 288 -3 331 10 322 -3 b 192 0 253 -3 230 0 b 88 -3 153 0 144 -3 b 47 25 56 -3 47 10 b 83 66 47 48 70 56 b 123 150 117 90 123 115 l 123 529 b 76 589 123 562 105 579 b 47 620 63 596 47 605 b 114 665 47 648 76 651 b 227 711 176 691 206 711 b 263 671 251 711 263 699 "},"î":{"ha":377,"x_min":0,"x_max":0,"o":"m 324 780 b 219 850 299 780 261 808 b 184 885 200 870 192 885 b 149 851 176 885 168 870 b 49 780 117 817 74 780 b 30 799 39 780 30 787 b 46 828 30 809 37 818 b 131 981 80 876 110 935 b 187 1030 144 1007 157 1030 b 244 981 215 1030 231 1008 b 328 828 275 910 292 881 b 344 799 337 817 344 808 b 324 780 344 788 335 780 m 263 671 b 256 457 263 640 256 587 l 256 144 b 290 68 256 101 269 83 b 331 26 310 53 331 49 b 288 -3 331 10 322 -3 b 192 0 253 -3 230 0 b 88 -3 153 0 144 -3 b 47 25 56 -3 47 10 b 83 66 47 48 70 56 b 123 150 117 90 123 115 l 123 529 b 76 589 123 562 105 579 b 47 620 63 596 47 605 b 114 665 47 648 76 651 b 227 711 176 691 206 711 b 263 671 251 711 263 699 "},"ï":{"ha":377,"x_min":0,"x_max":0,"o":"m 97 985 b 172 910 139 985 172 956 b 76 813 172 854 130 813 b 3 886 30 813 3 843 b 97 985 3 938 43 985 m 310 985 b 385 910 352 985 385 956 b 289 813 385 854 343 813 b 216 886 243 813 216 843 b 310 985 216 938 256 985 m 263 671 b 256 457 263 640 256 587 l 256 144 b 290 68 256 101 269 83 b 331 26 310 53 331 49 b 288 -3 331 10 322 -3 b 192 0 253 -3 230 0 b 88 -3 153 0 144 -3 b 47 25 56 -3 47 10 b 83 66 47 48 70 56 b 123 150 117 90 123 115 l 123 529 b 76 589 123 562 105 579 b 47 620 63 596 47 605 b 114 665 47 648 76 651 b 227 711 176 691 206 711 b 263 671 251 711 263 699 "},"ð":{"ha":768,"x_min":0,"x_max":0,"o":"m 503 649 b 516 641 508 644 513 641 b 519 645 518 641 519 642 b 515 659 519 650 517 656 b 393 823 486 720 444 776 l 239 749 b 201 736 221 741 211 736 b 176 781 181 736 176 762 b 211 820 176 797 187 808 l 326 876 b 171 949 278 908 226 932 b 131 976 158 953 131 961 b 166 1001 131 995 152 1001 b 418 919 233 1001 327 974 l 551 983 b 590 997 570 993 581 997 b 617 950 610 997 617 968 b 579 910 617 935 604 923 l 491 868 b 581 778 523 842 553 813 b 730 366 667 672 730 529 b 386 -14 730 128 578 -14 b 38 344 173 -14 38 136 b 338 702 38 560 171 702 b 503 649 405 702 462 681 m 363 635 b 182 386 264 635 182 550 b 222 191 182 329 191 253 b 406 71 268 102 342 71 b 594 301 503 71 594 137 b 544 515 594 377 574 457 b 363 635 499 597 430 635 "},"ñ":{"ha":836,"x_min":0,"x_max":0,"o":"m 231 860 b 332 967 231 919 274 967 b 501 908 397 967 444 908 b 566 969 556 908 547 969 b 599 907 581 969 599 948 b 497 801 599 843 554 801 b 321 867 425 801 372 867 b 254 810 274 867 273 810 b 231 860 245 810 231 825 m 735 429 b 715 129 735 290 715 173 b 748 67 715 106 726 81 b 794 26 773 53 794 49 b 748 -3 794 8 783 -3 b 666 0 721 -3 704 0 b 582 -3 628 0 608 -3 b 549 25 557 -3 549 10 b 565 76 549 42 561 65 b 597 397 578 117 597 249 b 439 613 597 542 535 613 b 255 456 348 613 255 522 l 255 144 b 287 68 255 101 266 83 b 328 26 306 53 328 49 b 284 -3 328 10 319 -3 b 190 0 249 -3 224 0 b 87 -3 155 0 127 -3 b 46 25 55 -3 46 10 b 83 66 46 48 69 56 b 122 150 116 90 122 115 l 122 540 b 74 592 122 571 102 583 b 48 620 60 597 48 606 b 115 667 48 647 78 652 b 210 703 163 688 188 703 b 244 670 227 703 238 695 b 265 591 251 633 253 591 b 506 711 278 591 367 711 b 735 429 647 711 735 619 "},"ò":{"ha":767,"x_min":0,"x_max":0,"o":"m 426 835 b 440 801 438 813 440 806 b 416 781 440 788 431 781 b 272 896 388 781 315 836 b 238 980 245 933 238 957 b 294 1038 238 1010 256 1038 b 369 959 341 1038 356 995 b 426 835 381 923 405 872 m 38 344 b 376 711 38 560 180 711 b 730 331 563 711 730 572 b 386 -14 730 101 574 -14 b 38 344 173 -14 38 136 m 363 635 b 182 386 264 635 182 550 b 222 191 182 329 191 253 b 406 71 268 102 342 71 b 590 299 503 71 590 140 b 541 513 590 374 572 455 b 363 635 496 595 430 635 "},"ó":{"ha":767,"x_min":0,"x_max":0,"o":"m 319 835 b 376 959 340 872 364 923 b 451 1038 388 995 404 1038 b 508 980 489 1038 508 1010 b 473 896 508 957 500 933 b 329 781 430 836 358 781 b 305 801 313 781 305 788 b 319 835 305 806 307 813 m 38 344 b 376 711 38 560 180 711 b 730 331 563 711 730 572 b 386 -14 730 101 574 -14 b 38 344 173 -14 38 136 m 363 635 b 182 386 264 635 182 550 b 222 191 182 329 191 253 b 406 71 268 102 342 71 b 590 299 503 71 590 140 b 541 513 590 374 572 455 b 363 635 496 595 430 635 "},"ô":{"ha":767,"x_min":0,"x_max":0,"o":"m 517 780 b 413 850 493 780 455 808 b 378 885 394 870 385 885 b 342 851 370 885 362 870 b 243 780 310 817 267 780 b 224 799 233 780 224 787 b 240 828 224 809 231 818 b 325 981 274 876 304 935 b 381 1030 338 1007 351 1030 b 438 981 409 1030 425 1008 b 522 828 469 910 485 881 b 538 799 531 817 538 808 b 517 780 538 788 528 780 m 38 344 b 376 711 38 560 180 711 b 730 331 563 711 730 572 b 386 -14 730 101 574 -14 b 38 344 173 -14 38 136 m 363 635 b 182 386 264 635 182 550 b 222 191 182 329 191 253 b 406 71 268 102 342 71 b 590 299 503 71 590 140 b 541 513 590 374 572 455 b 363 635 496 595 430 635 "},"õ":{"ha":767,"x_min":0,"x_max":0,"o":"m 198 860 b 299 967 198 919 241 967 b 467 908 363 967 411 908 b 533 969 522 908 514 969 b 566 907 547 969 566 948 b 463 801 566 843 521 801 b 288 867 392 801 339 867 b 221 810 241 867 240 810 b 198 860 212 810 198 825 m 38 344 b 376 711 38 560 180 711 b 730 331 563 711 730 572 b 386 -14 730 101 574 -14 b 38 344 173 -14 38 136 m 363 635 b 182 386 264 635 182 550 b 222 191 182 329 191 253 b 406 71 268 102 342 71 b 590 299 503 71 590 140 b 541 513 590 374 572 455 b 363 635 496 595 430 635 "},"ö":{"ha":767,"x_min":0,"x_max":0,"o":"m 272 985 b 349 910 316 985 349 956 b 249 812 349 854 304 812 b 174 885 203 812 174 842 b 272 985 174 937 217 985 m 517 985 b 595 910 561 985 595 956 b 494 812 595 854 550 812 b 419 885 449 812 419 842 b 517 985 419 937 463 985 m 38 344 b 376 711 38 560 180 711 b 730 331 563 711 730 572 b 386 -14 730 101 574 -14 b 38 344 173 -14 38 136 m 363 635 b 182 386 264 635 182 550 b 222 191 182 329 191 253 b 406 71 268 102 342 71 b 590 299 503 71 590 140 b 541 513 590 374 572 455 b 363 635 496 595 430 635 "},"÷":{"ha":747,"x_min":0,"x_max":0,"o":"m 458 681 b 369 594 458 627 416 594 b 290 672 328 594 290 619 b 378 760 290 726 335 760 b 458 681 419 760 458 733 m 94 403 b 75 426 78 403 75 414 b 85 480 75 442 80 467 b 131 502 91 494 98 502 l 653 502 b 672 480 669 502 672 491 b 663 425 672 462 668 441 b 617 403 657 410 649 403 m 458 230 b 369 144 458 176 416 144 b 290 220 328 144 290 169 b 378 309 290 276 335 309 b 458 230 419 309 458 282 "},"ø":{"ha":767,"x_min":0,"x_max":0,"o":"m 38 344 b 376 711 38 560 180 711 b 544 670 435 711 493 697 l 611 776 b 647 797 621 789 630 797 b 693 764 678 797 693 779 b 683 737 693 758 690 747 l 610 624 b 730 331 682 559 730 460 b 386 -14 730 101 574 -14 b 220 22 324 -14 267 -1 l 156 -78 b 124 -94 151 -87 140 -94 b 78 -63 99 -94 78 -78 b 85 -43 78 -56 83 -47 l 154 65 b 38 344 80 129 38 227 m 363 635 b 180 386 264 635 180 550 b 221 191 180 329 189 253 b 230 174 224 185 227 179 l 486 585 b 363 635 449 619 406 635 m 538 519 l 284 113 b 406 71 322 83 367 71 b 592 298 503 71 592 140 b 542 513 592 374 573 455 "},"ù":{"ha":836,"x_min":0,"x_max":0,"o":"m 453 835 b 467 801 465 813 467 806 b 443 781 467 788 458 781 b 299 896 415 781 342 836 b 265 980 272 933 265 957 b 321 1038 265 1010 283 1038 b 396 959 368 1038 383 995 b 453 835 408 923 432 872 m 707 157 b 749 95 707 125 719 95 b 785 102 768 95 774 102 b 797 81 789 102 797 97 b 689 -10 797 33 749 -10 b 574 70 613 -10 588 38 b 562 83 572 75 569 83 b 543 67 558 83 550 74 b 339 -14 520 47 460 -14 b 105 256 171 -14 105 110 b 118 528 105 365 118 492 b 94 597 118 567 109 581 b 41 647 76 613 41 619 b 88 682 41 668 57 678 b 241 706 182 693 213 706 b 277 669 268 706 277 688 b 243 299 277 618 243 526 b 397 80 243 184 276 80 b 574 291 501 80 574 149 l 574 516 b 533 603 574 559 566 584 b 496 647 517 615 496 624 b 537 681 496 667 510 677 b 690 706 610 688 665 706 b 723 670 711 706 723 692 b 707 479 723 633 707 600 "},"ú":{"ha":836,"x_min":0,"x_max":0,"o":"m 363 835 b 420 959 384 872 408 923 b 495 1038 432 995 448 1038 b 551 980 533 1038 551 1010 b 517 896 551 957 544 933 b 373 781 474 836 401 781 b 349 801 357 781 349 788 b 363 835 349 806 351 813 m 707 157 b 749 95 707 125 719 95 b 785 102 768 95 774 102 b 797 81 789 102 797 97 b 689 -10 797 33 749 -10 b 574 70 613 -10 588 38 b 562 83 572 75 569 83 b 543 67 558 83 550 74 b 339 -14 520 47 460 -14 b 105 256 171 -14 105 110 b 118 528 105 365 118 492 b 94 597 118 567 109 581 b 41 647 76 613 41 619 b 88 682 41 668 57 678 b 241 706 182 693 213 706 b 277 669 268 706 277 688 b 243 299 277 618 243 526 b 397 80 243 184 276 80 b 574 291 501 80 574 149 l 574 516 b 533 603 574 559 566 584 b 496 647 517 615 496 624 b 537 681 496 667 510 677 b 690 706 610 688 665 706 b 723 670 711 706 723 692 b 707 479 723 633 707 600 "},"û":{"ha":836,"x_min":0,"x_max":0,"o":"m 554 780 b 450 850 530 780 492 808 b 415 885 431 870 422 885 b 379 851 407 885 399 870 b 280 780 347 817 304 780 b 260 799 269 780 260 787 b 276 828 260 809 267 818 b 362 981 310 876 341 935 b 417 1030 375 1007 388 1030 b 474 981 446 1030 462 1008 b 558 828 506 910 522 881 b 574 799 567 817 574 808 b 554 780 574 788 565 780 m 707 157 b 749 95 707 125 719 95 b 785 102 768 95 774 102 b 797 81 789 102 797 97 b 689 -10 797 33 749 -10 b 574 70 613 -10 588 38 b 562 83 572 75 569 83 b 543 67 558 83 550 74 b 339 -14 520 47 460 -14 b 105 256 171 -14 105 110 b 118 528 105 365 118 492 b 94 597 118 567 109 581 b 41 647 76 613 41 619 b 88 682 41 668 57 678 b 241 706 182 693 213 706 b 277 669 268 706 277 688 b 243 299 277 618 243 526 b 397 80 243 184 276 80 b 574 291 501 80 574 149 l 574 516 b 533 603 574 559 566 584 b 496 647 517 615 496 624 b 537 681 496 667 510 677 b 690 706 610 688 665 706 b 723 670 711 706 723 692 b 707 479 723 633 707 600 "},"ü":{"ha":836,"x_min":0,"x_max":0,"o":"m 306 985 b 384 910 351 985 384 956 b 283 812 384 854 339 812 b 209 885 238 812 209 842 b 306 985 209 937 252 985 m 552 985 b 630 910 596 985 630 956 b 529 812 630 854 585 812 b 454 885 484 812 454 842 b 552 985 454 937 497 985 m 707 157 b 749 95 707 125 719 95 b 785 102 768 95 774 102 b 797 81 789 102 797 97 b 689 -10 797 33 749 -10 b 574 70 613 -10 588 38 b 562 83 572 75 569 83 b 543 67 558 83 550 74 b 339 -14 520 47 460 -14 b 105 256 171 -14 105 110 b 118 528 105 365 118 492 b 94 597 118 567 109 581 b 41 647 76 613 41 619 b 88 682 41 668 57 678 b 241 706 182 693 213 706 b 277 669 268 706 277 688 b 243 299 277 618 243 526 b 397 80 243 184 276 80 b 574 291 501 80 574 149 l 574 516 b 533 603 574 559 566 584 b 496 647 517 615 496 624 b 537 681 496 667 510 677 b 690 706 610 688 665 706 b 723 670 711 706 723 692 b 707 479 723 633 707 600 "},"ý":{"ha":733,"x_min":0,"x_max":0,"o":"m 338 835 b 395 959 359 872 383 923 b 470 1038 407 995 423 1038 b 526 980 508 1038 526 1010 b 492 896 526 957 519 933 b 348 781 449 836 376 781 b 324 801 332 781 324 788 b 338 835 324 806 326 813 m 640 544 b 465 99 595 438 533 253 b 160 -296 360 -144 292 -296 b 49 -194 97 -296 49 -254 b 128 -97 49 -140 86 -97 b 167 -127 148 -97 160 -110 b 213 -175 178 -153 191 -175 b 315 -28 247 -175 315 -80 b 135 434 315 19 168 357 b 33 623 108 500 72 596 b 1 668 17 635 1 647 b 36 699 1 687 13 699 b 126 696 67 699 94 696 b 232 699 156 696 200 699 b 273 666 256 699 273 695 b 230 590 273 643 230 630 b 303 371 230 564 242 525 b 397 152 356 234 388 152 b 491 386 408 152 440 234 b 543 583 538 522 543 560 b 491 669 543 634 491 638 b 522 699 491 688 503 699 b 612 696 544 699 591 696 b 690 699 636 696 674 699 b 722 672 716 699 722 687 b 640 544 722 632 680 641 "},"þ":{"ha":788,"x_min":0,"x_max":0,"o":"m 104 848 b 56 901 104 878 85 892 b 28 930 43 907 28 915 b 94 976 28 953 49 959 b 208 1021 158 999 182 1021 b 243 981 231 1021 243 1008 b 234 769 243 945 234 893 l 234 624 b 243 587 234 597 238 587 b 476 711 259 587 322 711 b 747 366 636 711 747 581 b 435 -14 747 120 609 -14 b 248 72 310 -14 261 72 b 236 31 238 72 236 60 l 236 -136 b 294 -211 236 -186 271 -199 b 340 -253 316 -222 340 -231 b 295 -283 340 -270 330 -283 b 182 -280 270 -283 220 -280 b 67 -283 143 -280 107 -283 b 27 -255 35 -283 27 -269 b 63 -214 27 -232 50 -223 b 103 -129 97 -189 103 -165 m 426 617 b 235 347 331 617 235 534 b 421 69 235 143 322 69 b 605 344 522 69 605 158 b 426 617 605 528 528 617 "},"ÿ":{"ha":733,"x_min":0,"x_max":0,"o":"m 272 985 b 349 910 316 985 349 956 b 249 812 349 854 304 812 b 174 885 203 812 174 842 b 272 985 174 937 217 985 m 517 985 b 595 910 561 985 595 956 b 494 812 595 854 550 812 b 419 885 449 812 419 842 b 517 985 419 937 463 985 m 640 544 b 465 99 595 438 533 253 b 160 -296 360 -144 292 -296 b 49 -194 97 -296 49 -254 b 128 -97 49 -140 86 -97 b 167 -127 148 -97 160 -110 b 213 -175 178 -153 191 -175 b 315 -28 247 -175 315 -80 b 135 434 315 19 168 357 b 33 623 108 500 72 596 b 1 668 17 635 1 647 b 36 699 1 687 13 699 b 126 696 67 699 94 696 b 232 699 156 696 200 699 b 273 666 256 699 273 695 b 230 590 273 643 230 630 b 303 371 230 564 242 525 b 397 152 356 234 388 152 b 491 386 408 152 440 234 b 543 583 538 522 543 560 b 491 669 543 634 491 638 b 522 699 491 688 503 699 b 612 696 544 699 591 696 b 690 699 636 696 674 699 b 722 672 716 699 722 687 b 640 544 722 632 680 641 "},"Ā":{"ha":915,"x_min":0,"x_max":0,"o":"m 267 1045 b 236 1074 242 1045 236 1058 b 249 1128 236 1091 241 1115 b 308 1151 256 1144 272 1151 l 644 1151 b 676 1125 669 1151 676 1138 b 662 1069 676 1106 669 1083 b 603 1045 653 1053 638 1045 m 343 799 b 372 901 357 836 367 872 b 480 964 377 930 444 964 b 526 917 506 964 515 944 l 823 144 b 881 69 829 128 847 92 b 913 31 894 61 913 49 b 849 -3 913 1 891 -3 b 742 0 819 -3 792 0 b 638 -3 691 0 670 -3 b 591 29 606 -3 591 8 b 665 118 591 62 665 69 b 614 262 665 128 635 224 b 581 281 608 273 599 281 l 282 281 b 244 265 263 281 251 275 b 190 115 223 231 190 134 b 259 27 190 61 259 60 b 213 -3 259 10 248 -3 b 106 0 190 -3 131 0 b 39 -3 79 0 63 -3 b 3 27 15 -3 3 8 b 89 139 3 62 58 60 m 559 369 b 572 380 570 369 572 373 b 442 741 572 399 480 661 b 428 756 439 748 433 756 b 417 742 423 756 419 748 b 281 380 380 665 281 395 b 294 369 281 373 284 369 "},"ā":{"ha":744,"x_min":0,"x_max":0,"o":"m 204 825 b 174 853 180 825 174 838 b 186 905 174 869 179 892 b 244 926 194 919 208 926 l 534 926 b 564 900 559 926 564 913 b 551 848 564 883 558 859 b 493 825 542 833 528 825 m 256 369 b 485 406 349 393 469 395 b 497 460 490 410 497 419 b 347 646 497 562 455 646 b 212 520 261 646 225 581 b 162 472 205 489 194 472 b 90 549 131 472 90 494 b 350 711 90 626 187 711 b 633 432 535 711 633 599 b 625 157 633 340 625 214 b 666 95 625 125 636 95 b 702 102 685 95 691 102 b 713 81 706 102 713 97 b 606 -10 713 33 666 -10 b 494 67 552 -10 513 12 b 483 78 492 74 488 78 b 467 64 478 78 472 69 b 259 -17 420 17 344 -17 b 50 156 142 -17 50 46 b 256 369 50 264 131 336 m 497 277 b 483 329 497 315 493 329 b 308 310 410 329 355 324 b 190 178 222 284 190 229 b 309 74 190 110 242 74 b 497 277 415 74 497 151 "},"Ă":{"ha":915,"x_min":0,"x_max":0,"o":"m 447 1001 b 262 1172 302 1001 262 1107 b 282 1211 262 1195 267 1211 b 310 1176 294 1211 298 1199 b 447 1103 329 1144 367 1103 b 582 1176 528 1103 563 1144 b 611 1211 593 1199 598 1211 b 632 1172 626 1211 632 1195 b 447 1001 632 1107 592 1001 m 343 799 b 372 901 357 836 367 872 b 480 964 377 930 444 964 b 526 917 506 964 515 944 l 823 144 b 881 69 829 128 847 92 b 913 31 894 61 913 49 b 849 -3 913 1 891 -3 b 742 0 819 -3 792 0 b 638 -3 691 0 670 -3 b 591 29 606 -3 591 8 b 665 118 591 62 665 69 b 614 262 665 128 635 224 b 581 281 608 273 599 281 l 282 281 b 244 265 263 281 251 275 b 190 115 223 231 190 134 b 259 27 190 61 259 60 b 213 -3 259 10 248 -3 b 106 0 190 -3 131 0 b 39 -3 79 0 63 -3 b 3 27 15 -3 3 8 b 89 139 3 62 58 60 m 559 369 b 572 380 570 369 572 373 b 442 741 572 399 480 661 b 428 756 439 748 433 756 b 417 742 423 756 419 748 b 281 380 380 665 281 395 b 294 369 281 373 284 369 "},"ă":{"ha":744,"x_min":0,"x_max":0,"o":"m 357 790 b 190 966 227 790 190 902 b 208 1006 190 989 195 1006 b 235 969 220 1006 224 993 b 357 892 252 935 285 892 b 479 969 428 892 463 935 b 506 1006 490 993 494 1006 b 525 966 519 1006 525 989 b 357 790 525 902 487 790 m 256 369 b 485 406 349 393 469 395 b 497 460 490 410 497 419 b 347 646 497 562 455 646 b 212 520 261 646 225 581 b 162 472 205 489 194 472 b 90 549 131 472 90 494 b 350 711 90 626 187 711 b 633 432 535 711 633 599 b 625 157 633 340 625 214 b 666 95 625 125 636 95 b 702 102 685 95 691 102 b 713 81 706 102 713 97 b 606 -10 713 33 666 -10 b 494 67 552 -10 513 12 b 483 78 492 74 488 78 b 467 64 478 78 472 69 b 259 -17 420 17 344 -17 b 50 156 142 -17 50 46 b 256 369 50 264 131 336 m 497 277 b 483 329 497 315 493 329 b 308 310 410 329 355 324 b 190 178 222 284 190 229 b 309 74 190 110 242 74 b 497 277 415 74 497 151 "},"Ą":{"ha":915,"x_min":0,"x_max":0,"o":"m 800 -1 b 665 -156 737 -1 665 -72 b 738 -236 665 -197 689 -236 b 794 -219 761 -236 782 -228 b 817 -206 804 -212 809 -206 b 832 -226 826 -206 832 -216 b 693 -308 832 -254 779 -308 b 547 -177 603 -308 547 -251 b 634 -10 547 -106 599 -46 b 674 73 667 24 674 40 b 615 260 674 104 640 215 b 577 281 608 272 599 281 l 282 281 b 244 265 263 281 251 275 b 190 115 223 231 190 134 b 259 27 190 61 259 60 b 213 -3 259 10 248 -3 b 106 0 190 -3 131 0 b 39 -3 79 0 63 -3 b 3 27 15 -3 3 8 b 89 139 3 62 58 60 l 343 799 b 372 901 357 836 367 872 b 480 964 377 930 444 964 b 526 917 506 964 515 944 l 823 144 b 881 69 829 128 847 92 b 913 31 894 61 913 49 b 865 -3 913 1 888 -3 b 800 -1 846 -3 824 -1 m 559 369 b 572 380 570 369 572 373 b 442 741 572 399 480 661 b 428 756 439 748 433 756 b 417 742 423 756 419 748 b 281 380 380 665 281 395 b 294 369 281 373 284 369 "},"ą":{"ha":744,"x_min":0,"x_max":0,"o":"m 545 3 b 494 67 523 15 505 35 b 483 78 492 74 488 78 b 467 64 478 78 472 69 b 259 -17 420 17 344 -17 b 50 156 142 -17 50 46 b 256 369 50 264 131 336 b 485 406 349 393 469 395 b 497 460 490 410 497 419 b 347 646 497 562 455 646 b 212 520 261 646 225 581 b 162 472 205 489 194 472 b 90 549 131 472 90 494 b 350 711 90 626 187 711 b 633 432 535 711 633 599 b 625 157 633 340 625 214 b 666 95 625 125 636 95 b 702 102 685 95 691 102 b 713 81 706 102 713 97 b 659 1 713 49 697 28 b 527 -167 595 -44 527 -92 b 595 -239 527 -207 551 -239 b 649 -222 618 -239 637 -231 b 672 -208 660 -214 665 -208 b 686 -228 681 -208 686 -217 b 557 -308 686 -256 638 -308 b 418 -183 472 -308 418 -258 b 529 -24 418 -123 458 -70 b 551 -4 542 -15 551 -9 b 545 3 551 -1 549 1 m 497 277 b 483 329 497 315 493 329 b 308 310 410 329 355 324 b 190 178 222 284 190 229 b 309 74 190 110 242 74 b 497 277 415 74 497 151 "},"Ć":{"ha":929,"x_min":0,"x_max":0,"o":"m 417 1063 b 521 1163 456 1093 492 1128 b 610 1221 547 1195 573 1221 b 674 1160 647 1221 674 1197 b 601 1068 674 1118 637 1090 b 417 1001 539 1031 460 1001 b 387 1023 401 1001 387 1008 b 417 1063 387 1036 395 1046 m 48 465 b 489 968 48 730 207 968 b 709 925 602 968 663 925 b 776 938 736 925 756 938 b 834 813 814 938 815 897 b 859 699 850 737 859 715 b 830 665 859 677 847 665 b 762 733 801 665 785 699 b 494 889 697 826 599 889 b 206 513 314 889 206 716 b 546 99 206 278 338 99 b 838 297 705 99 797 204 b 869 330 847 313 856 330 b 890 291 885 330 890 308 b 851 167 890 258 878 212 b 492 -24 796 74 676 -24 b 48 465 213 -24 48 199 "},"ć":{"ha":694,"x_min":0,"x_max":0,"o":"m 310 835 b 367 959 331 872 354 923 b 442 1038 378 995 394 1038 b 498 980 479 1038 498 1010 b 463 896 498 957 490 933 b 319 781 420 836 348 781 b 295 801 303 781 295 788 b 310 835 295 806 297 813 m 38 334 b 385 711 38 535 170 711 b 627 533 528 711 627 627 b 534 440 627 470 577 440 b 497 500 503 440 507 459 b 356 637 480 578 434 637 b 172 386 254 637 172 535 b 413 104 172 227 260 104 b 622 241 545 104 598 194 b 645 261 628 250 636 261 b 662 226 658 261 662 246 b 370 -15 662 133 561 -15 b 38 334 176 -15 38 129 "},"Ĉ":{"ha":929,"x_min":0,"x_max":0,"o":"m 656 1001 b 532 1055 626 1001 580 1022 b 490 1079 510 1070 500 1079 b 450 1055 480 1079 472 1071 b 330 1001 413 1028 358 1001 b 306 1022 317 1001 306 1009 b 324 1051 306 1033 314 1040 b 426 1175 360 1090 397 1136 b 493 1221 445 1200 462 1221 b 560 1175 522 1221 540 1201 b 662 1053 585 1141 623 1095 b 681 1022 673 1042 681 1032 b 656 1001 681 1008 668 1001 m 48 465 b 489 968 48 730 207 968 b 709 925 602 968 663 925 b 776 938 736 925 756 938 b 834 813 814 938 815 897 b 859 699 850 737 859 715 b 830 665 859 677 847 665 b 762 733 801 665 785 699 b 494 889 697 826 599 889 b 206 513 314 889 206 716 b 546 99 206 278 338 99 b 838 297 705 99 797 204 b 869 330 847 313 856 330 b 890 291 885 330 890 308 b 851 167 890 258 878 212 b 492 -24 796 74 676 -24 b 48 465 213 -24 48 199 "},"ĉ":{"ha":694,"x_min":0,"x_max":0,"o":"m 505 780 b 401 850 481 780 442 808 b 365 885 381 870 373 885 b 330 851 358 885 349 870 b 231 780 298 817 255 780 b 211 799 220 780 211 787 b 227 828 211 809 218 818 b 313 981 261 876 292 935 b 368 1030 326 1007 338 1030 b 425 981 397 1030 413 1008 b 509 828 456 910 473 881 b 525 799 518 817 525 808 b 505 780 525 788 516 780 m 38 334 b 385 711 38 535 170 711 b 627 533 528 711 627 627 b 534 440 627 470 577 440 b 497 500 503 440 507 459 b 356 637 480 578 434 637 b 172 386 254 637 172 535 b 413 104 172 227 260 104 b 622 241 545 104 598 194 b 645 261 628 250 636 261 b 662 226 658 261 662 246 b 370 -15 662 133 561 -15 b 38 334 176 -15 38 129 "},"Ċ":{"ha":929,"x_min":0,"x_max":0,"o":"m 520 1207 b 607 1127 569 1207 607 1175 b 496 1024 607 1069 557 1024 b 413 1101 445 1024 413 1056 b 520 1207 413 1156 460 1207 m 48 465 b 489 968 48 730 207 968 b 709 925 602 968 663 925 b 776 938 736 925 756 938 b 834 813 814 938 815 897 b 859 699 850 737 859 715 b 830 665 859 677 847 665 b 762 733 801 665 785 699 b 494 889 697 826 599 889 b 206 513 314 889 206 716 b 546 99 206 278 338 99 b 838 297 705 99 797 204 b 869 330 847 313 856 330 b 890 291 885 330 890 308 b 851 167 890 258 878 212 b 492 -24 796 74 676 -24 b 48 465 213 -24 48 199 "},"ċ":{"ha":694,"x_min":0,"x_max":0,"o":"m 383 989 b 465 910 429 989 465 958 b 360 810 465 853 417 810 b 281 885 312 810 281 841 b 383 989 281 938 326 989 m 38 334 b 385 711 38 535 170 711 b 627 533 528 711 627 627 b 534 440 627 470 577 440 b 497 500 503 440 507 459 b 356 637 480 578 434 637 b 172 386 254 637 172 535 b 413 104 172 227 260 104 b 622 241 545 104 598 194 b 645 261 628 250 636 261 b 662 226 658 261 662 246 b 370 -15 662 133 561 -15 b 38 334 176 -15 38 129 "},"Č":{"ha":929,"x_min":0,"x_max":0,"o":"m 327 1221 b 450 1167 356 1221 402 1201 b 492 1143 472 1152 483 1143 b 532 1167 503 1143 510 1151 b 652 1221 569 1194 624 1221 b 676 1200 666 1221 676 1213 b 658 1171 676 1190 669 1182 b 556 1047 623 1133 585 1086 b 490 1001 537 1022 521 1001 b 423 1047 460 1001 442 1022 b 321 1169 398 1081 360 1127 b 302 1201 310 1181 302 1190 b 327 1221 302 1215 315 1221 m 48 465 b 489 968 48 730 207 968 b 709 925 602 968 663 925 b 776 938 736 925 756 938 b 834 813 814 938 815 897 b 859 699 850 737 859 715 b 830 665 859 677 847 665 b 762 733 801 665 785 699 b 494 889 697 826 599 889 b 206 513 314 889 206 716 b 546 99 206 278 338 99 b 838 297 705 99 797 204 b 869 330 847 313 856 330 b 890 291 885 330 890 308 b 851 167 890 258 878 212 b 492 -24 796 74 676 -24 b 48 465 213 -24 48 199 "},"č":{"ha":694,"x_min":0,"x_max":0,"o":"m 228 1030 b 332 960 252 1030 290 1002 b 367 925 351 940 360 925 b 403 959 375 925 383 940 b 502 1030 435 993 478 1030 b 522 1012 513 1030 522 1024 b 506 981 522 1001 515 992 b 420 829 472 935 441 875 b 365 780 407 803 394 780 b 308 829 336 780 320 802 b 224 981 276 899 260 929 b 208 1012 215 993 208 1002 b 228 1030 208 1022 217 1030 m 38 334 b 385 711 38 535 170 711 b 627 533 528 711 627 627 b 534 440 627 470 577 440 b 497 500 503 440 507 459 b 356 637 480 578 434 637 b 172 386 254 637 172 535 b 413 104 172 227 260 104 b 622 241 545 104 598 194 b 645 261 628 250 636 261 b 662 226 658 261 662 246 b 370 -15 662 133 561 -15 b 38 334 176 -15 38 129 "},"Ď":{"ha":1005,"x_min":0,"x_max":0,"o":"m 302 1221 b 425 1167 331 1221 377 1201 b 467 1143 447 1152 458 1143 b 507 1167 478 1143 485 1151 b 627 1221 544 1194 599 1221 b 651 1200 641 1221 651 1213 b 633 1171 651 1190 644 1182 b 531 1047 598 1133 560 1086 b 465 1001 512 1022 496 1001 b 398 1047 435 1001 417 1022 b 296 1169 373 1081 335 1127 b 277 1201 285 1181 277 1190 b 302 1221 277 1215 290 1221 m 222 944 b 427 949 299 944 352 949 b 957 478 691 949 957 819 b 491 -4 957 177 773 -4 b 222 1 409 -4 317 1 b 116 -3 188 1 142 -3 b 72 25 83 -3 72 10 b 144 115 72 63 137 56 b 150 482 149 144 150 381 b 149 803 150 553 150 780 b 76 917 142 884 76 876 b 117 948 76 933 83 948 b 222 944 143 948 189 944 m 292 158 b 466 80 292 92 317 80 b 799 456 704 80 799 258 b 412 865 799 683 696 865 b 292 791 301 865 292 844 "},"ď":{"ha":922,"x_min":0,"x_max":0,"o":"m 666 -10 b 553 67 614 -10 576 10 b 539 83 549 76 545 83 b 509 57 533 83 526 72 b 321 -14 478 28 418 -14 b 40 331 178 -14 40 98 b 342 711 40 584 181 711 b 540 614 476 711 528 614 b 551 662 547 614 551 622 l 551 846 b 503 901 551 876 531 892 b 473 930 489 907 473 916 b 539 976 473 956 501 961 b 653 1021 602 1001 630 1021 b 689 981 677 1021 689 1008 b 683 765 689 937 683 910 l 683 157 b 725 95 683 125 695 95 b 761 102 744 95 751 102 b 773 81 765 102 773 97 b 666 -10 773 33 725 -10 m 779 763 b 794 949 787 824 788 910 b 857 1021 801 998 824 1021 b 909 950 888 1021 909 997 b 881 829 909 922 899 878 b 795 688 841 727 817 688 b 774 713 780 688 774 697 b 779 763 774 721 776 735 m 371 83 b 553 351 474 83 553 160 b 368 629 553 562 454 629 b 182 356 267 629 182 540 b 371 83 182 190 250 83 "},"Đ":{"ha":1005,"x_min":0,"x_max":0,"o":"m 222 944 b 427 949 299 944 352 949 b 957 478 691 949 957 819 b 491 -4 957 177 773 -4 b 222 1 409 -4 317 1 b 116 -3 188 1 142 -3 b 72 25 83 -3 72 10 b 144 115 72 63 137 56 b 150 440 148 141 149 326 l 37 440 b 10 464 15 440 10 451 b 22 511 10 479 15 499 b 72 530 29 524 41 530 l 150 530 b 149 803 150 622 149 783 b 76 917 142 884 76 876 b 117 948 76 933 83 948 b 222 944 143 948 189 944 m 292 530 l 488 530 b 514 507 509 530 514 519 b 502 460 514 491 509 469 b 451 440 495 447 482 440 l 292 440 l 292 158 b 466 80 292 92 317 80 b 799 456 704 80 799 258 b 412 865 799 683 696 865 b 292 791 301 865 292 844 "},"đ":{"ha":806,"x_min":0,"x_max":0,"o":"m 683 752 l 683 157 b 725 95 683 125 695 95 b 761 102 744 95 751 102 b 773 81 765 102 773 97 b 666 -10 773 33 725 -10 b 553 67 610 -10 574 13 b 539 83 551 74 545 83 b 509 58 533 83 526 72 b 321 -14 478 28 419 -14 b 40 324 178 -14 40 97 b 342 688 40 569 177 688 b 540 599 476 688 528 599 b 551 646 547 599 551 606 l 551 752 l 383 752 b 358 774 363 752 358 763 b 369 811 358 786 363 803 b 416 826 376 820 388 826 l 551 826 l 551 854 b 503 906 551 883 531 897 b 473 933 489 911 473 919 b 538 978 473 959 501 965 b 653 1021 609 1004 629 1021 b 689 981 677 1021 689 1009 b 683 826 689 944 685 920 l 781 826 b 807 806 801 826 807 816 b 796 768 807 792 802 776 b 748 752 788 758 775 752 m 371 83 b 553 342 474 83 553 158 b 369 608 553 544 452 608 b 182 347 267 608 182 526 b 371 83 182 188 250 83 "},"Ē":{"ha":856,"x_min":0,"x_max":0,"o":"m 244 1045 b 213 1074 219 1045 213 1058 b 226 1128 213 1091 218 1115 b 285 1151 233 1144 249 1151 l 622 1151 b 653 1125 647 1151 653 1138 b 639 1069 653 1106 646 1083 b 580 1045 630 1053 615 1045 m 591 404 b 565 353 591 369 585 353 b 529 388 545 353 536 372 b 338 460 503 444 494 460 b 291 412 299 460 291 445 l 291 156 b 449 84 291 90 311 84 b 726 240 638 84 677 111 b 766 287 737 266 751 287 b 792 238 783 287 792 274 b 769 40 792 209 771 72 b 713 -3 767 10 749 -3 b 458 0 687 -3 611 0 b 116 -3 265 0 165 -3 b 72 25 83 -3 72 9 b 144 115 72 62 136 56 b 150 482 149 144 150 380 b 148 803 150 554 150 780 b 76 917 142 883 76 875 b 117 948 76 933 83 948 b 425 944 154 948 210 944 b 684 948 598 944 660 948 b 735 897 715 948 727 940 b 755 759 740 869 747 804 b 763 703 760 735 763 710 b 735 673 763 683 750 673 b 691 728 712 673 701 705 b 444 863 644 842 625 863 b 291 793 310 863 291 855 l 291 592 b 335 544 291 556 299 544 b 535 621 503 544 512 565 b 562 644 542 633 552 644 b 591 581 583 644 591 627 "},"ē":{"ha":699,"x_min":0,"x_max":0,"o":"m 195 825 b 165 853 171 825 165 838 b 177 905 165 869 170 892 b 235 926 185 919 199 926 l 525 926 b 555 900 550 926 555 913 b 542 848 555 883 549 859 b 484 825 533 833 519 825 m 606 381 b 206 306 522 327 321 310 b 188 294 192 306 188 303 b 403 94 188 228 247 94 b 622 222 517 94 585 151 b 646 243 628 233 638 243 b 662 210 656 243 662 233 b 369 -15 662 132 568 -15 b 38 333 171 -15 38 130 b 385 711 38 536 177 711 b 651 459 548 711 651 598 b 606 381 651 420 633 397 m 521 478 b 374 635 521 568 457 635 b 177 406 261 635 177 524 b 197 378 177 389 183 378 b 493 431 258 378 429 394 b 521 478 512 442 521 456 "},"Ĕ":{"ha":856,"x_min":0,"x_max":0,"o":"m 433 1001 b 248 1172 288 1001 248 1107 b 268 1211 248 1195 253 1211 b 296 1176 281 1211 284 1199 b 433 1103 315 1144 353 1103 b 568 1176 514 1103 549 1144 b 597 1211 579 1199 584 1211 b 618 1172 612 1211 618 1195 b 433 1001 618 1107 578 1001 m 591 404 b 565 353 591 369 585 353 b 529 388 545 353 536 372 b 338 460 503 444 494 460 b 291 412 299 460 291 445 l 291 156 b 449 84 291 90 311 84 b 726 240 638 84 677 111 b 766 287 737 266 751 287 b 792 238 783 287 792 274 b 769 40 792 209 771 72 b 713 -3 767 10 749 -3 b 458 0 687 -3 611 0 b 116 -3 265 0 165 -3 b 72 25 83 -3 72 9 b 144 115 72 62 136 56 b 150 482 149 144 150 380 b 148 803 150 554 150 780 b 76 917 142 883 76 875 b 117 948 76 933 83 948 b 425 944 154 948 210 944 b 684 948 598 944 660 948 b 735 897 715 948 727 940 b 755 759 740 869 747 804 b 763 703 760 735 763 710 b 735 673 763 683 750 673 b 691 728 712 673 701 705 b 444 863 644 842 625 863 b 291 793 310 863 291 855 l 291 592 b 335 544 291 556 299 544 b 535 621 503 544 512 565 b 562 644 542 633 552 644 b 591 581 583 644 591 627 "},"ĕ":{"ha":699,"x_min":0,"x_max":0,"o":"m 366 790 b 199 966 236 790 199 902 b 217 1006 199 989 204 1006 b 244 969 229 1006 233 993 b 366 892 261 935 294 892 b 488 969 438 892 472 935 b 515 1006 499 993 503 1006 b 534 966 528 1006 534 989 b 366 790 534 902 496 790 m 606 381 b 206 306 522 327 321 310 b 188 294 192 306 188 303 b 403 94 188 228 247 94 b 622 222 517 94 585 151 b 646 243 628 233 638 243 b 662 210 656 243 662 233 b 369 -15 662 132 568 -15 b 38 333 171 -15 38 130 b 385 711 38 536 177 711 b 651 459 548 711 651 598 b 606 381 651 420 633 397 m 521 478 b 374 635 521 568 457 635 b 177 406 261 635 177 524 b 197 378 177 389 183 378 b 493 431 258 378 429 394 b 521 478 512 442 521 456 "},"Ė":{"ha":856,"x_min":0,"x_max":0,"o":"m 444 1207 b 531 1127 493 1207 531 1175 b 419 1024 531 1069 481 1024 b 336 1101 369 1024 336 1056 b 444 1207 336 1156 383 1207 m 591 404 b 565 353 591 369 585 353 b 529 388 545 353 536 372 b 338 460 503 444 494 460 b 291 412 299 460 291 445 l 291 156 b 449 84 291 90 311 84 b 726 240 638 84 677 111 b 766 287 737 266 751 287 b 792 238 783 287 792 274 b 769 40 792 209 771 72 b 713 -3 767 10 749 -3 b 458 0 687 -3 611 0 b 116 -3 265 0 165 -3 b 72 25 83 -3 72 9 b 144 115 72 62 136 56 b 150 482 149 144 150 380 b 148 803 150 554 150 780 b 76 917 142 883 76 875 b 117 948 76 933 83 948 b 425 944 154 948 210 944 b 684 948 598 944 660 948 b 735 897 715 948 727 940 b 755 759 740 869 747 804 b 763 703 760 735 763 710 b 735 673 763 683 750 673 b 691 728 712 673 701 705 b 444 863 644 842 625 863 b 291 793 310 863 291 855 l 291 592 b 335 544 291 556 299 544 b 535 621 503 544 512 565 b 562 644 542 633 552 644 b 591 581 583 644 591 627 "},"ė":{"ha":699,"x_min":0,"x_max":0,"o":"m 378 989 b 460 910 424 989 460 958 b 355 810 460 853 413 810 b 276 885 307 810 276 841 b 378 989 276 938 322 989 m 606 381 b 206 306 522 327 321 310 b 188 294 192 306 188 303 b 403 94 188 228 247 94 b 622 222 517 94 585 151 b 646 243 628 233 638 243 b 662 210 656 243 662 233 b 369 -15 662 132 568 -15 b 38 333 171 -15 38 130 b 385 711 38 536 177 711 b 651 459 548 711 651 598 b 606 381 651 420 633 397 m 521 478 b 374 635 521 568 457 635 b 177 406 261 635 177 524 b 197 378 177 389 183 378 b 493 431 258 378 429 394 b 521 478 512 442 521 456 "},"Ę":{"ha":856,"x_min":0,"x_max":0,"o":"m 592 -16 b 601 -7 596 -14 601 -10 b 458 0 601 -1 590 0 b 116 -3 265 0 165 -3 b 72 25 83 -3 72 9 b 144 115 72 62 136 56 b 150 482 149 144 150 380 b 148 803 150 554 150 780 b 76 917 142 883 76 875 b 117 948 76 933 83 948 b 425 944 154 948 210 944 b 684 948 598 944 660 948 b 735 897 715 948 727 940 b 755 759 740 869 747 804 b 763 703 760 735 763 710 b 735 673 763 683 750 673 b 691 728 712 673 701 705 b 444 863 644 842 625 863 b 291 793 310 863 291 855 l 291 592 b 335 544 291 556 299 544 b 535 621 503 544 512 565 b 562 644 542 633 552 644 b 591 581 583 644 591 627 l 591 404 b 565 353 591 369 585 353 b 529 388 545 353 536 372 b 338 460 503 444 494 460 b 291 412 299 460 291 445 l 291 156 b 449 84 291 90 311 84 b 726 240 638 84 677 111 b 766 287 737 266 751 287 b 792 238 783 287 792 274 b 769 40 792 209 773 87 b 706 -17 765 6 748 5 b 588 -164 633 -56 588 -108 b 659 -236 588 -206 612 -236 b 715 -219 682 -236 703 -228 b 738 -207 726 -212 731 -207 b 753 -226 748 -207 753 -216 b 616 -308 753 -254 701 -308 b 471 -181 528 -308 471 -257 b 592 -16 471 -110 533 -51 "},"ę":{"ha":699,"x_min":0,"x_max":0,"o":"m 363 -58 b 399 -19 378 -40 399 -26 b 366 -15 399 -15 376 -15 b 38 333 170 -12 38 130 b 385 711 38 536 177 711 b 651 459 548 711 651 598 b 606 381 651 420 633 397 b 206 306 522 327 321 310 b 188 294 192 306 188 303 b 403 94 188 228 247 94 b 622 222 517 94 585 151 b 646 243 628 233 638 243 b 662 210 656 243 662 233 b 513 0 662 131 578 55 b 410 -167 454 -53 410 -114 b 478 -239 410 -207 433 -239 b 532 -222 501 -239 519 -231 b 555 -208 542 -214 547 -208 b 569 -228 564 -208 569 -217 b 440 -308 569 -256 520 -308 b 301 -183 355 -308 301 -258 b 363 -58 301 -137 326 -94 m 521 478 b 374 635 521 568 457 635 b 177 406 261 635 177 524 b 197 378 177 389 183 378 b 493 431 258 378 429 394 b 521 478 512 442 521 456 "},"Ě":{"ha":856,"x_min":0,"x_max":0,"o":"m 274 1221 b 397 1167 303 1221 349 1201 b 440 1143 419 1152 430 1143 b 479 1167 450 1143 458 1151 b 599 1221 517 1194 572 1221 b 624 1200 613 1221 624 1213 b 606 1171 624 1190 616 1182 b 503 1047 570 1133 532 1086 b 437 1001 484 1022 468 1001 b 370 1047 407 1001 390 1022 b 268 1169 345 1081 307 1127 b 249 1201 257 1181 249 1190 b 274 1221 249 1215 262 1221 m 591 404 b 565 353 591 369 585 353 b 529 388 545 353 536 372 b 338 460 503 444 494 460 b 291 412 299 460 291 445 l 291 156 b 449 84 291 90 311 84 b 726 240 638 84 677 111 b 766 287 737 266 751 287 b 792 238 783 287 792 274 b 769 40 792 209 771 72 b 713 -3 767 10 749 -3 b 458 0 687 -3 611 0 b 116 -3 265 0 165 -3 b 72 25 83 -3 72 9 b 144 115 72 62 136 56 b 150 482 149 144 150 380 b 148 803 150 554 150 780 b 76 917 142 883 76 875 b 117 948 76 933 83 948 b 425 944 154 948 210 944 b 684 948 598 944 660 948 b 735 897 715 948 727 940 b 755 759 740 869 747 804 b 763 703 760 735 763 710 b 735 673 763 683 750 673 b 691 728 712 673 701 705 b 444 863 644 842 625 863 b 291 793 310 863 291 855 l 291 592 b 335 544 291 556 299 544 b 535 621 503 544 512 565 b 562 644 542 633 552 644 b 591 581 583 644 591 627 "},"ě":{"ha":699,"x_min":0,"x_max":0,"o":"m 226 1030 b 330 960 250 1030 288 1002 b 365 925 349 940 358 925 b 401 959 373 925 381 940 b 500 1030 433 993 476 1030 b 519 1012 510 1030 519 1024 b 503 981 519 1001 513 992 b 418 829 469 935 439 875 b 363 780 405 803 392 780 b 306 829 334 780 318 802 b 222 981 274 899 258 929 b 206 1012 213 993 206 1002 b 226 1030 206 1022 215 1030 m 606 381 b 206 306 522 327 321 310 b 188 294 192 306 188 303 b 403 94 188 228 247 94 b 622 222 517 94 585 151 b 646 243 628 233 638 243 b 662 210 656 243 662 233 b 369 -15 662 132 568 -15 b 38 333 171 -15 38 130 b 385 711 38 536 177 711 b 651 459 548 711 651 598 b 606 381 651 420 633 397 m 521 478 b 374 635 521 568 457 635 b 177 406 261 635 177 524 b 197 378 177 389 183 378 b 493 431 258 378 429 394 b 521 478 512 442 521 456 "},"Ĝ":{"ha":996,"x_min":0,"x_max":0,"o":"m 660 1001 b 537 1055 631 1001 585 1022 b 494 1079 515 1070 505 1079 b 455 1055 485 1079 476 1071 b 335 1001 418 1028 363 1001 b 311 1022 322 1001 311 1009 b 329 1051 311 1033 319 1040 b 431 1175 365 1090 402 1136 b 498 1221 450 1200 467 1221 b 565 1175 527 1221 544 1201 b 667 1053 590 1141 628 1095 b 685 1022 678 1042 685 1032 b 660 1001 685 1008 673 1001 m 489 -24 b 48 465 217 -24 48 199 b 489 968 48 730 207 968 b 709 925 602 968 663 925 b 776 938 736 925 756 938 b 834 813 814 938 815 897 b 859 699 850 737 859 715 b 830 665 859 677 847 665 b 762 733 801 665 785 699 b 494 889 697 826 599 889 b 203 506 314 889 203 711 b 531 88 203 260 344 88 b 730 174 620 88 703 132 b 754 302 751 208 754 228 b 700 445 754 430 739 425 b 629 491 674 460 629 458 b 680 526 629 514 646 526 b 792 523 713 526 763 523 b 899 526 831 523 855 526 b 937 494 924 526 937 513 b 894 347 937 453 894 465 b 895 44 894 283 895 83 b 860 -6 895 14 888 -6 b 817 34 845 -6 831 6 b 782 69 806 51 795 69 b 709 33 768 69 744 51 b 489 -24 657 8 579 -24 "},"ĝ":{"ha":775,"x_min":0,"x_max":0,"o":"m 509 780 b 405 850 485 780 447 808 b 369 885 385 870 377 885 b 334 851 362 885 353 870 b 235 780 302 817 259 780 b 215 799 224 780 215 787 b 231 828 215 809 222 818 b 317 981 265 876 296 935 b 372 1030 330 1007 342 1030 b 429 981 401 1030 417 1008 b 513 828 460 910 477 881 b 529 799 522 817 529 808 b 509 780 529 788 520 780 m 353 710 b 579 681 443 710 525 681 b 732 710 698 681 704 710 b 753 674 746 710 753 695 b 738 614 753 654 747 628 b 694 585 730 601 717 585 b 594 599 647 585 609 599 b 588 592 589 599 588 596 b 633 465 588 581 633 542 b 350 224 633 313 510 224 b 264 229 324 224 290 229 b 169 156 220 229 169 204 b 273 88 169 115 208 88 b 501 104 324 88 423 104 b 717 -65 624 104 717 62 b 301 -312 717 -213 524 -312 b 15 -148 108 -312 15 -249 b 128 -8 15 -83 69 -31 b 139 1 136 -5 139 -2 b 130 10 139 4 135 7 b 57 126 109 20 57 58 b 163 259 57 175 94 231 b 174 268 168 262 174 265 b 165 280 174 272 171 276 b 73 464 124 312 73 371 b 353 710 73 626 203 710 m 209 476 b 359 304 209 362 279 304 b 505 456 440 304 505 355 b 353 635 505 525 470 635 b 209 476 271 635 209 572 m 564 -102 b 441 -16 564 -43 513 -16 b 247 -33 375 -16 281 -25 b 131 -137 177 -50 131 -90 b 315 -232 131 -206 213 -232 b 564 -102 458 -232 564 -176 "},"Ğ":{"ha":996,"x_min":0,"x_max":0,"o":"m 497 1001 b 313 1172 353 1001 313 1107 b 333 1211 313 1195 318 1211 b 360 1176 345 1211 349 1199 b 497 1103 380 1144 418 1103 b 633 1176 578 1103 614 1144 b 662 1211 644 1199 649 1211 b 683 1172 676 1211 683 1195 b 497 1001 683 1107 643 1001 m 489 -24 b 48 465 217 -24 48 199 b 489 968 48 730 207 968 b 709 925 602 968 663 925 b 776 938 736 925 756 938 b 834 813 814 938 815 897 b 859 699 850 737 859 715 b 830 665 859 677 847 665 b 762 733 801 665 785 699 b 494 889 697 826 599 889 b 203 506 314 889 203 711 b 531 88 203 260 344 88 b 730 174 620 88 703 132 b 754 302 751 208 754 228 b 700 445 754 430 739 425 b 629 491 674 460 629 458 b 680 526 629 514 646 526 b 792 523 713 526 763 523 b 899 526 831 523 855 526 b 937 494 924 526 937 513 b 894 347 937 453 894 465 b 895 44 894 283 895 83 b 860 -6 895 14 888 -6 b 817 34 845 -6 831 6 b 782 69 806 51 795 69 b 709 33 768 69 744 51 b 489 -24 657 8 579 -24 "},"ğ":{"ha":775,"x_min":0,"x_max":0,"o":"m 363 790 b 195 966 233 790 195 902 b 214 1006 195 989 201 1006 b 240 969 226 1006 230 993 b 363 892 258 935 291 892 b 485 969 434 892 468 935 b 511 1006 495 993 499 1006 b 531 966 524 1006 531 989 b 363 790 531 902 492 790 m 353 710 b 579 681 443 710 525 681 b 732 710 698 681 704 710 b 753 674 746 710 753 695 b 738 614 753 654 747 628 b 694 585 730 601 717 585 b 594 599 647 585 609 599 b 588 592 589 599 588 596 b 633 465 588 581 633 542 b 350 224 633 313 510 224 b 264 229 324 224 290 229 b 169 156 220 229 169 204 b 273 88 169 115 208 88 b 501 104 324 88 423 104 b 717 -65 624 104 717 62 b 301 -312 717 -213 524 -312 b 15 -148 108 -312 15 -249 b 128 -8 15 -83 69 -31 b 139 1 136 -5 139 -2 b 130 10 139 4 135 7 b 57 126 109 20 57 58 b 163 259 57 175 94 231 b 174 268 168 262 174 265 b 165 280 174 272 171 276 b 73 464 124 312 73 371 b 353 710 73 626 203 710 m 209 476 b 359 304 209 362 279 304 b 505 456 440 304 505 355 b 353 635 505 525 470 635 b 209 476 271 635 209 572 m 564 -102 b 441 -16 564 -43 513 -16 b 247 -33 375 -16 281 -25 b 131 -137 177 -50 131 -90 b 315 -232 131 -206 213 -232 b 564 -102 458 -232 564 -176 "},"Ġ":{"ha":996,"x_min":0,"x_max":0,"o":"m 514 1207 b 601 1127 563 1207 601 1175 b 490 1024 601 1069 551 1024 b 406 1101 439 1024 406 1056 b 514 1207 406 1156 453 1207 m 489 -24 b 48 465 217 -24 48 199 b 489 968 48 730 207 968 b 709 925 602 968 663 925 b 776 938 736 925 756 938 b 834 813 814 938 815 897 b 859 699 850 737 859 715 b 830 665 859 677 847 665 b 762 733 801 665 785 699 b 494 889 697 826 599 889 b 203 506 314 889 203 711 b 531 88 203 260 344 88 b 730 174 620 88 703 132 b 754 302 751 208 754 228 b 700 445 754 430 739 425 b 629 491 674 460 629 458 b 680 526 629 514 646 526 b 792 523 713 526 763 523 b 899 526 831 523 855 526 b 937 494 924 526 937 513 b 894 347 937 453 894 465 b 895 44 894 283 895 83 b 860 -6 895 14 888 -6 b 817 34 845 -6 831 6 b 782 69 806 51 795 69 b 709 33 768 69 744 51 b 489 -24 657 8 579 -24 "},"ġ":{"ha":775,"x_min":0,"x_max":0,"o":"m 387 989 b 468 910 433 989 468 958 b 363 810 468 853 421 810 b 285 885 315 810 285 841 b 387 989 285 938 330 989 m 353 710 b 579 681 443 710 525 681 b 732 710 698 681 704 710 b 753 674 746 710 753 695 b 738 614 753 654 747 628 b 694 585 730 601 717 585 b 594 599 647 585 609 599 b 588 592 589 599 588 596 b 633 465 588 581 633 542 b 350 224 633 313 510 224 b 264 229 324 224 290 229 b 169 156 220 229 169 204 b 273 88 169 115 208 88 b 501 104 324 88 423 104 b 717 -65 624 104 717 62 b 301 -312 717 -213 524 -312 b 15 -148 108 -312 15 -249 b 128 -8 15 -83 69 -31 b 139 1 136 -5 139 -2 b 130 10 139 4 135 7 b 57 126 109 20 57 58 b 163 259 57 175 94 231 b 174 268 168 262 174 265 b 165 280 174 272 171 276 b 73 464 124 312 73 371 b 353 710 73 626 203 710 m 209 476 b 359 304 209 362 279 304 b 505 456 440 304 505 355 b 353 635 505 525 470 635 b 209 476 271 635 209 572 m 564 -102 b 441 -16 564 -43 513 -16 b 247 -33 375 -16 281 -25 b 131 -137 177 -50 131 -90 b 315 -232 131 -206 213 -232 b 564 -102 458 -232 564 -176 "},"Ģ":{"ha":996,"x_min":0,"x_max":0,"o":"m 489 -24 b 48 465 217 -24 48 199 b 489 968 48 730 207 968 b 709 925 602 968 663 925 b 776 938 736 925 756 938 b 834 813 814 938 815 897 b 859 699 850 737 859 715 b 830 665 859 677 847 665 b 762 733 801 665 785 699 b 494 889 697 826 599 889 b 203 506 314 889 203 711 b 531 88 203 260 344 88 b 730 174 620 88 703 132 b 754 302 751 208 754 228 b 700 445 754 430 739 425 b 629 491 674 460 629 458 b 680 526 629 514 646 526 b 792 523 713 526 763 523 b 899 526 831 523 855 526 b 937 494 924 526 937 513 b 894 347 937 453 894 465 b 895 44 894 283 895 83 b 860 -6 895 14 888 -6 b 817 34 845 -6 831 6 b 782 69 806 51 795 69 b 709 33 768 69 744 51 b 489 -24 657 8 579 -24 m 444 -335 b 426 -317 433 -335 426 -327 b 469 -215 426 -297 469 -266 b 417 -123 469 -196 417 -173 b 488 -55 417 -80 451 -55 b 567 -146 538 -55 567 -91 b 444 -335 567 -243 485 -335 "},"ģ":{"ha":775,"x_min":0,"x_max":0,"o":"m 407 1052 b 425 1034 419 1052 425 1044 b 383 932 425 1014 383 983 b 434 840 383 913 434 890 b 363 772 434 797 400 772 b 284 863 314 772 284 808 b 407 1052 284 960 367 1052 m 353 710 b 579 681 443 710 525 681 b 732 710 698 681 704 710 b 753 674 746 710 753 695 b 738 614 753 654 747 628 b 694 585 730 601 717 585 b 594 599 647 585 609 599 b 588 592 589 599 588 596 b 633 465 588 581 633 542 b 350 224 633 313 510 224 b 264 229 324 224 290 229 b 169 156 220 229 169 204 b 273 88 169 115 208 88 b 501 104 324 88 423 104 b 717 -65 624 104 717 62 b 301 -312 717 -213 524 -312 b 15 -148 108 -312 15 -249 b 128 -8 15 -83 69 -31 b 139 1 136 -5 139 -2 b 130 10 139 4 135 7 b 57 126 109 20 57 58 b 163 259 57 175 94 231 b 174 268 168 262 174 265 b 165 280 174 272 171 276 b 73 464 124 312 73 371 b 353 710 73 626 203 710 m 209 476 b 359 304 209 362 279 304 b 505 456 440 304 505 355 b 353 635 505 525 470 635 b 209 476 271 635 209 572 m 564 -102 b 441 -16 564 -43 513 -16 b 247 -33 375 -16 281 -25 b 131 -137 177 -50 131 -90 b 315 -232 131 -206 213 -232 b 564 -102 458 -232 564 -176 "},"Ĥ":{"ha":1016,"x_min":0,"x_max":0,"o":"m 670 1001 b 547 1055 641 1001 594 1022 b 504 1079 525 1070 515 1079 b 465 1055 494 1079 486 1071 b 344 1001 428 1028 373 1001 b 321 1022 331 1001 321 1009 b 339 1051 321 1033 328 1040 b 441 1175 374 1090 412 1136 b 508 1221 460 1200 476 1221 b 574 1175 537 1221 554 1201 b 676 1053 599 1141 638 1095 b 695 1022 688 1042 695 1032 b 670 1001 695 1008 683 1001 m 900 948 b 940 917 932 948 940 933 b 869 803 940 874 874 886 b 866 482 867 782 866 615 b 873 115 866 335 867 149 b 944 25 881 55 944 63 b 900 -3 944 10 932 -3 b 797 0 874 -3 829 0 b 690 -3 762 0 716 -3 b 646 25 658 -3 646 10 b 719 115 646 63 710 56 b 724 414 721 134 724 312 b 688 457 724 444 715 457 l 328 457 b 291 414 303 457 291 447 b 299 115 291 308 295 139 b 370 25 308 55 370 63 b 326 -3 370 10 358 -3 b 222 0 300 -3 256 0 b 116 -3 188 0 142 -3 b 72 25 83 -3 72 10 b 144 115 72 63 137 56 b 150 482 149 144 150 381 b 149 803 150 553 150 780 b 76 917 142 884 76 876 b 117 948 76 933 83 948 b 222 944 143 948 189 944 b 326 948 256 944 301 948 b 367 917 358 948 367 933 b 299 823 367 878 310 885 b 291 595 294 810 291 667 b 329 547 291 558 301 547 l 686 547 b 724 595 713 547 724 558 b 718 823 724 672 722 812 b 649 917 710 881 649 880 b 691 948 649 933 658 948 b 797 944 717 948 763 944 b 900 948 830 944 875 948 "},"ĥ":{"ha":836,"x_min":0,"x_max":0,"o":"m 335 1006 b 223 1063 309 1006 268 1027 b 184 1091 202 1079 193 1091 b 147 1063 176 1091 167 1079 b 40 1006 112 1035 65 1006 b 19 1024 28 1006 19 1013 b 35 1050 19 1033 26 1040 b 129 1176 71 1090 103 1138 b 187 1221 144 1200 158 1221 b 246 1177 215 1221 231 1201 b 340 1051 275 1128 302 1095 b 357 1024 349 1041 357 1033 b 335 1006 357 1013 346 1006 m 123 847 b 76 899 123 876 103 890 b 48 928 62 905 48 914 b 114 973 48 953 76 958 b 226 1013 181 1000 203 1013 b 262 973 250 1013 262 1001 b 251 610 262 944 251 831 b 261 583 251 588 256 583 b 507 711 274 583 356 711 b 736 429 648 711 736 619 b 716 129 736 290 716 173 b 749 67 716 106 727 81 b 795 26 774 53 795 49 b 749 -3 795 8 783 -3 b 667 0 722 -3 706 0 b 583 -3 629 0 610 -3 b 551 25 558 -3 551 10 b 566 76 551 42 562 65 b 597 397 578 117 597 249 b 440 613 597 542 537 613 b 256 456 349 613 256 522 l 256 144 b 288 68 256 101 267 83 b 329 26 308 53 329 49 b 285 -3 329 10 320 -3 b 192 0 251 -3 230 0 b 88 -3 153 0 144 -3 b 47 25 56 -3 47 10 b 83 66 47 48 70 56 b 123 150 117 90 123 115 "},"Ħ":{"ha":1016,"x_min":0,"x_max":0,"o":"m 900 948 b 940 917 932 948 940 933 b 869 803 940 874 874 886 b 867 750 868 797 867 777 l 951 750 b 977 727 973 750 977 740 b 966 680 977 711 972 690 b 915 660 958 667 945 660 l 866 660 l 866 482 b 873 115 866 335 867 149 b 944 25 881 55 944 63 b 900 -3 944 10 932 -3 b 797 0 874 -3 829 0 b 690 -3 762 0 716 -3 b 646 25 658 -3 646 10 b 719 115 646 63 709 56 b 724 404 722 134 724 312 b 688 444 724 432 715 444 l 328 444 b 291 404 303 444 291 435 b 299 115 291 307 294 139 b 370 25 312 53 370 63 b 326 -3 370 10 358 -3 b 222 0 300 -3 256 0 b 116 -3 188 0 142 -3 b 72 25 83 -3 72 10 b 144 115 72 63 137 56 b 150 482 149 144 150 381 l 150 660 l 67 660 b 40 685 45 660 40 672 b 51 731 40 699 46 719 b 102 750 59 744 71 750 l 149 750 b 149 803 149 776 149 797 b 76 917 142 884 76 876 b 117 948 76 933 83 948 b 222 944 143 948 189 944 b 326 948 256 944 301 948 b 367 917 358 948 367 933 b 299 823 367 878 310 885 b 294 750 297 817 295 788 l 722 750 b 718 823 721 788 719 818 b 649 917 710 881 649 880 b 691 948 649 933 658 948 b 797 944 717 948 763 944 b 900 948 830 944 875 948 m 724 595 b 724 660 724 614 724 637 l 291 660 l 291 595 b 329 534 291 549 301 534 l 686 534 b 724 595 713 534 724 549 "},"ħ":{"ha":837,"x_min":0,"x_max":0,"o":"m 251 752 b 250 601 251 707 250 656 b 260 570 250 575 254 570 b 508 697 274 570 358 697 b 735 420 651 697 735 600 b 716 129 735 285 716 172 b 749 67 716 106 727 81 b 795 26 774 53 795 49 b 749 -3 795 8 783 -3 b 667 0 722 -3 706 0 b 583 -3 629 0 610 -3 b 551 25 558 -3 551 10 b 566 75 551 42 562 64 b 597 385 578 115 597 241 b 438 601 597 529 534 601 b 256 447 347 601 256 511 l 256 143 b 288 68 256 101 267 83 b 329 26 308 53 329 49 b 285 -3 329 10 320 -3 b 192 0 251 -3 230 0 b 88 -3 153 0 144 -3 b 47 25 56 -3 47 10 b 83 65 47 47 69 56 b 123 149 117 90 123 115 l 123 752 l 23 752 b -2 774 3 752 -2 763 b 9 811 -2 786 3 803 b 56 826 15 820 28 826 l 123 826 l 123 854 b 76 906 123 883 106 897 b 47 933 61 911 47 920 b 113 978 47 959 76 965 b 226 1021 181 1003 201 1021 b 262 981 250 1021 262 1008 b 254 826 262 964 258 910 l 422 826 b 447 806 442 826 447 816 b 436 768 447 792 442 776 b 388 752 428 758 415 752 "},"Ĩ":{"ha":442,"x_min":0,"x_max":0,"o":"m 17 1086 b 129 1194 17 1148 65 1194 b 316 1137 201 1194 254 1137 b 388 1197 377 1137 368 1197 b 426 1132 404 1197 426 1175 b 312 1024 426 1068 376 1024 b 117 1091 232 1024 174 1091 b 42 1034 65 1091 63 1034 b 17 1086 33 1034 17 1049 m 326 948 b 367 917 358 948 367 933 b 295 803 367 874 301 886 b 292 482 293 782 292 615 b 299 115 292 335 294 149 b 370 25 308 55 370 63 b 326 -3 370 10 358 -3 b 222 0 300 -3 256 0 b 116 -3 188 0 142 -3 b 72 25 83 -3 72 10 b 144 115 72 63 137 56 b 150 482 149 144 150 381 b 149 803 150 553 150 780 b 76 917 142 884 76 876 b 117 948 76 933 83 948 b 222 944 143 948 189 944 b 326 948 256 944 301 948 "},"ĩ":{"ha":377,"x_min":0,"x_max":0,"o":"m 1 860 b 101 967 1 919 44 967 b 270 908 166 967 214 908 b 335 969 325 908 317 969 b 369 907 350 969 369 948 b 266 801 369 843 324 801 b 90 867 194 801 142 867 b 24 810 44 867 42 810 b 1 860 15 810 1 825 m 263 671 b 256 457 263 640 256 587 l 256 144 b 290 68 256 101 269 83 b 331 26 310 53 331 49 b 288 -3 331 10 322 -3 b 192 0 253 -3 230 0 b 88 -3 153 0 144 -3 b 47 25 56 -3 47 10 b 83 66 47 48 70 56 b 123 150 117 90 123 115 l 123 529 b 76 589 123 562 105 579 b 47 620 63 596 47 605 b 114 665 47 648 76 651 b 227 711 176 691 206 711 b 263 671 251 711 263 699 "},"Ī":{"ha":442,"x_min":0,"x_max":0,"o":"m 32 1045 b 1 1074 8 1045 1 1058 b 14 1128 1 1091 6 1115 b 73 1151 22 1144 37 1151 l 410 1151 b 441 1125 435 1151 441 1138 b 427 1069 441 1106 434 1083 b 368 1045 418 1053 403 1045 m 326 948 b 367 917 358 948 367 933 b 295 803 367 874 301 886 b 292 482 293 782 292 615 b 299 115 292 335 294 149 b 370 25 308 55 370 63 b 326 -3 370 10 358 -3 b 222 0 300 -3 256 0 b 116 -3 188 0 142 -3 b 72 25 83 -3 72 10 b 144 115 72 63 137 56 b 150 482 149 144 150 381 b 149 803 150 553 150 780 b 76 917 142 884 76 876 b 117 948 76 933 83 948 b 222 944 143 948 189 944 b 326 948 256 944 301 948 "},"ī":{"ha":377,"x_min":0,"x_max":0,"o":"m 47 825 b 17 853 24 825 17 838 b 30 905 17 869 23 892 b 87 926 38 919 51 926 l 340 926 b 369 900 365 926 369 913 b 357 848 369 883 363 859 b 299 825 348 833 333 825 m 263 671 b 256 457 263 640 256 587 l 256 144 b 290 68 256 101 269 83 b 331 26 310 53 331 49 b 288 -3 331 10 322 -3 b 192 0 253 -3 230 0 b 88 -3 153 0 144 -3 b 47 25 56 -3 47 10 b 83 66 47 48 70 56 b 123 150 117 90 123 115 l 123 529 b 76 589 123 562 105 579 b 47 620 63 596 47 605 b 114 665 47 648 76 651 b 227 711 176 691 206 711 b 263 671 251 711 263 699 "},"Į":{"ha":442,"x_min":0,"x_max":0,"o":"m 88 -181 b 219 -13 88 -110 153 -49 b 229 -4 224 -11 229 -7 b 219 0 229 -1 228 0 b 116 -3 191 0 142 -3 b 72 25 83 -3 72 10 b 144 115 72 63 137 56 b 150 482 149 144 150 381 b 149 803 150 553 150 780 b 76 917 142 884 76 876 b 117 948 76 933 83 948 b 222 944 143 948 189 944 b 326 948 256 944 301 948 b 367 917 358 948 367 933 b 295 803 367 874 301 886 b 292 482 293 782 292 615 b 299 115 292 335 294 149 b 370 25 308 55 370 63 b 299 -28 370 6 348 3 b 205 -164 238 -70 205 -119 b 276 -236 205 -206 229 -236 b 333 -219 300 -236 321 -228 b 356 -207 343 -212 348 -207 b 370 -226 365 -207 370 -216 b 234 -308 370 -254 319 -308 b 88 -181 145 -308 88 -257 "},"į":{"ha":377,"x_min":0,"x_max":0,"o":"m 90 867 b 209 989 90 928 148 989 b 287 916 253 989 287 960 b 158 804 287 853 222 804 b 90 867 112 804 90 831 m 263 671 b 256 457 263 640 256 587 l 256 144 b 290 68 256 101 269 83 b 331 26 310 53 331 49 b 258 -24 331 -2 306 6 b 165 -167 182 -73 165 -126 b 233 -239 165 -207 189 -239 b 288 -222 256 -239 275 -231 b 310 -208 298 -214 303 -208 b 324 -228 319 -208 324 -217 b 194 -308 324 -256 276 -308 b 56 -183 110 -308 56 -258 b 191 -9 56 -110 120 -44 b 197 -3 194 -7 197 -6 b 183 0 197 -1 193 0 b 88 -3 155 0 136 -3 b 47 25 56 -3 47 10 b 83 66 47 48 70 56 b 123 150 117 90 123 115 l 123 529 b 76 589 123 562 105 579 b 47 620 63 596 47 605 b 114 665 47 648 76 651 b 227 711 176 691 206 711 b 263 671 251 711 263 699 "},"İ":{"ha":442,"x_min":0,"x_max":0,"o":"m 231 1207 b 318 1127 281 1207 318 1175 b 207 1024 318 1069 268 1024 b 124 1101 156 1024 124 1056 b 231 1207 124 1156 171 1207 m 326 948 b 367 917 358 948 367 933 b 295 803 367 874 301 886 b 292 482 293 782 292 615 b 299 115 292 335 294 149 b 370 25 308 55 370 63 b 326 -3 370 10 358 -3 b 222 0 300 -3 256 0 b 116 -3 188 0 142 -3 b 72 25 83 -3 72 10 b 144 115 72 63 137 56 b 150 482 149 144 150 381 b 149 803 150 553 150 780 b 76 917 142 884 76 876 b 117 948 76 933 83 948 b 222 944 143 948 189 944 b 326 948 256 944 301 948 "},"ı":{"ha":377,"x_min":0,"x_max":0,"o":"m 263 671 b 256 457 263 640 256 587 l 256 144 b 290 68 256 101 269 83 b 331 26 310 53 331 49 b 288 -3 331 10 322 -3 b 192 0 253 -3 230 0 b 88 -3 153 0 144 -3 b 47 25 56 -3 47 10 b 83 66 47 48 70 56 b 123 150 117 90 123 115 l 123 529 b 76 589 123 562 105 579 b 47 620 63 596 47 605 b 114 665 47 648 76 651 b 227 711 176 691 206 711 b 263 671 251 711 263 699 "},"Ĳ":{"ha":1142,"x_min":0,"x_max":0,"o":"m 326 948 b 367 917 358 948 367 933 b 295 803 367 874 301 886 b 292 482 293 782 292 615 b 299 115 292 335 294 149 b 370 25 308 55 370 63 b 326 -3 370 10 358 -3 b 222 0 300 -3 256 0 b 116 -3 188 0 142 -3 b 72 25 83 -3 72 10 b 144 115 72 63 137 56 b 150 482 149 144 150 381 b 149 803 150 553 150 780 b 76 917 142 884 76 876 b 117 948 76 933 83 948 b 222 944 143 948 189 944 b 326 948 256 944 301 948 m 874 482 b 870 799 874 615 872 778 b 778 917 864 882 778 872 b 819 948 778 933 787 948 b 943 944 844 948 909 944 b 1043 948 976 944 1017 948 b 1085 917 1076 948 1085 933 b 1017 803 1085 876 1024 884 b 1015 406 1015 780 1015 478 b 703 -21 1015 135 942 -21 b 436 191 505 -21 436 97 b 538 315 436 250 470 315 b 609 257 588 315 609 285 b 580 157 609 232 580 206 b 703 56 580 108 612 56 b 874 365 831 56 874 176 "},"ĳ":{"ha":710,"x_min":0,"x_max":0,"o":"m 90 867 b 210 989 90 928 149 989 b 288 916 253 989 288 960 b 158 804 288 853 223 804 b 90 867 113 804 90 831 m 451 867 b 571 989 451 928 510 989 b 649 916 614 989 649 960 b 519 804 649 853 584 804 b 451 867 474 804 451 831 m 263 671 b 257 457 263 640 257 587 l 257 144 b 290 68 257 101 269 83 b 332 26 310 53 332 49 b 288 -3 332 10 323 -3 b 192 0 253 -3 231 0 b 88 -3 153 0 145 -3 b 48 25 56 -3 48 10 b 84 66 48 48 71 56 b 124 150 118 90 124 115 l 124 529 b 77 589 124 562 106 579 b 48 620 63 596 48 605 b 115 665 48 648 77 651 b 228 711 177 691 206 711 b 263 671 252 711 263 699 m 618 186 b 623 -15 618 112 623 10 b 378 -296 623 -212 469 -296 b 331 -269 350 -296 331 -283 b 363 -240 331 -256 347 -251 b 485 11 396 -214 485 -158 l 485 529 b 438 589 485 563 466 580 b 409 620 424 596 409 606 b 476 665 409 648 438 651 b 589 711 538 691 567 711 b 624 671 613 711 624 699 b 618 457 624 643 618 600 "},"Ĵ":{"ha":738,"x_min":0,"x_max":0,"o":"m 695 1001 b 572 1055 666 1001 619 1022 b 529 1079 550 1070 540 1079 b 490 1055 519 1079 511 1071 b 369 1001 453 1028 398 1001 b 346 1022 356 1001 346 1009 b 364 1051 346 1033 353 1040 b 466 1175 399 1090 437 1136 b 533 1221 485 1200 501 1221 b 599 1175 562 1221 579 1201 b 701 1053 624 1141 663 1095 b 720 1022 713 1042 720 1032 b 695 1001 720 1008 708 1001 m 469 482 b 466 799 469 615 468 778 b 374 917 460 882 374 872 b 415 948 374 933 383 948 b 539 944 440 948 505 944 b 639 948 572 944 613 948 b 681 917 672 948 681 933 b 613 803 681 876 619 884 b 611 406 611 780 611 478 b 299 -21 611 135 538 -21 b 32 191 101 -21 32 97 b 134 315 32 250 66 315 b 205 257 184 315 205 285 b 176 157 205 232 176 206 b 299 56 176 108 208 56 b 469 365 427 56 469 176 "},"ĵ":{"ha":335,"x_min":0,"x_max":0,"o":"m 305 780 b 201 850 281 780 242 808 b 165 885 181 870 173 885 b 130 851 158 885 149 870 b 31 780 98 817 55 780 b 11 799 20 780 11 787 b 27 828 11 809 18 818 b 113 981 61 876 92 935 b 168 1030 126 1007 138 1030 b 225 981 197 1030 213 1008 b 309 828 256 910 273 881 b 325 799 318 817 325 808 b 305 780 325 788 316 780 m 242 186 b 247 -15 242 112 247 10 b 2 -296 247 -212 94 -296 b -44 -269 -26 -296 -44 -283 b -13 -240 -44 -256 -29 -251 b 109 11 20 -214 109 -158 l 109 529 b 63 589 109 563 90 580 b 33 620 48 596 33 606 b 100 665 33 648 63 651 b 213 711 163 691 192 711 b 249 671 238 711 249 699 b 242 457 249 643 242 600 "},"Ķ":{"ha":940,"x_min":0,"x_max":0,"o":"m 297 494 b 629 842 313 494 629 806 b 581 918 629 875 581 881 b 621 948 581 933 592 948 b 715 944 642 948 691 944 b 840 947 736 944 818 947 b 886 917 871 947 886 940 b 771 824 886 881 828 866 b 445 521 722 788 593 670 b 438 508 442 517 438 513 b 447 500 438 506 440 502 b 799 183 600 454 698 366 b 885 75 825 135 844 102 b 933 27 914 55 933 50 b 898 -3 933 5 916 -3 b 785 0 871 -3 816 0 b 682 -3 735 0 699 -3 b 642 25 658 -3 642 10 b 659 83 642 47 659 49 b 341 400 659 181 522 400 b 292 356 310 400 292 386 l 292 150 b 334 71 292 108 308 87 b 383 25 357 56 383 47 b 339 -3 383 8 369 -3 b 222 0 310 -3 256 0 b 116 -3 188 0 142 -3 b 72 25 83 -3 72 10 b 144 115 72 63 137 56 b 150 482 149 144 150 381 b 149 803 150 553 150 780 b 76 917 142 884 76 876 b 117 948 76 933 83 948 b 222 944 143 948 189 944 b 326 948 256 944 301 948 b 367 917 358 948 367 933 b 301 826 367 880 309 883 b 290 652 296 808 290 726 b 297 494 290 510 292 494 m 450 -335 b 432 -317 438 -335 432 -327 b 474 -215 432 -297 474 -266 b 423 -123 474 -196 423 -173 b 494 -55 423 -80 457 -55 b 573 -146 543 -55 573 -91 b 450 -335 573 -243 490 -335 "},"ķ":{"ha":781,"x_min":0,"x_max":0,"o":"m 253 210 b 294 66 253 112 262 90 b 337 26 311 53 337 49 b 292 -3 337 10 327 -3 b 192 0 266 -3 224 0 b 88 -3 155 0 127 -3 b 47 25 56 -3 47 10 b 83 66 47 48 70 56 b 123 150 117 90 123 115 l 123 849 b 76 901 123 878 103 892 b 48 930 62 907 48 916 b 114 976 48 956 76 961 b 226 1021 176 1001 203 1021 b 262 981 250 1021 262 1008 b 254 482 262 937 254 878 b 265 383 254 387 259 383 b 497 601 291 383 497 561 b 453 669 497 626 453 643 b 488 699 453 692 472 699 b 580 696 519 699 547 696 b 687 700 612 696 663 700 b 726 671 708 700 726 693 b 651 606 726 644 685 631 b 403 398 605 574 503 474 b 396 388 397 393 396 392 b 403 381 396 385 399 382 b 744 69 603 306 653 124 b 780 27 749 66 780 51 b 752 -3 780 18 776 -3 b 645 -1 729 -3 677 -1 b 529 -4 610 -1 549 -4 b 491 26 507 -4 491 7 b 522 85 491 48 522 58 b 440 216 522 113 491 165 b 295 299 376 280 315 299 b 253 210 259 299 253 271 m 358 -335 b 340 -317 346 -335 340 -327 b 382 -215 340 -297 382 -266 b 331 -123 382 -196 331 -173 b 401 -55 331 -80 365 -55 b 481 -146 451 -55 481 -91 b 358 -335 481 -243 398 -335 "},"Ĺ":{"ha":814,"x_min":0,"x_max":0,"o":"m 135 1063 b 239 1163 174 1093 210 1128 b 328 1221 265 1195 291 1221 b 392 1160 365 1221 392 1197 b 319 1068 392 1118 355 1090 b 135 1001 257 1031 178 1001 b 105 1023 119 1001 105 1008 b 135 1063 105 1036 113 1046 m 150 482 b 149 803 150 553 150 780 b 76 917 142 884 76 876 b 117 948 76 933 83 948 b 222 944 143 948 189 944 b 347 948 256 944 322 948 b 387 917 378 948 387 933 b 295 799 387 872 301 882 b 292 482 293 778 292 615 l 292 149 b 447 84 292 93 308 84 b 699 242 631 84 663 118 b 742 301 715 290 726 301 b 768 251 763 301 768 278 b 753 42 768 213 757 127 b 697 -3 751 11 732 -3 b 416 0 655 -3 583 0 b 116 -3 212 0 149 -3 b 72 25 88 -3 72 5 b 144 115 72 65 134 56 b 150 482 149 137 150 290 "},"ĺ":{"ha":378,"x_min":0,"x_max":0,"o":"m 107 1069 b 173 1158 120 1085 152 1126 b 254 1221 194 1191 216 1221 b 312 1163 290 1221 312 1197 b 256 1078 312 1131 288 1103 b 107 1009 214 1044 141 1009 b 81 1031 92 1009 81 1017 b 107 1069 81 1040 90 1050 m 262 960 b 256 745 262 917 256 890 l 256 144 b 290 68 256 101 269 83 b 331 26 310 53 331 49 b 288 -3 331 10 322 -3 b 192 0 261 -3 224 0 b 88 -3 155 0 127 -3 b 47 25 56 -3 47 10 b 83 66 47 48 70 56 b 123 150 117 90 123 115 l 123 828 b 76 881 123 858 103 872 b 48 910 62 887 48 896 b 114 956 48 935 76 941 b 226 1001 176 981 203 1001 b 262 960 250 1001 262 989 "},"Ļ":{"ha":814,"x_min":0,"x_max":0,"o":"m 150 482 b 149 803 150 553 150 780 b 76 917 142 884 76 876 b 117 948 76 933 83 948 b 222 944 143 948 189 944 b 347 948 256 944 322 948 b 387 917 378 948 387 933 b 295 799 387 872 301 882 b 292 482 293 778 292 615 l 292 149 b 447 84 292 93 308 84 b 699 242 631 84 663 118 b 742 301 715 290 726 301 b 768 251 763 301 768 278 b 753 42 768 213 757 127 b 697 -3 751 11 732 -3 b 416 0 655 -3 583 0 b 116 -3 212 0 149 -3 b 72 25 88 -3 72 5 b 144 115 72 65 134 56 b 150 482 149 137 150 290 m 377 -335 b 359 -317 365 -335 359 -327 b 401 -215 359 -297 401 -266 b 350 -123 401 -196 350 -173 b 421 -55 350 -80 384 -55 b 500 -146 470 -55 500 -91 b 377 -335 500 -243 417 -335 "},"ļ":{"ha":378,"x_min":0,"x_max":0,"o":"m 262 981 b 256 765 262 937 256 910 l 256 144 b 290 68 256 101 269 83 b 331 26 310 53 331 49 b 288 -3 331 10 322 -3 b 192 0 261 -3 224 0 b 88 -3 155 0 127 -3 b 47 25 56 -3 47 10 b 83 66 47 48 70 56 b 123 150 117 90 123 115 l 123 849 b 76 901 123 878 103 892 b 48 930 62 907 48 916 b 114 976 48 956 76 961 b 226 1021 176 1001 203 1021 b 262 981 250 1021 262 1008 m 141 -335 b 123 -317 129 -335 123 -327 b 165 -215 123 -297 165 -266 b 114 -123 165 -196 114 -173 b 185 -55 114 -80 148 -55 b 264 -146 234 -55 264 -91 b 141 -335 264 -243 181 -335 "},"Ľ":{"ha":814,"x_min":0,"x_max":0,"o":"m 434 693 b 449 880 442 754 443 840 b 512 951 456 928 479 951 b 564 881 542 951 564 928 b 535 760 564 852 554 808 b 450 618 496 658 472 618 b 429 644 435 618 429 628 b 434 693 429 651 431 666 m 150 482 b 149 803 150 553 150 780 b 76 917 142 884 76 876 b 117 948 76 933 83 948 b 222 944 143 948 189 944 b 347 948 256 944 322 948 b 387 917 378 948 387 933 b 295 799 387 872 301 882 b 292 482 293 778 292 615 l 292 149 b 447 84 292 93 308 84 b 699 242 631 84 663 118 b 742 301 715 290 726 301 b 768 251 763 301 768 278 b 753 42 768 213 757 127 b 697 -3 751 11 732 -3 b 416 0 655 -3 583 0 b 116 -3 212 0 149 -3 b 72 25 88 -3 72 5 b 144 115 72 65 134 56 b 150 482 149 137 150 290 "},"ľ":{"ha":494,"x_min":0,"x_max":0,"o":"m 262 981 b 256 765 262 937 256 910 l 256 144 b 290 68 256 101 269 83 b 331 26 310 53 331 49 b 288 -3 331 10 322 -3 b 192 0 261 -3 224 0 b 88 -3 155 0 127 -3 b 47 25 56 -3 47 10 b 83 66 47 48 70 56 b 123 150 117 90 123 115 l 123 849 b 76 901 123 878 103 892 b 48 930 62 907 48 916 b 114 976 48 956 76 961 b 226 1021 176 1001 203 1021 b 262 981 250 1021 262 1008 m 352 763 b 367 949 360 824 361 910 b 430 1021 374 998 397 1021 b 482 950 460 1021 482 997 b 453 829 482 922 472 878 b 368 688 414 727 390 688 b 347 713 353 688 347 697 b 352 763 347 721 349 735 "},"Ŀ":{"ha":814,"x_min":0,"x_max":0,"o":"m 150 482 b 149 803 150 553 150 780 b 76 917 142 884 76 876 b 117 948 76 933 83 948 b 222 944 143 948 189 944 b 347 948 256 944 322 948 b 387 917 378 948 387 933 b 295 799 387 872 301 882 b 292 482 293 778 292 615 l 292 149 b 447 84 292 93 308 84 b 699 235 619 84 660 108 b 742 295 714 283 726 295 b 768 245 763 295 768 272 b 753 42 768 207 757 127 b 697 -3 751 11 732 -3 b 416 0 655 -3 583 0 b 116 -3 212 0 149 -3 b 72 25 88 -3 72 5 b 144 115 72 65 134 56 b 150 482 149 137 150 290 m 722 497 b 627 403 722 438 676 403 b 541 486 582 403 541 431 b 636 582 541 546 589 582 b 722 497 680 582 722 553 "},"ŀ":{"ha":619,"x_min":0,"x_max":0,"o":"m 262 981 b 256 765 262 937 256 910 l 256 144 b 290 68 256 101 269 83 b 331 26 310 53 331 49 b 288 -3 331 10 322 -3 b 192 0 261 -3 224 0 b 88 -3 155 0 127 -3 b 47 25 56 -3 47 10 b 83 66 47 48 70 56 b 123 150 117 90 123 115 l 123 849 b 76 901 123 878 103 892 b 48 930 62 907 48 916 b 114 976 48 956 76 961 b 226 1021 176 1001 203 1021 b 262 981 250 1021 262 1008 m 589 360 b 494 267 589 302 543 267 b 408 350 449 267 408 294 b 503 446 408 410 456 446 b 589 360 547 446 589 417 "},"Ł":{"ha":814,"x_min":0,"x_max":0,"o":"m 150 480 b 149 803 150 553 150 780 b 76 917 142 884 76 876 b 117 948 76 933 83 948 b 222 944 143 948 189 944 b 347 948 256 944 322 948 b 387 917 378 948 387 933 b 295 799 387 872 301 882 b 292 546 293 781 292 663 l 400 599 b 439 613 419 609 430 613 b 468 556 460 613 468 581 b 429 515 468 540 453 527 l 292 448 l 292 149 b 447 84 292 93 308 84 b 699 242 631 84 663 118 b 742 301 715 290 726 301 b 768 251 763 301 768 278 b 753 42 768 213 757 127 b 697 -3 751 11 732 -3 b 416 0 655 -3 583 0 b 116 -3 212 0 149 -3 b 72 25 88 -3 72 5 b 144 115 72 65 134 56 b 150 383 148 133 149 239 l 92 354 b 52 341 73 346 63 341 b 24 397 33 341 24 369 b 63 438 24 414 38 425 l 150 480 "},"ł":{"ha":381,"x_min":0,"x_max":0,"o":"m 265 981 b 260 765 265 937 260 910 l 260 572 l 339 610 b 377 624 358 620 368 624 b 403 577 397 624 403 595 b 367 538 403 563 392 550 l 260 485 l 260 144 b 293 68 260 101 272 83 b 335 26 313 53 335 49 b 291 -3 335 10 326 -3 b 195 0 265 -3 227 0 b 91 -3 158 0 131 -3 b 51 25 59 -3 51 10 b 87 66 51 48 74 56 b 126 150 121 90 126 115 l 126 424 l 56 390 b 17 377 38 382 27 377 b -8 422 -1 377 -8 403 b 28 461 -8 438 3 449 l 126 510 l 126 849 b 79 901 126 878 107 892 b 51 930 65 907 51 916 b 117 976 51 956 80 961 b 230 1021 180 1001 206 1021 b 265 981 253 1021 265 1008 "},"Ń":{"ha":997,"x_min":0,"x_max":0,"o":"m 414 1063 b 518 1163 453 1093 489 1128 b 607 1221 544 1195 570 1221 b 672 1160 644 1221 672 1197 b 598 1068 672 1118 634 1090 b 414 1001 536 1031 457 1001 b 384 1023 399 1001 384 1008 b 414 1063 384 1036 392 1046 m 117 948 b 210 944 138 948 183 944 b 278 936 242 944 264 943 b 338 868 296 927 308 910 l 724 300 b 762 260 745 270 758 260 b 769 485 767 260 769 261 b 756 830 769 662 766 808 b 683 919 742 881 683 885 b 723 948 683 939 696 948 b 815 944 756 948 794 944 b 900 948 840 944 869 948 b 937 917 927 948 937 935 b 869 813 937 877 874 883 b 865 486 866 786 865 638 b 873 58 865 166 873 116 b 790 -10 873 21 832 -10 b 742 23 774 -10 757 3 l 274 699 b 255 719 265 710 259 719 b 244 465 245 719 244 709 b 259 111 244 285 249 133 b 334 27 275 60 334 60 b 292 -3 334 7 319 -3 b 200 0 258 -3 220 0 b 111 -3 174 0 143 -3 b 72 26 84 -3 72 9 b 146 129 72 65 140 60 b 150 478 149 160 150 302 b 148 803 150 653 150 785 b 76 917 141 885 76 875 b 117 948 76 938 92 948 "},"ń":{"ha":836,"x_min":0,"x_max":0,"o":"m 364 835 b 421 959 385 872 408 923 b 496 1038 433 995 449 1038 b 552 980 533 1038 552 1010 b 517 896 552 957 544 933 b 374 781 474 836 402 781 b 349 801 358 781 349 788 b 364 835 349 806 351 813 m 735 429 b 715 129 735 290 715 173 b 748 67 715 106 726 81 b 794 26 773 53 794 49 b 748 -3 794 8 783 -3 b 666 0 721 -3 704 0 b 582 -3 628 0 608 -3 b 549 25 557 -3 549 10 b 565 76 549 42 561 65 b 597 397 578 117 597 249 b 439 613 597 542 535 613 b 255 456 348 613 255 522 l 255 144 b 287 68 255 101 266 83 b 328 26 306 53 328 49 b 284 -3 328 10 319 -3 b 190 0 249 -3 224 0 b 87 -3 155 0 127 -3 b 46 25 55 -3 46 10 b 83 66 46 48 69 56 b 122 150 116 90 122 115 l 122 540 b 74 592 122 571 102 583 b 48 620 60 597 48 606 b 115 667 48 647 78 652 b 210 703 163 688 188 703 b 244 670 227 703 238 695 b 265 591 251 633 253 591 b 506 711 278 591 367 711 b 735 429 647 711 735 619 "},"Ņ":{"ha":997,"x_min":0,"x_max":0,"o":"m 117 948 b 210 944 138 948 183 944 b 278 936 242 944 264 943 b 338 868 296 927 308 910 l 724 300 b 762 260 745 270 758 260 b 769 485 767 260 769 261 b 756 830 769 662 766 808 b 683 919 742 881 683 885 b 723 948 683 939 696 948 b 815 944 756 948 794 944 b 900 948 840 944 869 948 b 937 917 927 948 937 935 b 869 813 937 877 874 883 b 865 486 866 786 865 638 b 873 58 865 166 873 116 b 790 -10 873 21 832 -10 b 742 23 774 -10 757 3 l 274 699 b 255 719 265 710 259 719 b 244 465 245 719 244 709 b 259 111 244 285 249 133 b 334 27 275 60 334 60 b 292 -3 334 7 319 -3 b 200 0 258 -3 220 0 b 111 -3 174 0 143 -3 b 72 26 84 -3 72 9 b 146 129 72 65 140 60 b 150 478 149 160 150 302 b 148 803 150 653 150 785 b 76 917 141 885 76 875 b 117 948 76 938 92 948 m 466 -335 b 448 -317 454 -335 448 -327 b 490 -215 448 -297 490 -266 b 439 -123 490 -196 439 -173 b 510 -55 439 -80 473 -55 b 589 -146 559 -55 589 -91 b 466 -335 589 -243 506 -335 "},"ņ":{"ha":836,"x_min":0,"x_max":0,"o":"m 735 429 b 715 129 735 290 715 173 b 748 67 715 106 726 81 b 794 26 773 53 794 49 b 748 -3 794 8 783 -3 b 666 0 721 -3 704 0 b 582 -3 628 0 608 -3 b 549 25 557 -3 549 10 b 565 76 549 42 561 65 b 597 397 578 117 597 249 b 439 613 597 542 535 613 b 255 456 348 613 255 522 l 255 144 b 287 68 255 101 266 83 b 328 26 306 53 328 49 b 284 -3 328 10 319 -3 b 190 0 249 -3 224 0 b 87 -3 155 0 127 -3 b 46 25 55 -3 46 10 b 83 66 46 48 69 56 b 122 150 116 90 122 115 l 122 540 b 74 592 122 571 102 583 b 48 620 60 597 48 606 b 115 667 48 647 78 652 b 210 703 163 688 188 703 b 244 670 227 703 238 695 b 265 591 251 633 253 591 b 506 711 278 591 367 711 b 735 429 647 711 735 619 m 370 -335 b 352 -317 358 -335 352 -327 b 394 -215 352 -297 394 -266 b 343 -123 394 -196 343 -173 b 414 -55 343 -80 377 -55 b 493 -146 463 -55 493 -91 b 370 -335 493 -243 410 -335 "},"Ň":{"ha":997,"x_min":0,"x_max":0,"o":"m 343 1221 b 466 1167 372 1221 418 1201 b 508 1143 488 1152 499 1143 b 548 1167 519 1143 526 1151 b 668 1221 585 1194 640 1221 b 692 1200 682 1221 692 1213 b 674 1171 692 1190 685 1182 b 572 1047 639 1133 601 1086 b 506 1001 553 1022 537 1001 b 439 1047 476 1001 458 1022 b 337 1169 414 1081 376 1127 b 318 1201 326 1181 318 1190 b 343 1221 318 1215 331 1221 m 117 948 b 210 944 138 948 183 944 b 278 936 242 944 264 943 b 338 868 296 927 308 910 l 724 300 b 762 260 745 270 758 260 b 769 485 767 260 769 261 b 756 830 769 662 766 808 b 683 919 742 881 683 885 b 723 948 683 939 696 948 b 815 944 756 948 794 944 b 900 948 840 944 869 948 b 937 917 927 948 937 935 b 869 813 937 877 874 883 b 865 486 866 786 865 638 b 873 58 865 166 873 116 b 790 -10 873 21 832 -10 b 742 23 774 -10 757 3 l 274 699 b 255 719 265 710 259 719 b 244 465 245 719 244 709 b 259 111 244 285 249 133 b 334 27 275 60 334 60 b 292 -3 334 7 319 -3 b 200 0 258 -3 220 0 b 111 -3 174 0 143 -3 b 72 26 84 -3 72 9 b 146 129 72 65 140 60 b 150 478 149 160 150 302 b 148 803 150 653 150 785 b 76 917 141 885 76 875 b 117 948 76 938 92 948 "},"ň":{"ha":836,"x_min":0,"x_max":0,"o":"m 286 1030 b 390 960 310 1030 349 1002 b 426 925 410 940 418 925 b 461 959 433 925 442 940 b 560 1030 493 993 536 1030 b 580 1012 571 1030 580 1024 b 564 981 580 1001 573 992 b 478 829 530 935 499 875 b 423 780 465 803 453 780 b 366 829 394 780 378 802 b 282 981 335 899 318 929 b 266 1012 273 993 266 1002 b 286 1030 266 1022 275 1030 m 735 429 b 715 129 735 290 715 173 b 748 67 715 106 726 81 b 794 26 773 53 794 49 b 748 -3 794 8 783 -3 b 666 0 721 -3 704 0 b 582 -3 628 0 608 -3 b 549 25 557 -3 549 10 b 565 76 549 42 561 65 b 597 397 578 117 597 249 b 439 613 597 542 535 613 b 255 456 348 613 255 522 l 255 144 b 287 68 255 101 266 83 b 328 26 306 53 328 49 b 284 -3 328 10 319 -3 b 190 0 249 -3 224 0 b 87 -3 155 0 127 -3 b 46 25 55 -3 46 10 b 83 66 46 48 69 56 b 122 150 116 90 122 115 l 122 540 b 74 592 122 571 102 583 b 48 620 60 597 48 606 b 115 667 48 647 78 652 b 210 703 163 688 188 703 b 244 670 227 703 238 695 b 265 591 251 633 253 591 b 506 711 278 591 367 711 b 735 429 647 711 735 619 "},"Ō":{"ha":1014,"x_min":0,"x_max":0,"o":"m 318 1045 b 288 1074 294 1045 288 1058 b 300 1128 288 1091 292 1115 b 359 1151 308 1144 323 1151 l 696 1151 b 727 1125 721 1151 727 1138 b 713 1069 727 1106 720 1083 b 654 1045 704 1053 690 1045 m 48 465 b 499 967 48 762 236 967 b 966 449 749 967 966 778 b 512 -24 966 133 763 -24 b 48 465 226 -24 48 181 m 483 882 b 213 508 345 882 213 753 b 268 244 213 428 225 332 b 535 69 335 110 449 69 b 810 408 683 69 810 176 b 742 704 810 514 785 624 b 483 882 685 813 589 882 "},"ō":{"ha":767,"x_min":0,"x_max":0,"o":"m 219 825 b 188 853 194 825 188 838 b 201 905 188 869 194 892 b 258 926 208 919 222 926 l 549 926 b 578 900 574 926 578 913 b 566 848 578 883 572 859 b 508 825 557 833 543 825 m 38 344 b 376 711 38 560 180 711 b 730 331 563 711 730 572 b 386 -14 730 101 574 -14 b 38 344 173 -14 38 136 m 363 635 b 182 386 264 635 182 550 b 222 191 182 329 191 253 b 406 71 268 102 342 71 b 590 299 503 71 590 140 b 541 513 590 374 572 455 b 363 635 496 595 430 635 "},"Ŏ":{"ha":1014,"x_min":0,"x_max":0,"o":"m 506 1001 b 322 1172 362 1001 322 1107 b 342 1211 322 1195 327 1211 b 369 1176 354 1211 358 1199 b 506 1103 389 1144 427 1103 b 642 1176 588 1103 623 1144 b 671 1211 653 1199 658 1211 b 692 1172 685 1211 692 1195 b 506 1001 692 1107 652 1001 m 48 465 b 499 967 48 762 236 967 b 966 449 749 967 966 778 b 512 -24 966 133 763 -24 b 48 465 226 -24 48 181 m 483 882 b 213 508 345 882 213 753 b 268 244 213 428 225 332 b 535 69 335 110 449 69 b 810 408 683 69 810 176 b 742 704 810 514 785 624 b 483 882 685 813 589 882 "},"ŏ":{"ha":767,"x_min":0,"x_max":0,"o":"m 383 790 b 216 966 253 790 216 902 b 235 1006 216 989 222 1006 b 261 969 247 1006 251 993 b 383 892 278 935 312 892 b 506 969 455 892 489 935 b 532 1006 516 993 520 1006 b 551 966 545 1006 551 989 b 383 790 551 902 513 790 m 38 344 b 376 711 38 560 180 711 b 730 331 563 711 730 572 b 386 -14 730 101 574 -14 b 38 344 173 -14 38 136 m 363 635 b 182 386 264 635 182 550 b 222 191 182 329 191 253 b 406 71 268 102 342 71 b 590 299 503 71 590 140 b 541 513 590 374 572 455 b 363 635 496 595 430 635 "},"Ő":{"ha":1014,"x_min":0,"x_max":0,"o":"m 358 1061 b 448 1165 393 1092 424 1130 b 530 1228 469 1197 491 1228 b 592 1166 567 1228 592 1202 b 531 1078 592 1131 563 1103 b 361 1001 474 1037 400 1001 b 333 1022 346 1001 333 1008 b 358 1061 333 1034 340 1042 m 573 1060 b 665 1165 608 1092 640 1130 b 751 1228 688 1197 711 1228 b 813 1167 788 1228 813 1203 b 749 1078 813 1131 783 1103 b 574 1001 692 1036 615 1001 b 547 1022 560 1001 547 1008 b 573 1060 547 1033 554 1042 m 48 465 b 499 967 48 762 236 967 b 966 449 749 967 966 778 b 512 -24 966 133 763 -24 b 48 465 226 -24 48 181 m 483 882 b 213 508 345 882 213 753 b 268 244 213 428 225 332 b 535 69 335 110 449 69 b 810 408 683 69 810 176 b 742 704 810 514 785 624 b 483 882 685 813 589 882 "},"ő":{"ha":767,"x_min":0,"x_max":0,"o":"m 255 836 b 301 959 273 874 292 923 b 369 1039 309 995 322 1039 b 428 974 408 1039 428 1009 b 400 897 428 953 421 928 b 267 781 360 837 295 781 b 244 801 251 781 244 790 b 255 836 244 808 245 816 m 444 835 b 501 959 465 872 488 923 b 575 1038 513 995 528 1038 b 632 980 613 1038 632 1010 b 597 896 632 957 624 933 b 453 781 554 836 481 781 b 429 801 438 781 429 788 b 444 835 429 806 431 813 m 38 344 b 376 711 38 560 180 711 b 730 331 563 711 730 572 b 386 -14 730 101 574 -14 b 38 344 173 -14 38 136 m 363 635 b 182 386 264 635 182 550 b 222 191 182 329 191 253 b 406 71 268 102 342 71 b 590 299 503 71 590 140 b 541 513 590 374 572 455 b 363 635 496 595 430 635 "},"Œ":{"ha":1342,"x_min":0,"x_max":0,"o":"m 911 944 b 1170 948 1083 944 1146 948 b 1221 897 1201 948 1213 940 b 1241 759 1226 869 1233 804 b 1249 703 1246 735 1249 710 b 1221 673 1249 683 1236 673 b 1177 728 1198 673 1187 705 b 930 863 1130 842 1111 863 b 777 793 796 863 777 855 l 777 592 b 822 544 777 556 785 544 b 1021 621 988 544 997 565 b 1048 644 1028 633 1038 644 b 1077 581 1069 644 1077 627 l 1077 404 b 1051 353 1077 369 1072 353 b 1015 388 1031 353 1022 372 b 824 460 989 444 981 460 b 777 412 785 460 777 445 l 777 156 b 935 84 777 90 797 84 b 1212 240 1124 84 1163 111 b 1252 287 1222 266 1236 287 b 1278 238 1269 287 1278 274 b 1255 40 1278 209 1257 72 b 1199 -3 1253 10 1235 -3 b 944 0 1173 -3 1097 0 b 539 -6 767 0 619 -6 b 48 467 294 -6 48 126 b 495 951 48 767 229 951 b 911 944 584 951 674 944 m 636 792 b 500 870 636 857 563 870 b 208 495 290 870 208 687 b 551 83 208 269 299 83 b 636 163 610 83 636 103 "},"œ":{"ha":1219,"x_min":0,"x_max":0,"o":"m 1128 381 b 741 308 1046 327 851 309 b 724 294 728 307 724 303 b 931 95 724 228 780 95 b 1144 222 1041 95 1108 152 b 1167 243 1151 233 1159 243 b 1183 210 1176 243 1183 233 b 899 -15 1183 132 1092 -15 b 663 92 797 -15 718 27 b 644 109 655 103 650 109 b 625 95 638 109 635 106 b 380 -14 567 24 476 -14 b 38 344 171 -14 38 136 b 370 711 38 560 178 711 b 632 577 475 711 572 664 b 646 566 638 570 641 566 b 661 580 651 566 654 570 b 913 711 720 661 806 711 b 1172 459 1072 711 1172 598 b 1128 381 1172 420 1156 397 m 360 635 b 183 387 264 635 183 550 b 222 191 183 331 191 253 b 399 72 268 102 338 72 b 578 299 494 72 578 140 b 531 513 578 374 560 455 b 360 635 487 595 424 635 m 1042 478 b 901 635 1042 568 980 635 b 713 408 792 635 713 524 b 733 378 713 390 719 378 b 1015 432 790 378 953 395 b 1042 478 1033 443 1042 458 "},"Ŕ":{"ha":945,"x_min":0,"x_max":0,"o":"m 363 1063 b 467 1163 402 1093 438 1128 b 556 1221 492 1195 519 1221 b 620 1160 593 1221 620 1197 b 547 1068 620 1118 583 1090 b 363 1001 485 1031 406 1001 b 333 1023 347 1001 333 1008 b 363 1063 333 1036 341 1046 m 292 150 b 334 71 292 108 308 87 b 383 25 357 56 383 47 b 339 -3 383 8 369 -3 b 222 0 313 -3 256 0 b 116 -3 183 0 139 -3 b 72 25 83 -3 72 9 b 144 115 72 62 136 56 b 150 482 149 144 150 380 b 148 803 150 554 150 780 b 76 917 142 883 76 875 b 117 948 76 933 83 948 b 249 944 154 948 189 944 b 468 949 322 944 372 949 b 812 692 694 949 812 856 b 592 450 812 608 770 508 b 583 440 587 448 583 445 b 594 428 583 437 587 432 b 810 179 695 366 749 278 b 893 75 838 133 856 100 b 941 27 922 55 941 50 b 905 -3 941 5 923 -3 b 795 0 878 -3 826 0 b 692 -3 745 0 709 -3 b 652 25 669 -3 652 10 b 669 83 652 47 669 49 b 481 378 669 176 557 333 b 356 403 438 401 364 403 b 292 356 306 403 292 386 m 656 680 b 424 862 656 801 562 862 b 292 790 300 862 292 855 l 292 545 b 419 494 292 509 313 494 b 656 680 570 494 656 566 "},"ŕ":{"ha":620,"x_min":0,"x_max":0,"o":"m 263 835 b 319 959 283 872 307 923 b 394 1038 331 995 347 1038 b 451 980 432 1038 451 1010 b 416 896 451 957 443 933 b 272 781 373 836 301 781 b 248 801 256 781 248 788 b 263 835 248 806 250 813 m 404 601 b 255 431 329 601 255 504 l 255 147 b 308 67 255 105 271 87 b 365 26 328 56 365 51 b 321 -3 365 10 356 -3 b 190 0 287 -3 241 0 b 87 -3 151 0 144 -3 b 46 25 55 -3 46 10 b 83 66 46 48 69 56 b 122 150 116 90 122 115 l 122 540 b 74 592 122 571 102 583 b 48 620 60 597 48 606 b 115 667 48 647 78 652 b 210 703 163 688 188 703 b 244 670 227 703 238 695 b 265 591 251 633 253 591 b 480 711 278 591 356 711 b 599 588 538 711 599 676 b 506 472 599 527 559 472 b 468 533 472 472 476 494 b 404 601 460 574 439 601 "},"Ŗ":{"ha":945,"x_min":0,"x_max":0,"o":"m 292 150 b 334 71 292 108 308 87 b 383 25 357 56 383 47 b 339 -3 383 8 369 -3 b 222 0 313 -3 256 0 b 116 -3 183 0 139 -3 b 72 25 83 -3 72 9 b 144 115 72 62 136 56 b 150 482 149 144 150 380 b 148 803 150 554 150 780 b 76 917 142 883 76 875 b 117 948 76 933 83 948 b 249 944 154 948 189 944 b 468 949 322 944 372 949 b 812 692 694 949 812 856 b 592 450 812 608 770 508 b 583 440 587 448 583 445 b 594 428 583 437 587 432 b 810 179 695 366 749 278 b 893 75 838 133 856 100 b 941 27 922 55 941 50 b 905 -3 941 5 923 -3 b 795 0 878 -3 826 0 b 692 -3 745 0 709 -3 b 652 25 669 -3 652 10 b 669 83 652 47 669 49 b 481 378 669 176 557 333 b 356 403 438 401 364 403 b 292 356 306 403 292 386 m 656 680 b 424 862 656 801 562 862 b 292 790 300 862 292 855 l 292 545 b 419 494 292 509 313 494 b 656 680 570 494 656 566 m 444 -335 b 426 -317 432 -335 426 -327 b 468 -215 426 -297 468 -266 b 417 -123 468 -196 417 -173 b 488 -55 417 -80 451 -55 b 567 -146 537 -55 567 -91 b 444 -335 567 -243 484 -335 "},"ŗ":{"ha":620,"x_min":0,"x_max":0,"o":"m 404 601 b 255 431 329 601 255 504 l 255 147 b 308 67 255 105 271 87 b 365 26 328 56 365 51 b 321 -3 365 10 356 -3 b 190 0 287 -3 241 0 b 87 -3 151 0 144 -3 b 46 25 55 -3 46 10 b 83 66 46 48 69 56 b 122 150 116 90 122 115 l 122 540 b 74 592 122 571 102 583 b 48 620 60 597 48 606 b 115 667 48 647 78 652 b 210 703 163 688 188 703 b 244 670 227 703 238 695 b 265 591 251 633 253 591 b 480 711 278 591 356 711 b 599 588 538 711 599 676 b 506 472 599 527 559 472 b 468 533 472 472 476 494 b 404 601 460 574 439 601 m 140 -335 b 122 -317 128 -335 122 -327 b 165 -215 122 -297 165 -266 b 113 -123 165 -196 113 -173 b 184 -55 113 -80 147 -55 b 263 -146 233 -55 263 -91 b 140 -335 263 -243 181 -335 "},"Ř":{"ha":945,"x_min":0,"x_max":0,"o":"m 292 1221 b 415 1167 322 1221 367 1201 b 458 1143 438 1152 448 1143 b 497 1167 468 1143 476 1151 b 617 1221 535 1194 590 1221 b 642 1200 631 1221 642 1213 b 624 1171 642 1190 634 1182 b 522 1047 588 1133 550 1086 b 455 1001 502 1022 486 1001 b 388 1047 425 1001 408 1022 b 286 1169 363 1081 325 1127 b 267 1201 275 1181 267 1190 b 292 1221 267 1215 280 1221 m 292 150 b 334 71 292 108 308 87 b 383 25 357 56 383 47 b 339 -3 383 8 369 -3 b 222 0 313 -3 256 0 b 116 -3 183 0 139 -3 b 72 25 83 -3 72 9 b 144 115 72 62 136 56 b 150 482 149 144 150 380 b 148 803 150 554 150 780 b 76 917 142 883 76 875 b 117 948 76 933 83 948 b 249 944 154 948 189 944 b 468 949 322 944 372 949 b 812 692 694 949 812 856 b 592 450 812 608 770 508 b 583 440 587 448 583 445 b 594 428 583 437 587 432 b 810 179 695 366 749 278 b 893 75 838 133 856 100 b 941 27 922 55 941 50 b 905 -3 941 5 923 -3 b 795 0 878 -3 826 0 b 692 -3 745 0 709 -3 b 652 25 669 -3 652 10 b 669 83 652 47 669 49 b 481 378 669 176 557 333 b 356 403 438 401 364 403 b 292 356 306 403 292 386 m 656 680 b 424 862 656 801 562 862 b 292 790 300 862 292 855 l 292 545 b 419 494 292 509 313 494 b 656 680 570 494 656 566 "},"ř":{"ha":620,"x_min":0,"x_max":0,"o":"m 177 1030 b 281 960 201 1030 240 1002 b 317 925 301 940 309 925 b 352 959 324 925 333 940 b 451 1030 384 993 427 1030 b 471 1012 462 1030 471 1024 b 455 981 471 1001 464 992 b 369 829 421 935 390 875 b 314 780 356 803 344 780 b 257 829 285 780 269 802 b 173 981 226 899 209 929 b 157 1012 164 993 157 1002 b 177 1030 157 1022 166 1030 m 404 601 b 255 431 329 601 255 504 l 255 147 b 308 67 255 105 271 87 b 365 26 328 56 365 51 b 321 -3 365 10 356 -3 b 190 0 287 -3 241 0 b 87 -3 151 0 144 -3 b 46 25 55 -3 46 10 b 83 66 46 48 69 56 b 122 150 116 90 122 115 l 122 540 b 74 592 122 571 102 583 b 48 620 60 597 48 606 b 115 667 48 647 78 652 b 210 703 163 688 188 703 b 244 670 227 703 238 695 b 265 591 251 633 253 591 b 480 711 278 591 356 711 b 599 588 538 711 599 676 b 506 472 599 527 559 472 b 468 533 472 472 476 494 b 404 601 460 574 439 601 "},"Ś":{"ha":833,"x_min":0,"x_max":0,"o":"m 325 1063 b 429 1163 365 1093 400 1128 b 518 1221 455 1195 481 1221 b 583 1160 556 1221 583 1197 b 509 1068 583 1118 545 1090 b 325 1001 447 1031 368 1001 b 295 1023 310 1001 295 1008 b 325 1063 295 1036 303 1046 m 390 884 b 222 744 298 884 222 831 b 476 556 222 643 337 601 b 790 260 627 505 790 440 b 446 -23 790 83 643 -23 b 192 19 327 -23 242 19 b 127 5 165 19 149 5 b 76 134 94 5 93 30 b 59 258 66 201 59 244 b 87 291 59 274 69 291 b 172 195 115 291 128 247 b 449 70 224 134 317 70 b 638 221 564 70 638 129 b 394 417 638 336 519 375 b 81 701 247 467 81 525 b 385 968 81 861 203 968 b 605 925 497 968 558 925 b 667 938 632 925 645 938 b 724 813 708 938 703 897 b 750 699 743 731 750 713 b 721 665 750 680 740 665 b 653 731 694 665 681 697 b 390 884 562 852 465 884 "},"ś":{"ha":656,"x_min":0,"x_max":0,"o":"m 265 835 b 322 959 286 872 310 923 b 397 1038 334 995 350 1038 b 453 980 435 1038 453 1010 b 419 896 453 957 446 933 b 275 781 376 836 303 781 b 251 801 259 781 251 788 b 265 835 251 806 253 813 m 333 712 b 539 650 399 712 494 696 b 572 538 563 624 572 592 b 543 485 572 502 562 485 b 489 538 521 485 508 510 b 313 641 458 581 406 641 b 194 544 238 641 194 599 b 367 417 194 472 264 449 b 606 197 492 379 606 339 b 333 -18 606 58 483 -18 b 78 81 247 -18 124 10 b 52 183 60 106 52 142 b 83 240 52 223 63 240 b 122 201 97 240 108 224 b 347 63 157 144 222 63 b 469 167 424 63 469 103 b 283 304 469 247 393 267 b 73 507 183 338 73 376 b 333 712 73 640 199 712 "},"Ŝ":{"ha":833,"x_min":0,"x_max":0,"o":"m 578 1001 b 455 1055 549 1001 503 1022 b 413 1079 433 1070 423 1079 b 373 1055 403 1079 394 1071 b 253 1001 336 1028 281 1001 b 229 1022 240 1001 229 1009 b 247 1051 229 1033 237 1040 b 349 1175 283 1090 320 1136 b 416 1221 368 1200 385 1221 b 483 1175 445 1221 463 1201 b 585 1053 508 1141 546 1095 b 603 1022 596 1042 603 1032 b 578 1001 603 1008 591 1001 m 390 884 b 222 744 298 884 222 831 b 476 556 222 643 337 601 b 790 260 627 505 790 440 b 446 -23 790 83 643 -23 b 192 19 327 -23 242 19 b 127 5 165 19 149 5 b 76 134 94 5 93 30 b 59 258 66 201 59 244 b 87 291 59 274 69 291 b 172 195 115 291 128 247 b 449 70 224 134 317 70 b 638 221 564 70 638 129 b 394 417 638 336 519 375 b 81 701 247 467 81 525 b 385 968 81 861 203 968 b 605 925 497 968 558 925 b 667 938 632 925 645 938 b 724 813 708 938 703 897 b 750 699 743 731 750 713 b 721 665 750 680 740 665 b 653 731 694 665 681 697 b 390 884 562 852 465 884 "},"ŝ":{"ha":656,"x_min":0,"x_max":0,"o":"m 464 780 b 360 850 440 780 401 808 b 324 885 340 870 332 885 b 289 851 317 885 308 870 b 190 780 257 817 214 780 b 170 799 179 780 170 787 b 186 828 170 809 177 818 b 272 981 220 876 251 935 b 327 1030 285 1007 297 1030 b 384 981 356 1030 372 1008 b 468 828 415 910 432 881 b 484 799 477 817 484 808 b 464 780 484 788 475 780 m 333 712 b 539 650 399 712 494 696 b 572 538 563 624 572 592 b 543 485 572 502 562 485 b 489 538 521 485 508 510 b 313 641 458 581 406 641 b 194 544 238 641 194 599 b 367 417 194 472 264 449 b 606 197 492 379 606 339 b 333 -18 606 58 483 -18 b 78 81 247 -18 124 10 b 52 183 60 106 52 142 b 83 240 52 223 63 240 b 122 201 97 240 108 224 b 347 63 157 144 222 63 b 469 167 424 63 469 103 b 283 304 469 247 393 267 b 73 507 183 338 73 376 b 333 712 73 640 199 712 "},"Ş":{"ha":833,"x_min":0,"x_max":0,"o":"m 351 -96 b 383 -19 351 -79 365 -46 b 192 19 296 -8 232 19 b 127 5 165 19 149 5 b 76 134 94 5 93 30 b 59 258 66 201 59 244 b 87 291 59 274 69 291 b 172 195 115 291 128 247 b 449 70 224 134 317 70 b 638 221 564 70 638 129 b 394 417 638 336 519 375 b 81 701 247 467 81 525 b 385 968 81 861 203 968 b 605 925 497 968 558 925 b 667 938 632 925 645 938 b 724 813 708 938 703 897 b 750 699 743 731 750 713 b 721 665 750 680 740 665 b 653 731 694 665 681 697 b 390 884 562 852 465 884 b 222 744 298 884 222 831 b 476 556 222 643 337 601 b 790 260 627 505 790 440 b 448 -23 790 83 644 -22 b 438 -54 443 -34 438 -47 b 472 -70 438 -60 452 -60 b 546 -178 513 -90 546 -123 b 397 -312 546 -260 482 -312 b 274 -242 328 -312 274 -262 b 290 -223 274 -230 281 -223 b 381 -253 306 -223 331 -253 b 449 -194 419 -253 449 -230 b 367 -116 449 -156 417 -127 b 351 -96 358 -114 351 -111 "}}}
